<svg xmlns="http://www.w3.org/2000/svg" viewBox="0 0 716.5 609.22"><defs><style>.cls-1{fill:#f9f200;opacity:0.78;}.cls-2{fill:#797c71;}.cls-3{fill:#363233;}.cls-4{fill:#e28d36;}.cls-5{fill:#464241;}.cls-6{fill:#da763b;}.cls-7{fill:#301610;}.cls-8{fill:#2a120e;}.cls-9{fill:#c9622b;}.cls-10{fill:#fef1cd;}.cls-11{fill:#8b4936;stroke:#1d1d1b;stroke-miterlimit:10;stroke-width:1.57px;}.cls-12{fill:#676961;}</style></defs><title>welcome</title><g id="Layer_2" data-name="Layer 2"><g id="Layer_1-2" data-name="Layer 1"><path class="cls-1" d="M707.09,591.21H630.54a131.59,131.59,0,0,0,3.52-35.91,49.33,49.33,0,0,0,4.87-21.43v-8.08c.85-.47,1.71-.94,2.61-1.33,5.66-2.5,12.06-3.34,17.24-6.72,2.55-1.67,4.89-4.92,3.36-7.56-1.34-2.32-4.66-2.37-7.3-1.87a41.6,41.6,0,0,0-15.91,6.75V487.39c0-6.47-3.85-11.73-8.57-11.73h-15l-.66-1.7c-15.18-39.07-34.61-77.28-39.82-118.87-6.92-55.21,11.86-109.91,22.3-164.57,6-31.21,9-64.45-2.72-94-19.91-50-75.65-74.9-127.73-88.36-26.6-6.87-54.88-12-81.28-4.42C363.87,10,345.6,24.18,327.6,37.67a1525.45,1525.45,0,0,1-138.07,92.18c-13.24,7.83-28.64,15.73-43.33,11.14-8.89-2.78-16-9.83-25-12.25-13.44-3.6-27.25,3.94-38.28,12.43-29.5,22.69-50.6,54.92-61.77,90.35a2.67,2.67,0,0,0-3.67,1.64c-1.25,3-.63,6.4.45,9.66-.48,1.89-.91,3.79-1.33,5.69a95.41,95.41,0,0,0-6.89-9.3c-2.09-2.42-5.09.3-4.75,2.77.94,7,3.93,12.81,7.94,18.66.37.54.76,1.13,1.17,1.75,0,.35-.11.7-.16,1.05-3.17-4.56-6.25-9.22-10.72-12.56-1.59-1.18-3.49.76-3.11,2.39,1.54,6.67,5.41,11.92,9.52,17.34,1,1.36,2,2.63,3.09,3.8-2.49,29.91,1.92,60.29,14.14,87.8,10.7,24.09,26.56,45.89,34.6,71C72,466.38,68.08,502.16,69,537c.38,13.92,2,29,11.49,39.19,6.09,6.59,14.65,10.26,23.12,13.21,1.84.64,3.68,1.25,5.54,1.83H10.85a8.46,8.46,0,0,0-6.08,2.53,8.61,8.61,0,0,0,6.08,14.69H707.09a8.61,8.61,0,1,0,0-17.22Z"/><path class="cls-2" d="M633,519.81c1-.85,1.79-1.55,2.32-2a41.59,41.59,0,0,1,3.59-2.75V487.39c0-6.47-3.85-11.73-8.57-11.73H501.87c-4.73,0-8.57,5.26-8.57,11.73v28.25c0,.51,0,1,0,1.53l.79.64c2.76,2.38,13.72,11.29,10.88,16a2.06,2.06,0,0,1-2.34.7l-.1,0a6.73,6.73,0,0,1-2.09-1.4,66.27,66.27,0,0,0-7.17-5.55v6.4a49.54,49.54,0,0,0,36.64,47.8h72.35a49.46,49.46,0,0,0,36.64-47.8v-8.08A56.73,56.73,0,0,0,629,533a6.23,6.23,0,0,1-2.19,1.44,2.06,2.06,0,0,1-2.34-.7C622.16,530,628.9,523.44,633,519.81Z"/><path class="cls-3" d="M510.07,291.46c1.36,1.8,2.6,4.15,1.71,6.23a3.69,3.69,0,0,1-1.11,1.42A244.55,244.55,0,0,1,524,327.38c.28.7.52,1.4.79,2.1.69,1.8,1.39,3.61,2,5.43a242,242,0,0,1,10.9,41.42c-.53,8-1.15,16.93-1.66,24.73a70.39,70.39,0,0,0,0,13.46q-.63,7.67-1.28,15.35c-.92,11.08-1.83,22.31.12,33.25a53.7,53.7,0,0,0,3.86,12.54h63.57a38.08,38.08,0,0,0,3.38-14.54c.07-2.6.49-4.44-1.66-5.91s-4.82-1.86-7.41-2.18l-1.14-.14a2.08,2.08,0,0,1,0,.23,20.37,20.37,0,0,0-.67,4.17,44,44,0,0,1-40.26-7.06c-.81-.65-.66-1-.75-2a6,6,0,0,1,.71-3,6.51,6.51,0,0,1,3-3.41,3.09,3.09,0,0,1,3.69.94,1.18,1.18,0,0,1,0-.2,28.1,28.1,0,0,1-4.37-4.29c-8.82-10.94-7.27-26.14-7.39-40.73.82-10.07.67-15.87-1.43-26-3-14.58-6.08-29.34-10.1-43.72-.75-2.75-1.56-5.47-2.4-8.18-.08-.27-.15-.54-.23-.81-.36-1.11-.71-2.22-1.06-3.33-1-3-2-6-3.14-9l-.36-.94a2.22,2.22,0,0,1-1.55-.08,2.3,2.3,0,0,1-1.09-1.4,6,6,0,0,1,.35-4.33l-.16-.39-.55.27a2.81,2.81,0,0,1-2.09.38,2,2,0,0,1-1-1c-1.13-2-.36-4.34.73-6.42-.3-.65-.62-1.29-.93-1.94-2.1,1.2-4,2.18-5.16,2.83-1,.56-2.32,1.11-3.27.44a2.55,2.55,0,0,1-.79-1.11,7.77,7.77,0,0,1,.52-6.28c.23-.44.48-.86.75-1.28-1.16.6-2.33,1.17-3.53,1.7-2,.9-4.49,1.67-6.29.4a4.56,4.56,0,0,1-1.45-4.74,13.08,13.08,0,0,1,2.5-4.6,22.68,22.68,0,0,1,3.39-3.92,17.25,17.25,0,0,1,3-2c-.28-.44-.55-.88-.84-1.31-3.42-5.06-7.3-10-12.54-13.17s-12.16-4.1-17.46-1.07c-2.07,1.21-4,3.39-3.57,5.76.34,2,2.17,3.37,3.85,4.52,3.89,2.65,9.5,4.63,12.22,8.46,2.09,2.93,4.1,5.92,6.05,8.94a19.81,19.81,0,0,1,4.95,3.47A28.72,28.72,0,0,1,510.07,291.46Z"/><path class="cls-4" d="M557.52,441.82a6.51,6.51,0,0,0-3,3.41,6,6,0,0,0-.71,3c.09,1-.06,1.35.75,2a44,44,0,0,0,40.26,7.06,20.37,20.37,0,0,1,.67-4.17,2.08,2.08,0,0,0,0-.23,4.38,4.38,0,0,0-.85-3.85,2.91,2.91,0,0,0-4.3.43c1.34-2.9-1.36-7.46-3.9-9.41a7.34,7.34,0,0,0-8.89.19,11.14,11.14,0,0,0-4.88-4.8,1.75,1.75,0,0,0-1.43-.09,1.93,1.93,0,0,0-.78,1,16.08,16.08,0,0,0-1.44,8.42c-.42-1.19-2.16-2.39-3-3.33a3.4,3.4,0,0,0-3.38-1.2,2.22,2.22,0,0,0-1.48,2.34,1.18,1.18,0,0,0,0,.2A3.09,3.09,0,0,0,557.52,441.82Z"/><path class="cls-3" d="M467.32,510.18c-1.53,2.64.81,5.89,3.36,7.56,5.18,3.38,11.58,4.22,17.24,6.72a36.8,36.8,0,0,1,5.38,3,66.27,66.27,0,0,1,7.17,5.55,6.73,6.73,0,0,0,2.09,1.4l.1,0a2.06,2.06,0,0,0,2.34-.7c2.84-4.66-8.12-13.57-10.88-16l-.79-.64a42,42,0,0,0-18.71-8.86C472,507.81,468.66,507.86,467.32,510.18Z"/><path class="cls-3" d="M633,519.81c-4.12,3.63-10.86,10.18-8.56,14a2.06,2.06,0,0,0,2.34.7A6.23,6.23,0,0,0,629,533a56.73,56.73,0,0,1,9.94-7.23c.85-.47,1.71-.94,2.61-1.33,5.66-2.5,12.06-3.34,17.24-6.72,2.55-1.67,4.89-4.92,3.36-7.56-1.34-2.32-4.66-2.37-7.3-1.87a43.42,43.42,0,0,0-19.5,9.5C634.81,518.26,634,519,633,519.81Z"/><path class="cls-5" d="M514,586.44a4.78,4.78,0,0,0,4.77,4.77h93.6a4.77,4.77,0,0,0,0-9.54h-93.6A4.77,4.77,0,0,0,514,586.44Z"/><path class="cls-6" d="M512.91,286.93c1.2-.53,2.37-1.1,3.53-1.7-.27.42-.52.84-.75,1.28a7.77,7.77,0,0,0-.52,6.28,2.55,2.55,0,0,0,.79,1.11c.95.67,2.25.12,3.27-.44,1.2-.65,3.06-1.63,5.16-2.83.31.65.63,1.29.93,1.94-1.09,2.08-1.86,4.45-.73,6.42a2,2,0,0,0,1,1,2.81,2.81,0,0,0,2.09-.38l.55-.27.16.39a6,6,0,0,0-.35,4.33,2.3,2.3,0,0,0,1.09,1.4,2.22,2.22,0,0,0,1.55.08l.36.94c1.1,3,2.14,6,3.14,9,.35,1.11.7,2.22,1.06,3.33.08.27.15.54.23.81,1.18-1.05,3.35-3.11,5.19-4.51.29-.23.6-.43.87-.62l.37-.39v0c.76-.76,1.5-1.56,2.2-2.37,4.37-5.07,6.29-11.67,7.63-18.23l.11-.57c.41-2.13.78-4.6-.56-6.33a5.36,5.36,0,0,0-4.53-1.8,5.18,5.18,0,0,0,.34-3.76c-1.29-3.8-5.12-3.91-8.44-2.76a5.93,5.93,0,0,0,.33-4c-1.09-3.65-3.77-3.88-6.82-2.62.05-.19.12-.38.17-.58a3.1,3.1,0,0,0-.18-2.4,2.94,2.94,0,0,0-1.83-1c-5-1.22-10.15,1.25-14.75,3.65-.52.27-1,.55-1.55.84a17.25,17.25,0,0,0-3,2,22.68,22.68,0,0,0-3.39,3.92,13.08,13.08,0,0,0-2.5,4.6,4.56,4.56,0,0,0,1.45,4.74C508.42,288.6,510.9,287.83,512.91,286.93Z"/><path class="cls-6" d="M707.09,591.21H366.54a114.29,114.29,0,0,0,1.89-13.2c3.14-37-9-71.88-10.28-107.86-.17-4.74-.15-9.5.12-14.27q.28-5.82,1.15-11.67c1.86-12.93,5.32-25.42,8.81-37.94h0c14.61,21.66,29.72,44.11,48.48,62.32a33.11,33.11,0,0,0,27.11,16.54,32.24,32.24,0,0,0,17.51-4,41.62,41.62,0,0,0,12.74-11.46l0,0c4.16-8.64,8.56-17.12,12.43-25.92,1.76-4,3.47-8,5.12-12.09a537.66,537.66,0,0,0,19.23-55.09q5.64-19.55,9.84-39.45c.23-1.13.47-2.28.7-3.42v0l-.16-.41c1.15-1.28,2.34-2.54,3.55-3.78-.27-.7-.51-1.4-.79-2.1a244.55,244.55,0,0,0-13.34-28.27,3.69,3.69,0,0,0,1.11-1.42c.89-2.08-.35-4.43-1.71-6.23a28.72,28.72,0,0,0-3.38-3.77,19.81,19.81,0,0,0-4.95-3.47c-.22-.11-.43-.23-.66-.33a13.74,13.74,0,0,0-11.51-.12,13.51,13.51,0,0,0-6.84,9.26,20.73,20.73,0,0,0-.39,5.3,20.25,20.25,0,0,0,3.27,10.25,6.18,6.18,0,0,0,.64.88,13,13,0,0,1-.24,3,49.69,49.69,0,0,1-1.51,5.82,59.52,59.52,0,0,1-2.43,6.49c-4.21,9.73-10.58,18.68-16.37,27.67q-5.76,9-11,18.31-3.72,8.08-7.2,16.31c-.56,1.34-1.69,5.3-3.17,8.93-.21-.41-.4-.82-.6-1.24-.89,2.35-1.78,4.69-2.7,7-.66,1.71-1.32,3.42-2,5.11C430.4,395,421.47,383.18,413.28,371q-6-8.89-11.94-17.84c-4.29-9.74-6.88-20.24-12-29.58-5.89-10.75-14.84-19.32-24.66-26.5-.88-.64-1.77-1.28-2.66-1.9-1.34-.94-5.69-4.45-9.57-6.92-2.39-1.52-4.61-2.63-5.85-2.51-.71-3-2.73-5.8-3.53-8.86a10,10,0,0,1-.29-1.71c-.14-1.77.27-3.56.29-5.32.11-.57.21-1.13.33-1.69.54-2.71,1.09-5.37,1.62-8,2.62-1.93,5.14-4,7.55-6.16a187.17,187.17,0,0,0,20.12-20.67,4.6,4.6,0,0,0,1.72,3.77,5.86,5.86,0,0,0,4.31.51c10.31-1.78,18.23-10.37,23-19.7,2-4,3.64-8.34,3.38-12.8-.17-3.09-1.62-6.48-4.56-7.42a5.88,5.88,0,0,0-3.57.06c1.15-2,2.25-3.92,3.27-5.94,11.13-21.94,6.33-47.36-4.94-69.25,2.68,2.28,4.15,6.35,7.19,8.41a13.35,13.35,0,0,0-2.09-7.05,53.1,53.1,0,0,0,8.73,7.74,12.42,12.42,0,0,0-4.44-7.9,27.86,27.86,0,0,0,8.5,4.53c-2.55-6.36-7.87-11.38-14-14.45a21.6,21.6,0,0,0-2.06-.88,28,28,0,0,0,5.26-8.62,25.31,25.31,0,0,0,1.82-6.08c.07-.31.11-.62.17-.93l0-.18A37.43,37.43,0,0,0,403.52,80a25.24,25.24,0,0,0-40.44-12,26.39,26.39,0,0,0-8.82,15.47,45.15,45.15,0,0,0-11.35-8.61,2.18,2.18,0,0,0-1.47-.38,1.57,1.57,0,0,0-1.05,1.73,4.38,4.38,0,0,0,1,2,43.9,43.9,0,0,0,9.07,9.14c-3.12-1.74-6.88-3.52-10.12-2A18.74,18.74,0,0,0,347.5,91l-4.2-1.12a2,2,0,0,0-1.29-.07,1.41,1.41,0,0,0-.62,1.81,3.44,3.44,0,0,0,1.46,1.49,13.22,13.22,0,0,0,1.48.81,95.83,95.83,0,0,0-13.71,1.62l-.27,0c-8.93-4.8-20.28-2.07-28.84,3.39-15.72,10-25,28-28.51,46.3a118.91,118.91,0,0,0-2,21.53,14.68,14.68,0,0,0-3.27-4.62c-1.14-1.07-3-2-4.56-1.25a3.7,3.7,0,0,0-1.39,1.47c-6.4,10.3-7.12,22.35-4.44,33.46,1.18,4.86,3.3,10,8.35,12.66,2.66,1.42,6.75,1.77,8.84-.24.73,5,1.62,9.8,2.64,14.17,2.12,9.11,5.16,18.18,10,26.09-.46,1.94-.89,3.87-1.26,5.78-.32,1.57-.63,3.24-.92,5s-.66,3.77-.93,5.74c-.19.14-.41.28-.6.41-2.21,1.51-5.09,2.81-7.35,4.55l-1.91-.12a99,99,0,0,0-11.17,0,66.17,66.17,0,0,0-25.63,6.95l-.08,0h0c-13.82,5.48-26.51,15.1-37.43,24.38-14,11.88-26.93,25.12-40,38.05a390.51,390.51,0,0,0-39.84,45.66h0c-2-4.44-3.81-8.33-5.54-12.44-1.47-3.52-2.89-7.19-4.27-11.52-.15-.43-.29-.83-.41-1.22l-.64-2.1,0,.12c-.1-.25-.18-.49-.26-.66-8-19.13-16.56-38.06-27.16-55.88-1.58-2.67-3.2-5.32-4.72-8a19.55,19.55,0,0,0-.63-4,27.28,27.28,0,0,0-4.75-9.17c-.89-2.39-1.06-6.1-1.83-8.42-1.14-3.44-2.39-6.83-3.8-10.17-2.73-6.46-5.2-12.83-10.88-17.2-1.58-1.21-3.91.45-3.87,2.23.16,6.58,3,13,5.77,19.32l-8.49-7.4c-2.17-1.88-4.43-3.82-7.09-4.83-1.51-4-3.22-7.86-4.17-12.09s-.58-9.26-4.28-12a1.79,1.79,0,0,0-1.88,0c-4.4,3.18-3.08,9.6-2.2,14.3a46.45,46.45,0,0,0,2.38,8.39c-1.16-2.64-2.47-5.22-3.48-7.87-1.54-4-2.45-9.42-5.94-12.21a3.6,3.6,0,0,0-.78-.47,2.67,2.67,0,0,0-3.67,1.64c-1.25,3-.63,6.4.45,9.66.64,1.93,1.44,3.8,2.1,5.45a53.39,53.39,0,0,0,4.8,9.92c-.21.18-.43.35-.64.54-1.64-2.07-3.41-4.06-4.74-6-1-1.42-1.91-2.82-2.85-4.22a95.41,95.41,0,0,0-6.89-9.3c-2.09-2.42-5.09.3-4.75,2.77.94,7,3.93,12.81,7.94,18.66.37.54.76,1.13,1.17,1.75a41.67,41.67,0,0,0,3.73,5c-.13.28-.27.55-.39.83-1.22-1.53-2.37-3.14-3.5-4.76-3.17-4.56-6.25-9.22-10.72-12.56-1.59-1.18-3.49.76-3.11,2.39,1.54,6.67,5.41,11.92,9.52,17.34,1,1.36,2,2.63,3.09,3.8a19.3,19.3,0,0,0,5.22,4.25,26.23,26.23,0,0,0,1.91,2.17Q34,295.71,49.22,309.51c-.1.3-.2.61-.29.92v.11a260.63,260.63,0,0,0,13.7,78.29c1.07,3.19,2.22,6.33,3.4,9.46A254.55,254.55,0,0,0,88.3,443c5.21,5,11.13,8.77,17.71,9.67,1.11.15,2.21.25,3.34.29h.06a11.81,11.81,0,0,0,8.39.29,65.4,65.4,0,0,0,11.82-5.75c3-1.79,5.84-3.53,8.25-4.78,9.71-4.95,16.84-10.95,24.86-18.27,13.41-12.27,26.56-25.08,39.49-37.86l3.61-3.57c-.06.66-.1,1.3-.14,2-1.61,25.61-.42,51.75-2.21,77.26-.45,6.62-1.11,13.22-2.08,19.74a176.17,176.17,0,0,1-5.2,24.14c-6.87,23.4-19.26,44.39-25.94,67.86a106,106,0,0,0-3.4,17.28h-156a8.46,8.46,0,0,0-6.08,2.53,8.61,8.61,0,0,0,6.08,14.69H707.09a8.61,8.61,0,1,0,0-17.22ZM32,253.8l0-.08a.3.3,0,0,1,0,.08Zm19.1,50.51a3.14,3.14,0,0,0-.08-.4c0,.1.1.19.14.29ZM387.35,90.18l.09.18-.85-.61-.15-.13A5.78,5.78,0,0,1,387.35,90.18Z"/><path class="cls-7" d="M204,482.38a25.61,25.61,0,0,0-2.57-.45,176.17,176.17,0,0,1-5.2,24.14c-6.87,23.4-19.26,44.39-25.94,67.86a106,106,0,0,0-3.4,17.28h12.37c5.05-10.44,10.78-20.79,15.14-31.14,7.44-17.54,16-34.66,21.54-52.87,1.34-4.35,2.48-9,1.3-13.4C215.62,487.88,210,483.74,204,482.38Z"/><path class="cls-7" d="M348.19,467.66c-4.21.45-8.31,4.39-7.32,8.51,8.95,37.78,11.94,76.38,15.17,115h10.5a114.29,114.29,0,0,0,1.89-13.2c3.14-37-9-71.88-10.28-107.86C355,468.58,351.65,467.29,348.19,467.66Z"/><path class="cls-7" d="M276.11,269.89l-1.91-.12c-.08.73-.18,1.48-.23,2.21A11.48,11.48,0,0,1,276.11,269.89Z"/><path class="cls-7" d="M237.32,276.78h0c-13.82,5.48-26.51,15.1-37.43,24.38-14,11.88-26.93,25.12-40,38.05a390.51,390.51,0,0,0-39.84,45.66h0c-2-4.44-3.81-8.33-5.54-12.44-1.47-3.52-2.89-7.19-4.27-11.52-.15-.43-.29-.83-.41-1.22l-.64-2.1,0,.12v0c-.2.52-.41,1-.63,1.55a48,48,0,0,1-8.42,12.7c-6.95,7.79-15.91,14.19-26.12,16.37a34,34,0,0,1-11.38.48c1.07,3.19,2.22,6.33,3.4,9.46A254.55,254.55,0,0,0,88.3,443c5.21,5,11.13,8.77,17.71,9.67,1.11.15,2.21.25,3.34.29h.06a11.81,11.81,0,0,0,8.39.29,65.4,65.4,0,0,0,11.82-5.75c3-1.79,5.84-3.53,8.25-4.78,9.71-4.95,16.84-10.95,24.86-18.27,13.41-12.27,26.56-25.08,39.49-37.86l3.61-3.57c-.06.66-.1,1.3-.14,2-1.61,25.61-.42,51.75-2.21,77.26,3.48-1.63,7-3.17,10.6-4.56,2.72-5.13,5.22-10.31,7.56-15.57a113.73,113.73,0,0,0,2.24-21.94c.26-14.72-1-29.56,1.21-44.12,4.62-30,23.61-55.6,35-83.71v0c1-6.44,1.88-13,2.6-19.76.12-.89.2-1.79.29-2.7a66.17,66.17,0,0,0-25.63,6.95Z"/><path class="cls-7" d="M488.57,431.47c-6.21-.64-12-3.47-17.28-6.77-11.28-7.07-21.2-16.84-27-28.74-.21-.41-.4-.82-.6-1.24-.89,2.35-1.78,4.69-2.7,7-.66,1.71-1.32,3.42-2,5.11C430.4,395,421.47,383.18,413.28,371q-6-8.89-11.94-17.84c-4.29-9.74-6.88-20.24-12-29.58-5.89-10.75-14.84-19.32-24.66-26.5-.51,1-1,1.9-1.46,2.87l-.15.31q-4,8.1-7.48,16.53v0c-.87,2.09-1.73,4.21-2.56,6.35v0q-1,5.58-2,11.16c-2.34,13.16-4.69,26.52-3.42,39.82.94,9.9,3.88,19.82,2.16,29.61-1.3,7.36-5.16,14.08-6.39,21.45-1.45,8.74,1.46,15.44,5.56,22.48l0,0c2.95,2.84,6.1,5.54,9.3,8.14q.28-5.82,1.15-11.67c1.86-12.93,5.32-25.42,8.81-37.94h0c14.61,21.66,29.72,44.11,48.48,62.32a33.11,33.11,0,0,0,27.11,16.54,32.24,32.24,0,0,0,17.51-4,41.62,41.62,0,0,0,12.74-11.46l0,0c4.16-8.64,8.56-17.12,12.43-25.92,1.76-4,3.47-8,5.12-12.09C490.54,431.63,489.51,431.57,488.57,431.47Z"/><path class="cls-7" d="M350.47,293.11c.46-1.09.91-2.18,1.35-3.26.22-.53.43-1.05.63-1.58-2.39-1.52-4.61-2.63-5.85-2.51a7.84,7.84,0,0,1,.21,2.86c-.38,3.54-3.37,6.18-6.34,8.16a50.88,50.88,0,0,1-5.77,3.34,48.54,48.54,0,0,1-32.27,4.19,42.12,42.12,0,0,1-17.92-9.12,40,40,0,0,1-6.9-7.69,37.53,37.53,0,0,1-4.34-7.78h0a230.46,230.46,0,0,0,1.11,44.41c.56,4.79,1.3,9.59,2.2,14.35,1.32,7,8.21,10.95,14.91,13.55s13.82,3.78,20.91,5a229.73,229.73,0,0,0,14.79-20,260.94,260.94,0,0,0,20.18-36.7C348.43,297.9,349.47,295.52,350.47,293.11Z"/><path class="cls-7" d="M273.4,197l8.13-32.45c1.49-6,3-12.08,6.41-17.24a32.12,32.12,0,0,1,6.51-7.16,24.05,24.05,0,0,1,11.68-5.59c4.11-.57,10.42-.66,13.65,2a.42.42,0,0,0,.69-.19c1.38-4.75,4.57-9.68,7.3-14a.44.44,0,0,1,.8.27c-.22,5.22,1.57,9.34.24,15l.75.6c6.09-3.27,12.48-6.46,19.37-6.6,6.58-.13,12.95,2.6,18.38,6.32,8.95,6.12,16.19,15.85,16.33,26.69.06,4-.93,8.54-1.31,12.53a16.32,16.32,0,0,0,0,4.36c.35,2.1,1.49,4,2.35,5.91a23.91,23.91,0,0,1,1.69,13.64c-.9,5.19-3.5,10-4.39,15.17a.46.46,0,0,0,.78.38,106.22,106.22,0,0,0,14.2-18.89c1.15-2,2.25-3.92,3.27-5.94,11.13-21.94,6.33-47.36-4.94-69.25,2.68,2.28,4.15,6.35,7.19,8.41a13.35,13.35,0,0,0-2.09-7.05,53.1,53.1,0,0,0,8.73,7.74,12.42,12.42,0,0,0-4.44-7.9,27.86,27.86,0,0,0,8.5,4.53c-2.55-6.36-7.87-11.38-14-14.45a21.6,21.6,0,0,0-2.06-.88,28,28,0,0,0,5.26-8.62,25.31,25.31,0,0,0,1.82-6.08c.07-.31.11-.62.17-.93l0-.18A37.43,37.43,0,0,0,403.52,80a25.24,25.24,0,0,0-40.44-12,26.39,26.39,0,0,0-8.82,15.47,45.15,45.15,0,0,0-11.35-8.61,2.18,2.18,0,0,0-1.47-.38,1.57,1.57,0,0,0-1.05,1.73,4.38,4.38,0,0,0,1,2,43.9,43.9,0,0,0,9.07,9.14c-3.12-1.74-6.88-3.52-10.12-2A18.74,18.74,0,0,0,347.5,91l-4.2-1.12a2,2,0,0,0-1.29-.07,1.41,1.41,0,0,0-.62,1.81,3.44,3.44,0,0,0,1.46,1.49,13.22,13.22,0,0,0,1.48.81,95.83,95.83,0,0,0-13.71,1.62l-.27,0c-8.93-4.8-20.28-2.07-28.84,3.39-15.72,10-25,28-28.51,46.3a118.91,118.91,0,0,0-2,21.53c-.1,10,.75,19.95,1.57,30.21A.44.44,0,0,0,273.4,197Zm114-106.79.09.18-.85-.61-.15-.13A5.78,5.78,0,0,1,387.35,90.18Z"/><path class="cls-7" d="M308,178.3c-2,.63-2.84,2.55-3.41,4.41a7.07,7.07,0,0,0-.13,4.9,4,4,0,0,0,.81,1.17,2.63,2.63,0,0,0,1.77,1.11,4.26,4.26,0,0,0,3.31-.35,6.53,6.53,0,0,0,3-4.38c.05-.24.06-.46.09-.69a5.38,5.38,0,0,0-.16-3.6A4.43,4.43,0,0,0,308,178.3Z"/><path class="cls-7" d="M355.74,190.06a7.28,7.28,0,0,0-.05,10,3.62,3.62,0,0,0,5.07,0,10.29,10.29,0,0,0,3.12-7.43,3.79,3.79,0,0,0-3.66-3.72A4.69,4.69,0,0,0,355.74,190.06Z"/><path class="cls-7" d="M316.48,168.1c-.33-2-2.29-3.73-3.88-4.75a7.16,7.16,0,0,0-6.65-.86,2.73,2.73,0,0,0-1.84,3.25,2.67,2.67,0,0,0,3.25,1.84,4.74,4.74,0,0,1,3.88.25c1.2.59,2.35,1.62,3.7,1.81A1.28,1.28,0,0,0,316.48,168.1Z"/><path class="cls-7" d="M366.54,185.18a2.66,2.66,0,0,0,3.61.95,2.7,2.7,0,0,0,.94-3.61c-1.68-3.85-8-5.61-11.51-3.17a1.27,1.27,0,0,0,0,2.16C361.94,183,365.07,182.27,366.54,185.18Z"/><path class="cls-8" d="M452.73,478.4C437,472.09,424.09,459.45,414.42,445c-1.9-2.86-3.69-5.79-5.34-8.76-11.51-20.7-18.13-43.71-27.88-65.28a10.72,10.72,0,0,0-3.71-4.75c-.52,3.92-1.2,7.76-2,11.59-2,9.63-4.64,19.06-7.26,28.5h0c14.61,21.66,29.72,44.11,48.48,62.32a33.11,33.11,0,0,0,27.11,16.54,32.24,32.24,0,0,0,17.51-4,56.38,56.38,0,0,1-8.58-2.74Z"/><path class="cls-8" d="M211.11,342c-3.5,4.26-6.9,8.62-10.23,13-14.58,19.36-27.73,39.76-42.39,59.08a309.86,309.86,0,0,1-26.07,30.56c-.94.94-1.87,1.87-2.8,2.78,3-1.79,5.84-3.53,8.25-4.78,9.71-4.95,16.84-10.95,24.86-18.27,13.41-12.27,26.56-25.08,39.49-37.86l3.61-3.57h0A341.24,341.24,0,0,1,211.11,342Z"/><path class="cls-9" d="M312.16,289.3c8.4,2.31,17.59-.74,24.44-6.11a47.51,47.51,0,0,0,6.47-6.29,10,10,0,0,1-.29-1.71c-.14-1.77.27-3.56.29-5.32.11-.57.21-1.13.33-1.69.54-2.71,1.09-5.37,1.62-8-6.49,4.8-13.63,8.59-21.56,9.32-12,1.09-23.83-5.31-31.6-14.52a54.76,54.76,0,0,1-4.69-6.56c-.46,1.94-.89,3.87-1.26,5.78-.32,1.57-.63,3.24-.92,5,2.25,4.06,4.55,7.55,5.65,9.47C295.79,277.48,302.33,286.6,312.16,289.3Z"/><path class="cls-9" d="M528.24,299.3l.16.39c.08-.2.15-.39.24-.58Z"/><path class="cls-9" d="M534.08,304a20.5,20.5,0,0,1-2.57,1.28,4.6,4.6,0,0,1-.82.26l.36.94c1.1,3,2.14,6,3.14,9,.35,1.11.7,2.22,1.06,3.33.08.27.15.54.23.81,1.18-1.05,3.35-3.11,5.19-4.51-.74-.8-1.5-1.59-2.16-2.43A26.63,26.63,0,0,1,534.08,304Z"/><path class="cls-9" d="M510.67,299.11a5.5,5.5,0,0,1-3.88,1.09,14,14,0,0,1-5.52-2.22c-.19,2.9.78,5.73,1.05,8.62s-.37,4.89-1.54,6.14a37,37,0,0,0,2.36,6.8c2.29,4.75,6.08,8.62,9.84,12.32a49.27,49.27,0,0,0,5.42,4.7c.93-1.1,1.88-2.21,2.85-3.3,1.15-1.28,2.34-2.54,3.55-3.78-.27-.7-.51-1.4-.79-2.1A244.55,244.55,0,0,0,510.67,299.11Z"/><path class="cls-9" d="M527.74,288.62c-1.15.73-2.28,1.4-3.35,2,.31.65.63,1.29.93,1.94q.3-.57.63-1.11C526.53,290.5,527.12,289.56,527.74,288.62Z"/><path class="cls-10" d="M348.19,467.66c3.46-.37,6.82.92,10,2.49-.17-4.74-.15-9.5.12-14.27-3.2-2.6-6.35-5.3-9.3-8.14l0,0c-4.1-7-7-13.74-5.56-22.48,1.23-7.37,5.09-14.09,6.39-21.45,1.72-9.79-1.22-19.71-2.16-29.61-1.27-13.3,1.08-26.66,3.42-39.82q1-5.58,2-11.16v0c.83-2.14,1.69-4.26,2.56-6.35v0q3.5-8.42,7.48-16.53l.15-.31c.47-1,.95-1.92,1.46-2.87-.88-.64-1.77-1.28-2.66-1.9-1.34-.94-5.69-4.45-9.57-6.92-.2.53-.41,1.05-.63,1.58-.44,1.08-.89,2.17-1.35,3.26-1,2.41-2,4.79-3.11,7.16A260.94,260.94,0,0,1,327.18,337a229.73,229.73,0,0,1-14.79,20c-7.09-1.19-14.21-2.39-20.91-5s-13.59-6.51-14.91-13.55c-.9-4.76-1.64-9.56-2.2-14.35a230.46,230.46,0,0,1-1.11-44.41h0c.09-1.35.21-2.73.34-4.09.1-1.2.22-2.42.35-3.63v0c0-.73.15-1.48.23-2.21a99,99,0,0,0-11.17,0c-.09.91-.17,1.81-.29,2.7-.72,6.78-1.59,13.32-2.6,19.76v0C248.7,320.4,229.71,346,225.09,376c-2.24,14.56-1,29.4-1.21,44.12a113.73,113.73,0,0,1-2.24,21.94c-2.34,5.26-4.84,10.44-7.56,15.57-3.59,1.39-7.12,2.93-10.6,4.56-.45,6.62-1.11,13.22-2.08,19.74a25.61,25.61,0,0,1,2.57.45c6,1.36,11.65,5.5,13.24,11.42,1.18,4.39,0,9.05-1.3,13.4-5.57,18.21-14.1,35.33-21.54,52.87-4.36,10.35-10.09,20.7-15.14,31.14H356c-3.23-38.66-6.22-77.26-15.17-115C339.88,472.05,344,468.11,348.19,467.66Z"/><path class="cls-9" d="M327,211.65l-.21-.19a4.08,4.08,0,0,1-1.42-2.06c-.71-2.51-4.66-2.07-4.6.62a7.44,7.44,0,0,0,2.07,5.2c1.5,1.46,3.77,2.68,5.75,1.39a2.14,2.14,0,0,0,.75-2.87,4.37,4.37,0,0,0-1.48-1.57c-.22-.14-.45-.27-.68-.4Z"/><path class="cls-10" d="M336.58,230.42a99.76,99.76,0,0,1-25-5.87,2,2,0,0,0-2.74,2.07c.27,4.44,2.18,12.27,11.88,14.57s15.09-3.86,17.41-7.71A2,2,0,0,0,336.58,230.42Z"/><path class="cls-11" d="M707.09,591.21H10.85a8.46,8.46,0,0,0-6.08,2.53,8.61,8.61,0,0,0,6.08,14.69H707.09a8.61,8.61,0,1,0,0-17.22Z"/><path class="cls-12" d="M629,533a6.23,6.23,0,0,1-2.19,1.44,2.06,2.06,0,0,1-2.34-.7c-2.3-3.77,4.44-10.32,8.56-14a10.92,10.92,0,0,0-2,.31c-3.18.82-5.52,3.56-6.74,6.61a30.84,30.84,0,0,0-1.71,9.61c-.4,5.49-.79,11-1.22,16.47-.15,2.47-.37,5-1.68,7.17-2.22,3.59-6.92,4.78-11.13,4.81a32.88,32.88,0,0,1-19.4-6.19c-2.68-2-5.58-4.45-8.84-3.9-3.08.52-5,3.51-7.14,5.79-5,5.37-12.8,7.54-20.16,7.23s-14.42-2.74-21.28-5.43c-6.07-2.38-12.23-5-17.14-9.3-5.61-4.92-9.21-11.64-12-18.57a6.73,6.73,0,0,1-2.09-1.4,66.27,66.27,0,0,0-7.17-5.55v6.4a49.54,49.54,0,0,0,36.64,47.8h72.35a49.46,49.46,0,0,0,36.64-47.8v-8.08A56.73,56.73,0,0,0,629,533Z"/></g></g></svg>