<svg xmlns="http://www.w3.org/2000/svg" xmlns:xlink="http://www.w3.org/1999/xlink" viewBox="0 0 708.43 582.41"><defs><style>.cls-1{isolation:isolate;}.cls-2{fill:#f9f200;opacity:0.78;}.cls-3{fill:#da763b;}.cls-4{fill:#383838;}.cls-5{fill:#ff7043;}.cls-6{opacity:0.1;mix-blend-mode:multiply;}.cls-7{fill:#ebeaed;}.cls-8{fill:#f7f5f7;}.cls-9{fill:url(#linear-gradient);}.cls-10{fill:#2e6544;}.cls-11{fill:#147c42;}.cls-12{fill:#2ea24a;}.cls-13{fill:#c3c32e;}.cls-14{fill:#d84315;}.cls-15{fill:#6b3e74;}.cls-16{fill:#fdc858;}.cls-17{fill:#ef2e49;}.cls-18{font-size:20.59px;fill:#fff;font-family:Roboto-Regular, Roboto;}.cls-19{letter-spacing:-0.03em;}.cls-20,.cls-21{fill:none;stroke-miterlimit:10;}.cls-20{stroke:#eeeffd;stroke-width:1.72px;}.cls-21{stroke:#1d1d1b;stroke-width:5.64px;}</style><linearGradient id="linear-gradient" x1="346.71" y1="178.37" x2="346.71" y2="60.89" gradientUnits="userSpaceOnUse"><stop offset="0" stop-color="#fff"/><stop offset="1" stop-color="#dedee0"/></linearGradient></defs><title>phone-recipe</title><g class="cls-1"><g id="Layer_2" data-name="Layer 2"><g id="Layer_1-2" data-name="Layer 1"><path class="cls-2" d="M626.69,577.52a123.3,123.3,0,0,0,3.3-33.69,46.26,46.26,0,0,0,4.57-20.11v-7.57c.8-.45,1.61-.89,2.45-1.26,5.31-2.34,11.32-3.13,16.17-6.3,2.4-1.56,4.59-4.61,3.16-7.09-1.26-2.18-4.37-2.23-6.85-1.76a39.24,39.24,0,0,0-14.93,6.33v-26c0-6.07-3.61-11-8-11h-14l-.61-1.59C597.62,430.86,579.39,395,574.5,356c-6.49-51.8,11.13-103.12,20.92-154.4,5.6-29.29,8.49-60.48-2.55-88.17C574.19,66.52,521.9,43.13,473,30.5c-24.95-6.44-51.49-11.28-76.26-4.15-20.28,5.84-37.43,19.15-54.31,31.81a1429.84,1429.84,0,0,1-129.55,86.49C200.48,152,186,159.41,172.26,155.1c-8.35-2.6-15-9.22-23.49-11.49-12.61-3.38-25.56,3.7-35.91,11.66C85.18,176.56,65.38,206.8,54.9,240a2.52,2.52,0,0,0-3.45,1.54c-1.16,2.76-.58,6,.43,9.06-.45,1.77-.86,3.56-1.25,5.35a91.43,91.43,0,0,0-6.46-8.73c-2-2.27-4.78.28-4.46,2.59.88,6.55,3.69,12,7.45,17.52.35.5.71,1.06,1.1,1.64l-.15,1c-3-4.28-5.87-8.65-10.06-11.78-1.49-1.11-3.27.71-2.92,2.24,1.44,6.26,5.07,11.18,8.94,16.27,1,1.27,1.9,2.46,2.89,3.56-2.34,28.07,1.8,56.57,13.27,82.38,10,22.61,24.92,43.06,32.46,66.62,10,31.12,6.27,64.69,7.16,97.36.36,13.06,1.91,27.18,10.78,36.77,5.71,6.18,13.74,9.63,21.69,12.39q2.6.9,5.2,1.72"/><polyline class="cls-2" points="191.3 582.41 196.34 582.41 370.5 582.41 374.37 582.41"/><path class="cls-3" d="M465.72,63.52c26.13,0,28.91,28,29.15,40.51,1.42,76.26-13.18,133.5,46.69,159.62C577.7,279.42,663,301.2,663,301.2V460.12L506.72,414.41s-6.53,13.6-46.8,13.6c-73.27,0-204.15-70.75-204.15-70.75v-197l183,42.45V101.33C436.34,87.28,441.09,63.52,465.72,63.52Z"/><rect class="cls-4" x="252.34" y="3.43" width="188.75" height="384.36" rx="4"/><rect class="cls-5" x="161.4" y="108.1" width="370.63" height="175.02" rx="3" transform="translate(542.33 -151.1) rotate(90)"/><rect class="cls-4" x="391.33" y="-12.01" width="3.43" height="27.45" transform="translate(391.33 394.76) rotate(-90)"/><rect class="cls-4" x="441.09" y="36.06" width="3.43" height="27.45"/><rect class="cls-4" x="441.09" y="69.96" width="3.43" height="27.45"/><g class="cls-6"><circle cx="350.15" cy="123.06" r="71.71"/><path d="M350.15,53.06a70,70,0,1,1-70,70,70.07,70.07,0,0,1,70-70m0-3.43a73.43,73.43,0,1,0,73.42,73.43,73.43,73.43,0,0,0-73.42-73.43Z"/></g><circle class="cls-7" cx="346.71" cy="119.63" r="71.71"/><path class="cls-8" d="M346.71,49.63a70,70,0,1,1-70,70,70.08,70.08,0,0,1,70-70m0-3.43a73.43,73.43,0,1,0,73.43,73.43A73.43,73.43,0,0,0,346.71,46.2Z"/><path class="cls-9" d="M346.71,78.05a41.58,41.58,0,1,1-41.58,41.58,41.63,41.63,0,0,1,41.58-41.58m0-17.16a58.74,58.74,0,1,0,58.75,58.74,58.74,58.74,0,0,0-58.75-58.74Z"/><g class="cls-6"><path d="M384.32,74.92c-4.66,1-8.13-2.58-7.73-8s-2.78-7.7-7.09-5.16-9-.4-10.35-6.53l-.58-2.55A11,11,0,1,0,337,57.55l.57,2.56C339,66.25,336,70.9,331,70.45s-6.87,3-4.19,7.7,1.07,9.42-3.57,10.5-6.54,4.5-4.21,7.59,10.22,4.85,18.75,11.29,12,16.34,24.81,13.51,11.7-13.38,16.64-22.84S390.61,83.75,391.37,80,389,73.91,384.32,74.92Z"/><path d="M348.41,57.86a84.47,84.47,0,0,1,5.84,13.68,142.49,142.49,0,0,1,3.93,14.1,139.42,139.42,0,0,1,2.5,14.43,83.15,83.15,0,0,1,.57,14.85,84,84,0,0,1-5.84-13.67,139.75,139.75,0,0,1-3.92-14.1A143.08,143.08,0,0,1,349,72.72,85.16,85.16,0,0,1,348.41,57.86Z"/><path d="M336,77.07l9-1.13c2.82-.37,5.51-.84,8.15-1.42a14.78,14.78,0,0,0,2-.45l2-.48c1.29-.42,2.64-.72,4-1.2.65-.24,1.38-.37,2-.65s1.37-.5,2.08-.73c1.45-.46,2.8-1.11,4.49-1.51a18.28,18.28,0,0,1-6.05,7.65,23,23,0,0,1-4.27,2.55,25.05,25.05,0,0,1-4.75,1.53,24,24,0,0,1-9.84.08q-1.2-.27-2.37-.63a23.57,23.57,0,0,1-2.29-.89A14.62,14.62,0,0,1,336,77.07Z"/><path d="M330,94.81a120.45,120.45,0,0,0,14.16.84,67,67,0,0,0,13.3-1.34c1.08-.24,2.15-.47,3.21-.79s2.1-.62,3.16-1a66.39,66.39,0,0,0,6.2-2.5,121.18,121.18,0,0,0,12.27-7,31.35,31.35,0,0,1-9.44,11.62,35.32,35.32,0,0,1-6.62,4,37.2,37.2,0,0,1-7.37,2.42,37.8,37.8,0,0,1-15.28,0A31.76,31.76,0,0,1,330,94.81Z"/></g><path class="cls-10" d="M377.45,71.49c-4.65,1-8.13-2.58-7.72-8s-2.78-7.7-7.09-5.16-9-.4-10.36-6.53l-.57-2.55a11,11,0,1,0-21.54,4.84l.57,2.56c1.37,6.13-1.58,10.79-6.56,10.33s-6.87,3-4.2,7.7,1.07,9.43-3.56,10.51-6.54,4.5-4.22,7.59S322.43,97.66,331,104.1s12,16.34,24.82,13.51,11.7-13.38,16.63-22.84,11.35-14.45,12.11-18.23S382.11,70.48,377.45,71.49Z"/><path class="cls-11" d="M341.55,54.43a83.54,83.54,0,0,1,5.83,13.68,144.28,144.28,0,0,1,6.43,28.52,82.33,82.33,0,0,1,.58,14.86,83.13,83.13,0,0,1-5.84-13.67,142.68,142.68,0,0,1-3.93-14.11,145.23,145.23,0,0,1-2.48-14.42A83.25,83.25,0,0,1,341.55,54.43Z"/><path class="cls-11" d="M329.09,73.64l9-1.14c2.82-.36,5.52-.83,8.15-1.41a16.25,16.25,0,0,0,2-.45l2-.48c1.29-.42,2.64-.72,4-1.2.66-.24,1.39-.37,2-.65s1.36-.5,2.08-.74c1.44-.45,2.8-1.1,4.48-1.51a18.14,18.14,0,0,1-6.05,7.65,22.48,22.48,0,0,1-4.27,2.56,24.82,24.82,0,0,1-4.75,1.53,24,24,0,0,1-9.84.08c-.8-.19-1.59-.39-2.37-.63a23.39,23.39,0,0,1-2.28-.89A14.48,14.48,0,0,1,329.09,73.64Z"/><path class="cls-11" d="M323.16,91.38a122.38,122.38,0,0,0,14.16.84,67.79,67.79,0,0,0,13.3-1.34c1.07-.24,2.15-.47,3.2-.79s2.11-.62,3.16-1c2.11-.69,4.14-1.59,6.21-2.5a121.18,121.18,0,0,0,12.27-7A31.55,31.55,0,0,1,366,91.23a35.32,35.32,0,0,1-6.62,4,36.49,36.49,0,0,1-22.65,2.39A31.77,31.77,0,0,1,323.16,91.38Z"/><g class="cls-6"><path d="M344.79,79.68c-3.36,3.71-8.52,2.78-11.48-2.08s-7.09-4.88-9.22-.07-7.9,5.15-12.85.76l-2.05-1.82a12.25,12.25,0,0,0-16.76.61,12.25,12.25,0,0,0,1.32,16.72l2.05,1.83c4.93,4.41,5.26,10.19.73,12.85s-4,6.79,1.13,9.15,6.68,7.4,3.38,11.17-2.83,7.84,1,9.06S313.8,135.74,325,136s20.29,6.59,29.48-3.65,1.8-18.61.23-29.71.84-19.3-.82-23S348.16,76,344.79,79.68Z"/><path d="M303.67,87.09a93.22,93.22,0,0,1,13.26,8.22c4.17,3,8.15,6.26,12,9.67s7.5,7,11,10.77A91.12,91.12,0,0,1,349.58,128a92.37,92.37,0,0,1-13.27-8.21c-4.16-3-8.14-6.27-12-9.68s-7.49-7-11-10.78A91.72,91.72,0,0,1,303.67,87.09Z"/><path d="M304.78,111.14c2.55-2.33,4.88-4.32,7.08-6.38s4.24-4.07,6.16-6.2a16.57,16.57,0,0,0,1.42-1.6l1.39-1.64c.85-1.15,1.82-2.25,2.63-3.48.41-.61,1-1.17,1.33-1.82s.84-1.27,1.3-1.91c.94-1.29,1.67-2.68,2.83-4.07a19.47,19.47,0,0,1-.61,10.18,24.1,24.1,0,0,1-2.1,4.77,26.6,26.6,0,0,1-3.11,4.19,25.35,25.35,0,0,1-8.31,6.09c-.79.34-1.59.66-2.39.94s-1.64.49-2.48.66A15.52,15.52,0,0,1,304.78,111.14Z"/><path d="M310.58,129.93a120.68,120.68,0,0,0,12.68-7.83,69.79,69.79,0,0,0,10.61-9.3c.77-.86,1.55-1.72,2.26-2.64.39-.44.74-.9,1.08-1.37s.71-.92,1-1.4a68.35,68.35,0,0,0,3.76-6,119.9,119.9,0,0,0,6.05-13.58A33.64,33.64,0,0,1,347,103.5a37.68,37.68,0,0,1-3.26,7.39,39.49,39.49,0,0,1-4.8,6.55,40.27,40.27,0,0,1-13,9.34A33.9,33.9,0,0,1,310.58,129.93Z"/></g><path class="cls-12" d="M337.93,76.25C334.57,80,329.4,79,326.45,74.17s-7.09-4.88-9.22-.07-7.91,5.15-12.85.76L302.32,73a12.25,12.25,0,0,0-16.75.62,12.25,12.25,0,0,0,1.31,16.72l2.06,1.83c4.93,4.4,5.26,10.19.72,12.85s-4,6.79,1.13,9.15,6.69,7.4,3.39,11.16-2.83,7.85,1.05,9.07,11.7-2.12,22.94-1.84,20.29,6.6,29.48-3.65,1.8-18.6.22-29.7.85-19.3-.82-23S341.29,72.54,337.93,76.25Z"/><path class="cls-11" d="M296.8,83.66a92.43,92.43,0,0,1,13.27,8.22q6.24,4.55,12,9.67t11,10.77a91.12,91.12,0,0,1,9.68,12.24,91.29,91.29,0,0,1-13.27-8.21c-4.16-3-8.15-6.27-12-9.68s-7.5-7-11-10.78A92.54,92.54,0,0,1,296.8,83.66Z"/><path class="cls-11" d="M297.91,107.71c2.56-2.33,4.88-4.32,7.09-6.38s4.24-4.08,6.15-6.2a15.33,15.33,0,0,0,1.42-1.6l1.4-1.64c.84-1.16,1.81-2.25,2.63-3.48.41-.61.94-1.18,1.33-1.82s.84-1.27,1.3-1.92c.94-1.28,1.67-2.68,2.82-4.06a19.47,19.47,0,0,1-.61,10.18,23.5,23.5,0,0,1-2.09,4.77,27.14,27.14,0,0,1-3.12,4.19,25.41,25.41,0,0,1-8.3,6.09c-.79.34-1.59.65-2.39.94s-1.64.49-2.48.65A15.58,15.58,0,0,1,297.91,107.71Z"/><path class="cls-11" d="M303.71,126.5a118.65,118.65,0,0,0,12.68-7.83,68.85,68.85,0,0,0,10.61-9.3c.78-.86,1.56-1.73,2.27-2.65.38-.43.74-.89,1.08-1.36s.71-.92,1-1.41a66.63,66.63,0,0,0,3.75-6,119.91,119.91,0,0,0,6.06-13.58,33.65,33.65,0,0,1-1.08,15.66,37.64,37.64,0,0,1-3.25,7.39,39,39,0,0,1-4.81,6.55,39.94,39.94,0,0,1-13,9.33A33.79,33.79,0,0,1,303.71,126.5Z"/><g class="cls-6"><path d="M387.39,101.12l-2.06,2.22a7.79,7.79,0,0,1-11,.42h0a7.8,7.8,0,0,1-.41-11L376,90.53a7.78,7.78,0,0,1,11-.41h0A7.78,7.78,0,0,1,387.39,101.12Z"/><path d="M385.5,91.7a4.33,4.33,0,1,1-6.11.23A4.33,4.33,0,0,1,385.5,91.7Z"/></g><path class="cls-13" d="M384,97.69l-2.06,2.22a7.8,7.8,0,0,1-11,.42h0a7.79,7.79,0,0,1-.41-11l2.06-2.22a7.78,7.78,0,0,1,11-.41h0A7.78,7.78,0,0,1,384,97.69Z"/><path class="cls-14" d="M382.07,88.27a4.33,4.33,0,1,1-6.11.23A4.32,4.32,0,0,1,382.07,88.27Z"/><g class="cls-6"><path d="M400.83,112.81l-2.95,1.58a8.6,8.6,0,0,1-11.65-3.5h0a8.59,8.59,0,0,1,3.5-11.64l2.95-1.59a8.61,8.61,0,0,1,11.65,3.5h0A8.61,8.61,0,0,1,400.83,112.81Z"/><path d="M402.22,102.29a4.78,4.78,0,1,1-6.47-1.94A4.78,4.78,0,0,1,402.22,102.29Z"/></g><path class="cls-11" d="M397.39,109.38,394.45,111a8.61,8.61,0,0,1-11.65-3.5h0a8.61,8.61,0,0,1,3.5-11.65l2.95-1.58a8.59,8.59,0,0,1,11.64,3.5h0A8.6,8.6,0,0,1,397.39,109.38Z"/><path class="cls-10" d="M398.79,98.86a4.78,4.78,0,1,1-6.47-1.94A4.78,4.78,0,0,1,398.79,98.86Z"/><g class="cls-6"><circle cx="374.27" cy="119.83" r="19.99"/><path d="M392,119.83a17.71,17.71,0,1,1-17.71-17.71A17.71,17.71,0,0,1,392,119.83Z"/></g><circle class="cls-15" cx="370.84" cy="116.4" r="19.99"/><path class="cls-16" d="M388.55,116.4a17.71,17.71,0,1,1-17.71-17.71A17.71,17.71,0,0,1,388.55,116.4Z"/><g class="cls-6"><circle cx="372.68" cy="158.63" r="22.86"/><path d="M392.92,158.63a20.24,20.24,0,1,1-20.24-20.24A20.24,20.24,0,0,1,392.92,158.63Z"/></g><circle class="cls-15" cx="369.25" cy="155.2" r="22.86"/><path class="cls-16" d="M389.49,155.2A20.24,20.24,0,1,1,369.25,135,20.24,20.24,0,0,1,389.49,155.2Z"/><g class="cls-6"><circle cx="387.86" cy="142.97" r="22.86"/><path d="M408.1,143a20.25,20.25,0,1,1-20.24-20.25A20.24,20.24,0,0,1,408.1,143Z"/></g><circle class="cls-15" cx="384.42" cy="139.53" r="22.86"/><path class="cls-16" d="M404.67,139.53a20.25,20.25,0,1,1-20.25-20.24A20.25,20.25,0,0,1,404.67,139.53Z"/><g class="cls-6"><path d="M302.21,129.27a.76.76,0,0,1-1.4.2l-.55-1a1.45,1.45,0,0,0-1.89-.63,1.39,1.39,0,0,0-.59,1.93,1.7,1.7,0,0,0,.23.3l.84.85a.75.75,0,0,1-.56,1.29c-1.54-.05-3,.06-3,2,0,3.09,5.34,5.27,9.83,5.14a11.09,11.09,0,0,0,2.35,4.32l-9.34-1.29c-2-4.09-6.64-7.85-9.42-6.35-1.68.91-1,2.26-.25,3.58a.76.76,0,0,1-.85,1.12l-1.16-.32a1.5,1.5,0,0,0-.37,0,1.4,1.4,0,0,0-1.4,1.46,1.47,1.47,0,0,0,1.48,1.34h1.11a.77.77,0,0,1,.52,1.32c-1.12,1.05-2.1,2.18-.73,3.51,2.27,2.19,7.75-.16,10.79-3.55l9.33,1.29a11.08,11.08,0,0,0-3.43,3.52c-4.28-1.34-10-.68-10.85,2.27-.55,1.83.86,2.34,2.35,2.71a.76.76,0,0,1,.19,1.4l-1,.59a1.66,1.66,0,0,0-.3.22,1.4,1.4,0,0,0,0,2,1.46,1.46,0,0,0,2-.09l.79-.79a.77.77,0,0,1,1.3.57c-.05,1.53.06,3,2,3,3.22-.06,5.45-5.8,5.11-10.4.77-1.38,3.18-4.85,7.52-4.25l7.26,1a1,1,0,0,0,.29-2.06l-7.26-1c-4.38-.61-5.73-4.58-6.1-6.13,1.58-4.33,1-10.47-2.09-11.39C303.09,126.38,302.57,127.79,302.21,129.27Z"/></g><path class="cls-11" d="M298.78,125.84a.76.76,0,0,1-1.4.2l-.55-1a1.46,1.46,0,0,0-1.9-.63,1.39,1.39,0,0,0-.58,1.93,1.09,1.09,0,0,0,.23.29l.84.86a.76.76,0,0,1-.57,1.29c-1.53-.05-3,.06-3,2,.05,3.09,5.34,5.26,9.82,5.13a11.19,11.19,0,0,0,2.35,4.33L294.7,139c-2-4.09-6.64-7.85-9.42-6.35-1.68.9-1,2.26-.25,3.57a.76.76,0,0,1-.85,1.13L283,137a1.5,1.5,0,0,0-.37,0,1.4,1.4,0,0,0-1.4,1.45,1.44,1.44,0,0,0,1.48,1.34h1.11a.76.76,0,0,1,.51,1.32c-1.12,1-2.1,2.18-.72,3.5,2.27,2.2,7.75-.16,10.79-3.55l9.33,1.29a11.24,11.24,0,0,0-3.44,3.53c-4.28-1.35-10-.69-10.84,2.27-.55,1.83.86,2.34,2.35,2.71a.76.76,0,0,1,.19,1.4l-1.05.59a2,2,0,0,0-.29.22,1.4,1.4,0,0,0,0,2,1.45,1.45,0,0,0,2-.1l.79-.78a.76.76,0,0,1,1.29.57c0,1.53.06,3,2,3,3.22-.06,5.45-5.81,5.11-10.4.77-1.38,3.17-4.85,7.52-4.25l7.26,1a1,1,0,0,0,.28-2.06l-7.26-1c-4.37-.6-5.72-4.57-6.09-6.12,1.58-4.33,1-10.47-2.09-11.4C299.65,123,299.14,124.36,298.78,125.84Z"/><g class="cls-6"><path d="M351.58,123.38,311.83,145a22.29,22.29,0,0,0,30.4,8.95A22.72,22.72,0,0,0,351.58,123.38Z"/><path d="M316.3,142.54c.12.28.24.55.38.82a17.32,17.32,0,0,0,23.63,6.95,17.64,17.64,0,0,0,7.27-23.73c-.14-.27-.31-.52-.46-.77Z"/><path d="M335.24,140.81a9,9,0,0,1-11.44-2.35l15.81-8.59A9.21,9.21,0,0,1,335.24,140.81Z"/><path d="M339.63,146.69a1.08,1.08,0,0,1-.39,1.63,1.05,1.05,0,0,1-1.55-.58,3.74,3.74,0,0,1,0-2.25S339.23,145.92,339.63,146.69Z"/><path d="M329.92,148.46c-.26.86-.83,1.06-1.42.89a1.06,1.06,0,0,1-.68-1.51c.26-.85,1.63-1.58,1.63-1.58A3.76,3.76,0,0,1,329.92,148.46Z"/><path d="M321.68,144.53a1.06,1.06,0,0,1-1.65.19,1.07,1.07,0,0,1,0-1.66,3.88,3.88,0,0,1,2.14-.74A3.8,3.8,0,0,1,321.68,144.53Z"/><path d="M344.5,140.54a1.07,1.07,0,0,0,1.51-.71c.19-.58,0-1.14-.86-1.41a3.85,3.85,0,0,0-2.2.51S343.66,140.3,344.5,140.54Z"/><path d="M345.79,131.43c.89-.13,1.17-.67,1.07-1.27s-.49-1-1.39-.9-1.78,1.4-1.78,1.4A3.63,3.63,0,0,0,345.79,131.43Z"/></g><path class="cls-17" d="M348.15,119.94,308.4,141.53a22.3,22.3,0,0,0,30.4,9A22.73,22.73,0,0,0,348.15,119.94Z"/><path class="cls-5" d="M312.86,139.11c.13.27.24.55.39.81a17.31,17.31,0,0,0,23.63,7,17.64,17.64,0,0,0,7.27-23.73c-.14-.27-.31-.52-.47-.78Z"/><path class="cls-16" d="M331.81,137.38A9,9,0,0,1,320.37,135l15.81-8.59A9.21,9.21,0,0,1,331.81,137.38Z"/><path class="cls-16" d="M336.2,143.26a1.08,1.08,0,0,1-.39,1.63,1,1,0,0,1-1.55-.58,3.74,3.74,0,0,1,0-2.25S335.8,142.49,336.2,143.26Z"/><path class="cls-16" d="M326.48,145c-.25.86-.82,1.06-1.41.88s-.95-.64-.68-1.5,1.63-1.58,1.63-1.58A3.7,3.7,0,0,1,326.48,145Z"/><path class="cls-16" d="M318.25,141.09a1.1,1.1,0,1,1-1.62-1.46,3.88,3.88,0,0,1,2.14-.74A3.84,3.84,0,0,1,318.25,141.09Z"/><path class="cls-16" d="M341.07,137.11a1.07,1.07,0,0,0,1.51-.71c.18-.58,0-1.15-.87-1.41a3.85,3.85,0,0,0-2.19.5S340.23,136.87,341.07,137.11Z"/><path class="cls-16" d="M342.36,128c.88-.13,1.16-.67,1.07-1.28s-.49-1-1.39-.89-1.78,1.39-1.78,1.39A3.69,3.69,0,0,0,342.36,128Z"/><g class="cls-6"><path d="M321.17,147.58a.6.6,0,0,1-1-.57l.14-.86a1.14,1.14,0,0,0-.85-1.32,1.1,1.1,0,0,0-1.31.9,1.41,1.41,0,0,0,0,.29l.1.94a.6.6,0,0,1-1,.51c-.91-.78-1.89-1.45-2.81-.26-1.48,1.92.69,5.85,3.51,8a8.77,8.77,0,0,0-.69,3.81l-5.09-5.38c.78-3.5-.21-8.09-2.66-8.54-1.47-.27-1.75.88-1.91,2.07a.6.6,0,0,1-1.08.28l-.55-.77a1.34,1.34,0,0,0-.2-.21,1.1,1.1,0,0,0-1.58.2,1.15,1.15,0,0,0,.25,1.55l.68.55a.6.6,0,0,1-.33,1.06c-1.2.09-2.36.31-2.18,1.8.32,2.46,4.84,3.71,8.37,3.13l5.09,5.38a8.81,8.81,0,0,0-3.84.47c-2-2.93-5.77-5.32-7.77-3.94-1.24.85-.63,1.86.11,2.82a.6.6,0,0,1-.57.95l-.94-.15a1.38,1.38,0,0,0-.29,0,1.11,1.11,0,0,0-1,1.26,1.15,1.15,0,0,0,1.27.92l.87-.09a.6.6,0,0,1,.52,1c-.79.92-1.46,1.89-.27,2.81,2,1.55,6.2-.88,8.25-3.86,1.15-.47,4.33-1.42,6.71,1.09l4,4.19a.81.81,0,1,0,1.18-1.12l-4-4.19c-2.39-2.53-1.26-5.63-.72-6.76,3.1-1.88,5.76-5.93,4.32-8C323.13,146.24,322.13,146.85,321.17,147.58Z"/></g><path class="cls-12" d="M317.74,144.15a.6.6,0,0,1-1-.57l.14-.86a1.14,1.14,0,0,0-.85-1.32,1.1,1.1,0,0,0-1.31.9,2.71,2.71,0,0,0,0,.29l.1.94a.59.59,0,0,1-1,.51c-.92-.78-1.89-1.45-2.81-.27-1.48,1.92.69,5.86,3.5,8a8.89,8.89,0,0,0-.68,3.81l-5.09-5.39c.78-3.49-.22-8.08-2.66-8.53-1.48-.27-1.75.88-1.91,2.07a.6.6,0,0,1-1.08.28l-.55-.77a1.34,1.34,0,0,0-.2-.21,1.09,1.09,0,0,0-1.58.2,1.14,1.14,0,0,0,.25,1.55l.68.55a.6.6,0,0,1-.33,1.06c-1.21.09-2.37.31-2.18,1.79.31,2.47,4.84,3.72,8.37,3.14l5.09,5.38a8.79,8.79,0,0,0-3.84.47c-2-2.93-5.78-5.32-7.78-3.94-1.23.85-.62,1.86.11,2.82a.59.59,0,0,1-.56,1l-.94-.15a.93.93,0,0,0-.29,0,1.1,1.1,0,0,0-1,1.26,1.15,1.15,0,0,0,1.27.92l.87-.09a.6.6,0,0,1,.52,1c-.79.92-1.46,1.89-.27,2.81,2,1.55,6.2-.88,8.25-3.87,1.15-.46,4.33-1.41,6.7,1.1l4,4.19a.82.82,0,1,0,1.19-1.13l-4-4.18c-2.39-2.53-1.26-5.63-.72-6.76,3.1-1.88,5.76-5.93,4.32-8C319.7,142.8,318.69,143.42,317.74,144.15Z"/><g class="cls-6"><path d="M365.81,153.16l-46.58,8.55a23.34,23.34,0,0,0,27.34,18.8A23.79,23.79,0,0,0,365.81,153.16Z"/><path d="M324.46,160.75c0,.32.06.63.12.94a18.13,18.13,0,0,0,21.25,14.61,18.47,18.47,0,0,0,15-21.25c-.05-.32-.14-.62-.21-.92Z"/><path d="M343.88,165.19a9.45,9.45,0,0,1-10.62-6.06l18.53-3.4A9.63,9.63,0,0,1,343.88,165.19Z"/><path d="M346.34,172.48a1.13,1.13,0,0,1-.92,1.49c-.63.11-1.2-.15-1.36-1.08a3.94,3.94,0,0,1,.78-2.23S346.18,171.58,346.34,172.48Z"/><path d="M336.09,171.07a1.12,1.12,0,0,1-1.69.43,1.1,1.1,0,0,1-.19-1.73,4,4,0,0,1,2.13-1A3.87,3.87,0,0,1,336.09,171.07Z"/><path d="M329.18,164.48a1.15,1.15,0,1,1-1.14-2,4,4,0,0,1,2.37,0S330,164,329.18,164.48Z"/><path d="M353.18,167.94a1.13,1.13,0,0,0,1.74-.21,1.11,1.11,0,0,0-.41-1.69,4,4,0,0,0-2.35-.21A3.91,3.91,0,0,0,353.18,167.94Z"/><path d="M357.43,159.29c.93.16,1.38-.28,1.48-.92s-.16-1.18-1.09-1.34a4,4,0,0,0-2.23.81S356.52,159.16,357.43,159.29Z"/></g><path class="cls-17" d="M362.38,149.73l-46.58,8.55a23.34,23.34,0,0,0,27.34,18.8A23.79,23.79,0,0,0,362.38,149.73Z"/><path class="cls-5" d="M321,157.32c0,.32.06.62.12.94a18.13,18.13,0,0,0,21.25,14.61,18.49,18.49,0,0,0,15-21.26c-.06-.31-.14-.61-.21-.92Z"/><path class="cls-16" d="M340.45,161.76a9.45,9.45,0,0,1-10.62-6.06l18.53-3.4A9.64,9.64,0,0,1,340.45,161.76Z"/><path class="cls-16" d="M342.9,169.05a1.13,1.13,0,0,1-.92,1.49c-.62.11-1.2-.16-1.35-1.08a3.9,3.9,0,0,1,.78-2.23S342.75,168.14,342.9,169.05Z"/><path class="cls-16" d="M332.66,167.64a1.12,1.12,0,0,1-1.7.42c-.52-.36-.73-.94-.18-1.72a4,4,0,0,1,2.13-1A3.87,3.87,0,0,1,332.66,167.64Z"/><path class="cls-16" d="M325.75,161.05a1.16,1.16,0,1,1-1.14-2,4.07,4.07,0,0,1,2.37,0S326.55,160.59,325.75,161.05Z"/><path class="cls-16" d="M349.75,164.51a1.13,1.13,0,0,0,1.74-.21,1.11,1.11,0,0,0-.41-1.69,4,4,0,0,0-2.35-.21S349,164,349.75,164.51Z"/><path class="cls-16" d="M354,155.86c.92.16,1.38-.28,1.48-.92s-.16-1.19-1.09-1.34a4,4,0,0,0-2.23.81S353.09,155.72,354,155.86Z"/><text class="cls-18" transform="translate(282.57 236.61)"><tspan class="cls-19">Y</tspan><tspan x="11.71" y="0">ou Can Cook</tspan></text><path class="cls-20" d="M405.05,245.35H288.38a15.45,15.45,0,0,1-15.45-15.44h0a15.45,15.45,0,0,1,15.45-15.45H405.05a15.45,15.45,0,0,1,15.45,15.45h0A15.45,15.45,0,0,1,405.05,245.35Z"/><path class="cls-3" d="M333.65,578.89H160.21c-40.65-70.56-40.63-130.51-40.63-130.51,0-22.05,9.16-42,26.18-40.29a28.28,28.28,0,0,1,14.14,5.52c4.67-12.52,10.64-20.59,16.64-25.39,9.41-7.48,33-9.78,45,15.23l7.61-30.81s3-21.52,30.07-18.71c23.88,2.51,29.06,28.49,29.06,28.49l5.29-116.55a28.39,28.39,0,0,1,56.76,1.27V391.55s34.11,14.82,55.15,37.33S387,562.76,333.65,578.89Z"/><path class="cls-4" d="M209.2,401.29c1,1,2,1.88,2.93,2.64a7.67,7.67,0,0,0,2.86,1.54,5.09,5.09,0,0,0,3-.31,32.51,32.51,0,0,0,3.52-1.69,7.4,7.4,0,0,1-2.52,3.46,5.57,5.57,0,0,1-4.62,1,6.51,6.51,0,0,1-3.76-2.68A7.93,7.93,0,0,1,209.2,401.29Z"/><path class="cls-4" d="M278.14,406.85a10.32,10.32,0,0,0,3.17,3.29,3,3,0,0,0,1.84.51,2.17,2.17,0,0,0,1.44-.75,4.28,4.28,0,0,0,.83-1.65,5.56,5.56,0,0,0,.18-1l.06-.5v-.6l.21-4.77.35-4.75c.17-1.59.29-3.17.5-4.75a90.57,90.57,0,0,1,1.57-9.46,88.14,88.14,0,0,1,.43,9.59c0,1.6,0,3.19-.07,4.79l-.21,4.77-.36,4.77a7.37,7.37,0,0,1-2.12,5,3.81,3.81,0,0,1-2.86,1,4.41,4.41,0,0,1-2.55-1.16A8.62,8.62,0,0,1,278.14,406.85Z"/><path class="cls-4" d="M378.28,451.36a51,51,0,0,1-16.84-10.25,35.35,35.35,0,0,1-10.52-17,19.44,19.44,0,0,1-.47-2.55,11.72,11.72,0,0,1-.11-1.34l0-1.22-.18-4.9c-.07-3.26-.19-6.52-.22-9.79-.1-6.53-.11-13.07.14-19.62.82,6.5,1.39,13,1.87,19.55.26,3.26.43,6.52.64,9.79l.26,4.89.06,1.23c0,.38.05.71.1,1.1a20.07,20.07,0,0,0,.45,2.26,30.69,30.69,0,0,0,3.63,8.63,18.87,18.87,0,0,0,1.28,2,18.56,18.56,0,0,0,1.4,1.93l1.49,1.86,1.63,1.75A68.23,68.23,0,0,0,378.28,451.36Z"/><line class="cls-21" y1="576.58" x2="708.43" y2="576.58"/></g></g></g></svg>