<svg width="22" height="22" viewBox="0 0 22 22" fill="none" xmlns="http://www.w3.org/2000/svg">
<path d="M10.0833 11.9167H0.916664C0.656331 11.9167 0.438775 11.8287 0.263997 11.6527C0.0892196 11.4767 0.00121952 11.2585 -2.70173e-06 10.9982C-0.00122492 10.7378 0.0867752 10.5203 0.263997 10.3455C0.44122 10.1707 0.658775 10.0833 0.916664 10.0833H10.0833V0.916679C10.0833 0.656346 10.1713 0.43879 10.3473 0.264013C10.5233 0.0892349 10.7415 0.00123478 11.0018 1.25571e-05C11.2622 -0.00120967 11.4797 0.0867904 11.6545 0.264013C11.8293 0.441235 11.9167 0.65879 11.9167 0.916679V10.0833H21.0833C21.3437 10.0833 21.5612 10.1713 21.736 10.3473C21.9108 10.5233 21.9988 10.7415 22 11.0018C22.0012 11.2622 21.9132 11.4797 21.736 11.6545C21.5588 11.8293 21.3412 11.9167 21.0833 11.9167H11.9167V21.0833C11.9167 21.3437 11.8287 21.5612 11.6527 21.736C11.4767 21.9108 11.2585 21.9988 10.9982 22C10.7378 22.0012 10.5203 21.9132 10.3455 21.736C10.1707 21.5588 10.0833 21.3412 10.0833 21.0833V11.9167Z" fill="black"/>
</svg>
