<svg width="23" height="22" viewBox="0 0 23 22" fill="none" xmlns="http://www.w3.org/2000/svg">
<path d="M19.5833 8.25H14.0833V2.75C14.0833 2.02065 13.7936 1.32118 13.2779 0.805456C12.7622 0.289731 12.0627 0 11.3333 0C10.604 0 9.90452 0.289731 9.38879 0.805456C8.87307 1.32118 8.58334 2.02065 8.58334 2.75L8.68096 8.25H3.08334C2.35399 8.25 1.65452 8.53973 1.13879 9.05546C0.623067 9.57118 0.333336 10.2707 0.333336 11C0.333336 11.7293 0.623067 12.4288 1.13879 12.9445C1.65452 13.4603 2.35399 13.75 3.08334 13.75L8.68096 13.6524L8.58334 19.25C8.58334 19.9793 8.87307 20.6788 9.38879 21.1945C9.90452 21.7103 10.604 22 11.3333 22C12.0627 22 12.7622 21.7103 13.2779 21.1945C13.7936 20.6788 14.0833 19.9793 14.0833 19.25V13.6524L19.5833 13.75C20.3127 13.75 21.0122 13.4603 21.5279 12.9445C22.0436 12.4288 22.3333 11.7293 22.3333 11C22.3333 10.2707 22.0436 9.57118 21.5279 9.05546C21.0122 8.53973 20.3127 8.25 19.5833 8.25Z" fill="black"/>
</svg>
