<svg width="35" height="35" viewBox="0 0 35 35" fill="none" xmlns="http://www.w3.org/2000/svg">
<path fill-rule="evenodd" clip-rule="evenodd" d="M0.280212 17.5C0.280212 12.933 2.09444 8.5531 5.32378 5.32376C8.55311 2.09442 12.933 0.280197 17.5 0.280197C22.067 0.280197 26.4469 2.09442 29.6763 5.32376C32.9056 8.5531 34.7198 12.933 34.7198 17.5C34.7198 22.067 32.9056 26.4469 29.6763 29.6762C26.4469 32.9056 22.067 34.7198 17.5 34.7198C12.933 34.7198 8.55311 32.9056 5.32378 29.6762C2.09444 26.4469 0.280212 22.067 0.280212 17.5ZM17.5 2.7502C14.6411 2.7503 11.8438 3.58124 9.44849 5.14195C7.05316 6.70265 5.16302 8.92585 4.00801 11.5411C2.85301 14.1563 2.48292 17.0508 2.94278 19.8725C3.40264 22.6942 4.67261 25.3214 6.59821 27.4346C7.76706 25.6034 9.37874 24.0964 11.2842 23.053C13.1897 22.0096 15.3275 21.4634 17.5 21.465C19.6725 21.4634 21.8103 22.0096 23.7158 23.053C25.6213 24.0964 27.233 25.6034 28.4018 27.4346C30.3274 25.3214 31.5974 22.6942 32.0572 19.8725C32.5171 17.0508 32.147 14.1563 30.992 11.5411C29.837 8.92585 27.9469 6.70265 25.5515 5.14195C23.1562 3.58124 20.3589 2.7503 17.5 2.7502ZM26.5532 29.1454C25.6338 27.5592 24.3132 26.2427 22.7242 25.3282C21.1351 24.4136 19.3335 23.9332 17.5 23.935C15.6666 23.9332 13.8649 24.4136 12.2759 25.3282C10.6868 26.2427 9.36627 27.5592 8.44681 29.1454C11.0334 31.1618 14.2203 32.2546 17.5 32.2498C20.9112 32.2498 24.052 31.0902 26.5532 29.1454ZM11.39 14.913C11.39 13.2925 12.0337 11.7384 13.1796 10.5926C14.3254 9.44673 15.8795 8.803 17.5 8.803C19.1205 8.803 20.6746 9.44673 21.8204 10.5926C22.9663 11.7384 23.61 13.2925 23.61 14.913C23.61 16.5335 22.9663 18.0876 21.8204 19.2334C20.6746 20.3793 19.1205 21.023 17.5 21.023C15.8795 21.023 14.3254 20.3793 13.1796 19.2334C12.0337 18.0876 11.39 16.5335 11.39 14.913ZM17.5 11.273C17.022 11.273 16.5487 11.3672 16.107 11.5501C15.6654 11.733 15.2641 12.0011 14.9261 12.3391C14.5881 12.6771 14.32 13.0784 14.1371 13.52C13.9542 13.9617 13.86 14.435 13.86 14.913C13.86 15.391 13.9542 15.8643 14.1371 16.306C14.32 16.7476 14.5881 17.1489 14.9261 17.4869C15.2641 17.8249 15.6654 18.093 16.107 18.2759C16.5487 18.4588 17.022 18.553 17.5 18.553C18.4654 18.553 19.3912 18.1695 20.0739 17.4869C20.7565 16.8042 21.14 15.8784 21.14 14.913C21.14 13.9476 20.7565 13.0218 20.0739 12.3391C19.3912 11.6565 18.4654 11.273 17.5 11.273Z" fill="black"/>
</svg>
