<svg xmlns="http://www.w3.org/2000/svg" viewBox="0 0 460.2 490.09"><defs><style>.cls-1{fill:#fff70c;}.cls-11,.cls-12,.cls-13,.cls-2,.cls-5,.cls-7,.cls-8{fill:none;}.cls-11,.cls-12,.cls-13,.cls-15,.cls-2,.cls-5,.cls-7,.cls-8,.cls-9{stroke:#000;}.cls-11,.cls-12,.cls-13,.cls-2,.cls-5,.cls-7,.cls-8,.cls-9{stroke-linecap:round;stroke-linejoin:round;}.cls-2{stroke-width:4.81px;}.cls-3{fill:#ffe1ad;}.cls-4{fill:#753016;opacity:0.2;}.cls-5{stroke-width:4.78px;}.cls-6{fill:#cd7d50;opacity:0.19;}.cls-7{stroke-width:5.16px;}.cls-8{stroke-width:4.92px;}.cls-9{fill:#fff;stroke-width:4.83px;}.cls-10{fill:#f5f7fa;}.cls-11{stroke-width:4.8px;}.cls-12{stroke-width:5.92px;}.cls-13{stroke-width:4.98px;}.cls-14{fill:#663c29;}.cls-15{stroke-miterlimit:10;}.cls-16{fill:#666e78;}.cls-17{fill:#434a54;}</style></defs><title>avatar</title><g id="Layer_2" data-name="Layer 2"><g id="Layer_1-2" data-name="Layer 1"><path class="cls-1" d="M457.79,260a226.69,226.69,0,0,1-54.65,148q-6.75,7.89-14.18,15.14c-.31.29-.59.58-.9.86l-.19.19-.31.28c-1,1-2,1.92-3,2.86-.13.14-.27.25-.39.36l-2.05,1.86-.2.19c-1.63,1.45-3.25,2.87-4.91,4.26-.51.44-1,.87-1.52,1.29h0l-.78.63-1.8,1.46c-.79.64-1.58,1.27-2.38,1.88q-5.4,4.26-11.07,8.16l-.25.18-.76.52-.42.28c-1.19.82-2.42,1.63-3.63,2.42a2.17,2.17,0,0,1-.32.21,1.51,1.51,0,0,1-.26.18l-.28.17-.47.31-1.11.7c-.2.14-.42.27-.62.4l-.93.58-.92.57-.15.09-.36.23-.05,0-1.82,1.1-.43.26-.12.07a4.65,4.65,0,0,1-.41.26l-1,.61-1.28.74-.54.32-.59.33-.11.07-.16.08-.25.14-.28.16c-1.7.95-3.39,1.89-5.11,2.8q-6.69,3.56-13.68,6.66l-1.71.78c-.14.07-.3.13-.45.19-1,.44-2,.87-3,1.29l-.62.26-3.08,1.26-.23.08-1.49.58q-2.62,1-5.27,2-6.73,2.43-13.65,4.43-6.29,1.81-12.73,3.29c-1.85.42-3.69.82-5.56,1.19-1.33.27-2.68.53-4,.76-.75.15-1.5.28-2.26.41-2.77.48-5.54.91-8.35,1.27l-.35.05c-.26,0-.5.07-.76.09s-.71.1-1.06.14-.59.08-.91.11l-.24,0h-.12l-.17,0c-1.37.16-2.73.3-4.11.44-2.8.28-5.63.51-8.46.67l-1.83.11c-1.15.06-2.29.12-3.42.16l-3.57.12-1,0h-.25l-.73,0c-1.18,0-2.37,0-3.56,0h-.74c-.45,0-.88,0-1.31,0h-.37c-2.31,0-4.62-.08-6.9-.18l-.58,0-.83,0c-1.38-.05-2.74-.13-4.09-.21s-3-.21-4.43-.33c-2.67-.22-5.32-.49-8-.8l-.65-.09h-.19l-.74-.1c-.75-.1-1.5-.19-2.23-.3-.17,0-.33,0-.5-.06l-.88-.13c-1.42-.2-2.84-.41-4.25-.65l-.21,0q-5.78-.93-11.49-2.18c-6.16-1.33-12.21-2.92-18.19-4.74q-5.59-1.71-11.08-3.69l-1.18-.43c-1.22-.45-2.45-.91-3.66-1.38q-2.4-.93-4.75-1.91l-.06,0c-1-.43-2.06-.86-3.1-1.31-1.27-.55-2.54-1.11-3.82-1.69q-6.54-3-12.87-6.36-3.78-2-7.47-4.18l-1-.57c-.46-.27-1-.55-1.42-.84s-1-.57-1.44-.87h0l-.44-.27-.24-.15a2.13,2.13,0,0,1-.25-.16l-.35-.21s0,0,0,0c-.52-.31-1-.63-1.55-1h0l-2.18-1.4-.45-.3-.06,0-.15-.1-.17-.11h0l-.11-.08,0,0c-.22-.15-.44-.3-.67-.44l-.44-.3-.33-.21-.58-.39-1.74-1.17-2.31-1.59c-1.46-1-2.93-2.08-4.37-3.15a1.53,1.53,0,0,1-.16-.11c-1.22-.9-2.42-1.81-3.62-2.74-1-.79-2.06-1.59-3.08-2.41l-.11-.08-2-1.62a2.31,2.31,0,0,1-.24-.2l-1-.87-.48-.41c-.77-.64-1.53-1.29-2.29-2a1.09,1.09,0,0,1-.29-.24c-2.57-2.18-5.09-4.43-7.53-6.74l0,0-.17-.15c-.11-.12-.25-.23-.37-.35l-.08-.09-.16-.15-.28-.28c-.64-.59-1.25-1.18-1.88-1.79q-6.14-6-11.79-12.36A227.69,227.69,0,0,1,121.11,60h0l.43-.23c1.87-1,3.76-2,5.67-3,1.47-.75,2.95-1.49,4.44-2.2l1.43-.68,0,0,.08,0c2.5-1.18,5.05-2.33,7.59-3.41l1.08-.46.9-.37,1.24-.51,1.41-.57,1.79-.71h0l1.2-.47,0,0,2.53-1c.27-.09.5-.19.75-.28s.39-.14.57-.21h0l1.21-.43.24-.09.17-.06.3-.11.82-.28h0c1.16-.41,2.32-.81,3.48-1.19q1.2-.41,2.4-.78l.93-.3.08,0,1.07-.33h0l.1,0,.85-.26c1.14-.35,2.29-.68,3.44-1h0c.57-.17,1.13-.33,1.7-.48s1-.28,1.48-.41q3.6-1,7.25-1.84h0q1.25-.3,2.52-.57c.48-.12,1-.22,1.46-.33q5.26-1.14,10.61-2l1.92-.31c3.61-.56,7.26-1,10.92-1.44q4-.43,8-.72c5.54-.42,11.16-.63,16.81-.63h1.31q10.17.06,20.13,1,7.2.66,14.27,1.79c3.37.53,6.7,1.13,10,1.81h0c1.12.23,2.22.46,3.32.71l2,.43.45.11c.84.19,1.68.4,2.51.6h0l.35.08,2.22.55.45.11.06,0,.89.23.32.09c.5.12,1,.27,1.5.4l.07,0c.76.2,1.52.41,2.27.63l1.1.31c.24.07.48.15.73.21h0l.64.19,3,.92.73.23c1.24.39,2.47.78,3.68,1.19l.73.25.71.25.68.23c2,.66,3.87,1.36,5.79,2.08h0c.76.28,1.51.57,2.26.87h0l1.75.69c.57.21,1.13.44,1.69.67l.11.05c.83.33,1.64.66,2.44,1h0q5.43,2.28,10.72,4.85l.67.32Q337,58.78,344,62.83c.68.39,1.36.78,2,1.19A227.54,227.54,0,0,1,457.79,260Z"/><path class="cls-2" d="M457.79,260a226.69,226.69,0,0,1-54.65,148q-6.75,7.89-14.18,15.14c-.31.29-.59.58-.9.86l-.19.19-.31.28c-1,1-2,1.92-3,2.86-.13.14-.27.25-.39.36l-2.05,1.86-.2.19c-1.63,1.45-3.25,2.87-4.91,4.26-.51.44-1,.87-1.52,1.29h0l-.78.63-1.8,1.46c-.79.64-1.58,1.27-2.38,1.88q-5.4,4.26-11.07,8.16l-.25.18-.76.52-.42.28c-1.19.82-2.42,1.63-3.63,2.42a2.17,2.17,0,0,1-.32.21,1.51,1.51,0,0,1-.26.18l-.28.17-.47.31-1.11.7c-.2.14-.42.27-.62.4l-.93.58-.92.57-.15.09-.36.23-.05,0-1.82,1.1-.43.26-.12.07a4.65,4.65,0,0,1-.41.26l-1,.61-1.28.74-.54.32-.59.33-.11.07-.16.08-.25.14-.28.16c-1.7.95-3.39,1.89-5.11,2.8q-6.69,3.56-13.68,6.66l-1.71.78c-.14.07-.3.13-.45.19-1,.44-2,.87-3,1.29l-.62.26-3.08,1.26-.23.08-1.49.58q-2.62,1-5.27,2-6.73,2.43-13.65,4.43-6.29,1.81-12.73,3.29c-1.85.42-3.69.82-5.56,1.19-1.33.27-2.68.53-4,.76-.75.15-1.5.28-2.26.41-2.77.48-5.54.91-8.35,1.27l-.35.05c-.26,0-.5.07-.76.09s-.71.1-1.06.14-.59.08-.91.11l-.24,0h-.12l-.17,0c-1.37.16-2.73.3-4.11.44-2.8.28-5.63.51-8.46.67l-1.83.11c-1.15.06-2.29.12-3.42.16l-3.57.12-1,0h-.25l-.73,0c-1.18,0-2.37,0-3.56,0h-.74c-.45,0-.88,0-1.31,0h-.37c-2.31,0-4.62-.08-6.9-.18l-.58,0-.83,0c-1.38-.05-2.74-.13-4.09-.21s-3-.21-4.43-.33c-2.67-.22-5.32-.49-8-.8l-.65-.09h-.19l-.74-.1c-.75-.1-1.5-.19-2.23-.3-.17,0-.33,0-.5-.06l-.88-.13c-1.42-.2-2.84-.41-4.25-.65l-.21,0q-5.78-.93-11.49-2.18c-6.16-1.33-12.21-2.92-18.19-4.74q-5.59-1.71-11.08-3.69l-1.18-.43c-1.22-.45-2.45-.91-3.66-1.38q-2.4-.93-4.75-1.91l-.06,0c-1-.43-2.06-.86-3.1-1.31-1.27-.55-2.54-1.11-3.82-1.69q-6.54-3-12.87-6.36-3.78-2-7.47-4.18l-1-.57c-.46-.27-1-.55-1.42-.84s-1-.57-1.44-.87h0l-.44-.27-.24-.15a2.13,2.13,0,0,1-.25-.16l-.35-.21s0,0,0,0c-.52-.31-1-.63-1.55-1h0l-2.18-1.4-.45-.3-.06,0-.15-.1-.17-.11h0l-.11-.08,0,0c-.22-.15-.44-.3-.67-.44l-.44-.3-.33-.21-.58-.39-1.74-1.17-2.31-1.59c-1.46-1-2.93-2.08-4.37-3.15a1.53,1.53,0,0,1-.16-.11c-1.22-.9-2.42-1.81-3.62-2.74-1-.79-2.06-1.59-3.08-2.41l-.11-.08-2-1.62a2.31,2.31,0,0,1-.24-.2l-1-.87-.48-.41c-.77-.64-1.53-1.29-2.29-2a1.09,1.09,0,0,1-.29-.24c-2.57-2.18-5.09-4.43-7.53-6.74l0,0-.17-.15c-.11-.12-.25-.23-.37-.35l-.08-.09-.16-.15-.28-.28c-.64-.59-1.25-1.18-1.88-1.79q-6.14-6-11.79-12.36A227.69,227.69,0,0,1,121.11,60h0l.43-.23c1.87-1,3.76-2,5.67-3,1.47-.75,2.95-1.49,4.44-2.2l1.43-.68,0,0,.08,0c2.5-1.18,5.05-2.33,7.59-3.41l1.08-.46.9-.37,1.24-.51,1.41-.57,1.79-.71h0l1.2-.47,0,0,2.53-1c.27-.09.5-.19.75-.28s.39-.14.57-.21h0l1.21-.43.24-.09.17-.06.3-.11.82-.28h0c1.16-.41,2.32-.81,3.48-1.19q1.2-.41,2.4-.78l.93-.3.08,0,1.07-.33h0l.1,0,.85-.26c1.14-.35,2.29-.68,3.44-1h0c.57-.17,1.13-.33,1.7-.48s1-.28,1.48-.41q3.6-1,7.25-1.84h0q1.25-.3,2.52-.57c.48-.12,1-.22,1.46-.33q5.26-1.14,10.61-2l1.92-.31c3.61-.56,7.26-1,10.92-1.44q4-.43,8-.72c5.54-.42,11.16-.63,16.81-.63h1.31q10.17.06,20.13,1,7.2.66,14.27,1.79c3.37.53,6.7,1.13,10,1.81h0c1.12.23,2.22.46,3.32.71l2,.43.45.11c.84.19,1.68.4,2.51.6h0l.35.08,2.22.55.45.11.06,0,.89.23.32.09c.5.12,1,.27,1.5.4l.07,0c.76.2,1.52.41,2.27.63l1.1.31c.24.07.48.15.73.21h0l.64.19,3,.92.73.23c1.24.39,2.47.78,3.68,1.19l.73.25.71.25.68.23c2,.66,3.87,1.36,5.79,2.08h0c.76.28,1.51.57,2.26.87h0l1.75.69c.57.21,1.13.44,1.69.67l.11.05c.83.33,1.64.66,2.44,1h0q5.43,2.28,10.72,4.85l.67.32Q337,58.78,344,62.83c.68.39,1.36.78,2,1.19A227.54,227.54,0,0,1,457.79,260Z"/><path class="cls-3" d="M349.48,394.91a11.62,11.62,0,0,0-1.26,1.76l-.55.93c-5.35,9.2-18.95,38.77-35.19,72.71q-2.62,1-5.27,2-6.73,2.43-13.65,4.43-6.29,1.81-12.73,3.29c-1.85.42-3.69.82-5.56,1.19-1.33.27-2.68.53-4,.76-.75.15-1.5.28-2.26.41-2.77.48-5.54.91-8.35,1.27l-.35.05c-.26,0-.5.07-.76.09s-.71.1-1.06.14-.59.08-.91.11l-.24,0h-.12l-.17,0c-1.37.16-2.73.3-4.11.44-2.8.28-5.63.51-8.46.67l-1.83.11c-1.15.06-2.29.12-3.42.16l-3.57.12-1,0h-.25l-.73,0c-1.18,0-2.37,0-3.56,0h-.74c-.45,0-.88,0-1.31,0h-.37c-2.31,0-4.62-.08-6.9-.18l-.58,0-.83,0c-1.38-.05-2.74-.13-4.09-.21s-3-.21-4.43-.33c-2.67-.22-5.32-.49-8-.8l-.65-.09h-.19l-.74-.1c-.75-.1-1.5-.19-2.23-.3-.17,0-.33,0-.5-.06l-.88-.13c-1.42-.2-2.84-.41-4.25-.65l-.21,0q-5.78-.93-11.49-2.18c-6.16-1.33-12.21-2.92-18.19-4.74q-5.59-1.71-11.08-3.69l-1.18-.43c-1.22-.45-2.45-.91-3.66-1.38q-2.4-.93-4.75-1.91l-.06,0c-1-.43-2.06-.86-3.1-1.31-1.27-.55-2.54-1.11-3.82-1.69q-6.54-3-12.87-6.36-3.78-2-7.47-4.18a448.94,448.94,0,0,1-5.27-54c0-1.82-.08-3.16-.09-4,0-.6,0-.91,0-.91l56.1-5.21,30.41-2.83-.18-36.15v-.64q1.68.75,3.36,1.38c25.65,9.8,50.77,2,57.77-.59l.09,0c1.19-.45,1.83-.73,1.83-.73v1l0,3.07-.08,7.58-.26,24.64L290,390l57.77,4.79.53.05Z"/><path class="cls-4" d="M197.1,353.13l.21,8.78s27.17,17.34,62.7.62l-.63-9.82S231.58,364.41,197.1,353.13Z"/><path class="cls-5" d="M349.48,394.91l-1.28,3-.56,1.3L317.9,468.13l-.62.26-3.08,1.26-.23.08-1.49.58q-2.62,1-5.27,2-6.73,2.43-13.65,4.43-6.29,1.81-12.73,3.29c-1.85.42-3.69.82-5.56,1.19-1.33.27-2.68.53-4,.76-.75.15-1.5.28-2.26.41-2.77.48-5.54.91-8.35,1.27l-.35.05c-.26,0-.5.07-.76.09s-.71.1-1.06.14-.59.08-.91.11l-.24,0h-.12l-.17,0c-1.37.16-2.73.3-4.11.44-2.8.28-5.63.51-8.46.67l-1.83.11c-1.15.06-2.29.12-3.42.16l-3.57.12-1,0h-.25l-.73,0c-1.18,0-2.37,0-3.56,0h-.74c-.45,0-.88,0-1.31,0h-.37c-2.31,0-4.62-.08-6.9-.18l-.58,0-.83,0c-1.38-.05-2.74-.13-4.09-.21s-3-.21-4.43-.33c-2.67-.22-5.32-.49-8-.8l-.65-.09h-.19l-.74-.1c-.75-.1-1.5-.19-2.23-.3-.17,0-.33,0-.5-.06l-.88-.13c-1.42-.2-2.84-.41-4.25-.65l-.21,0q-5.78-.93-11.49-2.18c-6.16-1.33-12.21-2.92-18.19-4.74q-5.59-1.71-11.08-3.69l-1.18-.43c-1.22-.45-2.45-.91-3.66-1.38l-37.34-69.5-.09-.19L108.28,397l1.85-.19h.08L166.6,391l30.11-3.12-.18-36.15v-.64q1.68.75,3.36,1.38c25.65,9.8,50.77,2,57.77-.59l.09,0c1.19-.45,1.83-.73,1.83-.73v1l0,3.07-.08,7.58-.26,24.64L290,390l57.77,4.79.53.05Z"/><path class="cls-3" d="M320.93,200.37l-.16-3.06s0,68.14,0,68.9a92.94,92.94,0,0,1-61.14,85v0a93.72,93.72,0,0,1-32.06,5.63,89.91,89.91,0,0,1-32.08-5.91c-33.07-12.54-57.35-43.65-60.73-78.61-.51-5.16-.55-3.78-1.2-69.63l.08-1.59c0-52.13,7-123.42,94-125.26C313.88,74,320.93,148.24,320.93,200.37Z"/><path class="cls-3" d="M335.68,237.68v31.43a5.19,5.19,0,0,1-5.18,5.19h-4.36a5.2,5.2,0,0,1-4.55-2.73,5.59,5.59,0,0,1-.14-1.17V239a5.19,5.19,0,0,1,5.19-5.18H331a5.19,5.19,0,0,1,4.53,2.67A5,5,0,0,1,335.68,237.68Z"/><path class="cls-3" d="M186.94,220.07a9.76,9.76,0,1,0,9.74,9.77A9.76,9.76,0,0,0,186.94,220.07Zm16.63-37.63H160.75a5.19,5.19,0,0,0-5.18,5.19V209a5.19,5.19,0,0,0,5.18,5.19h42.82a5.18,5.18,0,0,0,5.17-5.19V187.63A5.18,5.18,0,0,0,203.57,182.44ZM267,220.07a9.76,9.76,0,1,0,9.75,9.77A9.76,9.76,0,0,0,267,220.07Zm26.64-37.63H250.86a5.18,5.18,0,0,0-5.17,5.19V209a5.18,5.18,0,0,0,5.17,5.19h42.82a5.2,5.2,0,0,0,5.18-5.19V187.63A5.2,5.2,0,0,0,293.68,182.44Z"/><path class="cls-6" d="M298.87,187.63V209a5.2,5.2,0,0,1-5.19,5.19H250.87a5.18,5.18,0,0,1-5.18-5.19v-21.4a5.18,5.18,0,0,1,5.18-5.19h42.81A5.2,5.2,0,0,1,298.87,187.63Z"/><path d="M267.05,220.07a9.77,9.77,0,1,1-9.78,9.77A9.76,9.76,0,0,1,267.05,220.07Z"/><path class="cls-6" d="M208.74,187.63V209a5.18,5.18,0,0,1-5.17,5.19H160.76a5.2,5.2,0,0,1-5.19-5.19v-21.4a5.2,5.2,0,0,1,5.19-5.19h42.81A5.18,5.18,0,0,1,208.74,187.63Z"/><path d="M187,220.07a9.77,9.77,0,1,1-9.77,9.77A9.76,9.76,0,0,1,187,220.07Z"/><path class="cls-3" d="M133,237.68v31.43a5.2,5.2,0,0,1-5.18,5.19h-4.38a5.18,5.18,0,0,1-5.17-5.19V237.68a5.16,5.16,0,0,1,5.17-5.17h4.38A5.18,5.18,0,0,1,133,237.68Z"/><path class="cls-7" d="M336.18,239V270.4a5.19,5.19,0,0,1-5.18,5.19h-4.52a5.2,5.2,0,0,1-4.89-4,5.59,5.59,0,0,1-.14-1.17V239a5.19,5.19,0,0,1,5.19-5.18H331a5.18,5.18,0,0,1,5.18,5.18Z"/><path class="cls-7" d="M133,237.68v31.43a5.2,5.2,0,0,1-5.18,5.19h-4.38a5.18,5.18,0,0,1-5.17-5.19V237.68a5.16,5.16,0,0,1,5.17-5.17h4.38A5.18,5.18,0,0,1,133,237.68Z"/><path class="cls-7" d="M208.74,187.63V209a5.18,5.18,0,0,1-5.17,5.19H160.76a5.2,5.2,0,0,1-5.19-5.19v-21.4a5.2,5.2,0,0,1,5.19-5.19h42.81A5.18,5.18,0,0,1,208.74,187.63Z"/><path class="cls-7" d="M298.87,187.63V209a5.2,5.2,0,0,1-5.19,5.19H250.87a5.18,5.18,0,0,1-5.18-5.19v-21.4a5.18,5.18,0,0,1,5.18-5.19h42.81A5.2,5.2,0,0,1,298.87,187.63Z"/><path class="cls-4" d="M320.8,263.94c-.93,39.07-25.45,75.13-60.48,87.92v0a93.72,93.72,0,0,1-32.06,5.63,89.91,89.91,0,0,1-32.08-5.91c-33.07-12.54-59-45-62.41-80,1.14-2.93,2.75-6,2.75-6S217.77,419.29,320.8,263.94Z"/><path class="cls-8" d="M259.63,351.17a92.94,92.94,0,0,0,61.14-85c0-.76,0-68.9,0-68.9l.16,3.06c0-52.13-6.43-123.94-92.73-123.94-89.36,0-94.56,72.52-94.56,124.65l-.08,1.59c.65,65.85.69,64.47,1.2,69.63,3.38,35,27.66,66.07,60.73,78.61a89.91,89.91,0,0,0,32.08,5.91,93.72,93.72,0,0,0,32.06-5.63Z"/><path class="cls-4" d="M245.73,260.33a18.47,18.47,0,0,1-1.85,8.11,18.06,18.06,0,0,1-32.92-.57,18.75,18.75,0,0,1-1.58-7.54h1.07c.07.19.15.37.23.56a18.06,18.06,0,0,0,32.92.57c.18-.37.34-.75.5-1.13Z"/><path class="cls-9" d="M198,285.22h58.86s.3,30.33-29.13,30.33C199.16,315.55,198,285.22,198,285.22Z"/><path class="cls-9" d="M243.9,257.33a16.56,16.56,0,0,1-1.65,7.25,16.15,16.15,0,0,1-29.43-.51,16.64,16.64,0,0,1-1.42-6.74s3.06,16.2,16.31,16.07S243.9,257.33,243.9,257.33Z"/><path class="cls-10" d="M111.26,452.25l-.24-.15a2.13,2.13,0,0,1-.25-.16l-.35-.21s0,0,0,0c-.52-.31-1-.63-1.55-1h0l-2.18-1.4-.45-.3-.06,0-.15-.1-.17-.11h0l-.11-.08,0,0c-.22-.15-.44-.3-.67-.44l-.44-.3-.33-.21-.58-.39-1.74-1.17-2.31-1.59c-1.46-1-2.93-2.08-4.37-3.15a1.53,1.53,0,0,1-.16-.11c-1.22-.9-2.42-1.81-3.62-2.74-1-.79-2.06-1.59-3.08-2.41,1-9.23,1.7-16.31,2.14-20.34l.27-2.37c2.28-19.37,19.31-19,19.31-19l0,2.37.08,3.77Z"/><path class="cls-11" d="M111.26,452.25l-.24-.15a2.13,2.13,0,0,1-.25-.16l-.35-.21s0,0,0,0c-.52-.31-1-.63-1.55-1h0l-2.18-1.4-.45-.3-.06,0-.15-.1-.17-.11h0l-.11-.08,0,0c-.22-.15-.44-.3-.67-.44l-.44-.3-.33-.21-.58-.39-1.74-1.17-2.31-1.59c-1.46-1-2.93-2.08-4.37-3.15a1.53,1.53,0,0,1-.16-.11c-1.22-.9-2.42-1.81-3.62-2.74-1-.79-2.06-1.59-3.08-2.41l-.11-.08c1-9.19,1.79-16.24,2.25-20.26l.27-2.37c2.28-19.37,19.31-19,19.31-19l0,2.37.08,3.77Z"/><path class="cls-10" d="M370.49,437.24q-5.4,4.26-11.07,8.16l-.25.18-.76.52-.42.28c-1.19.82-2.42,1.63-3.63,2.42a2.17,2.17,0,0,1-.32.21,1.51,1.51,0,0,1-.26.18l-.28.17-.47.31-1.11.7c-.2.14-.42.27-.62.4l-.93.58-.92.57-.15.09-.36.23-.05,0-1.82,1.1,1.13-55.49,0-1.21,0-1.86,0-1.34s17-.35,19.32,19C368,415.79,369,424.71,370.49,437.24Z"/><path class="cls-11" d="M370.49,437.24q-5.4,4.26-11.07,8.16l-.25.18-.76.52-.42.28c-1.19.82-2.42,1.63-3.63,2.42a2.17,2.17,0,0,1-.32.21,1.51,1.51,0,0,1-.26.18l-.28.17-.47.31-1.11.7c-.2.14-.42.27-.62.4l-.93.58-.92.57-.15.09-.36.23-.05,0-1.82,1.1,1.13-55.49,0-1.21,0-1.86,0-1.34s17-.35,19.32,19C368,415.79,369,424.71,370.49,437.24Z"/><path class="cls-10" d="M230,416.48S183.3,415.6,163.91,387l9.25-17.62,58.59,11.45Z"/><path class="cls-11" d="M163.91,387l9.25-17.62,58.59,11.45L230,416.48S183.3,415.6,163.91,387Z"/><path class="cls-10" d="M291.21,386.53c-45.68,49.89-97.86,21.16-97.86,21.16l-5-27.33,88.82-11.45Z"/><path class="cls-12" d="M291.21,386.53l-14-17.62-88.82,11.45,5,27.33S245.53,436.42,291.21,386.53Z"/><path class="cls-10" d="M329.74,166.61c-117.71-14.75-203.72,0-203.72,0L127.78,3.13l201,1.92Z"/><path class="cls-13" d="M126,166.61s86-14.75,203.72,0V2.49l-202,.64Z"/><path class="cls-14" d="M130,168l15.7-2.41s-5.44,73-17.85,66.92S130,168,130,168Z"/><path class="cls-8" d="M130,168s-14.55,58.38-2.15,64.51,17.85-66.92,17.85-66.92Z"/><path class="cls-14" d="M325.06,167.4,309.36,165s5.43,73,17.84,66.92S325.06,167.4,325.06,167.4Z"/><path class="cls-8" d="M325.06,167.4s14.55,58.38,2.14,64.51S309.36,165,309.36,165Z"/><path class="cls-4" d="M126,166.61s92.88,15.68,201.57.73C327.59,167.34,223.77,142.78,126,166.61Z"/><path d="M161.85,118.17a2.33,2.33,0,0,1-2.33,2.33h0a2.33,2.33,0,0,1-2.34-2.33V5.5a2.33,2.33,0,0,1,2.34-2.33h0a2.33,2.33,0,0,1,2.33,2.33Z"/><path d="M230.18,117.83a2.33,2.33,0,0,1-2.33,2.34h0a2.33,2.33,0,0,1-2.33-2.34V5.17a2.33,2.33,0,0,1,2.33-2.34h0a2.33,2.33,0,0,1,2.33,2.34Z"/><path class="cls-15" d="M299.85,117.5a2.33,2.33,0,0,1-2.33,2.33h0a2.33,2.33,0,0,1-2.34-2.33V4.83a2.34,2.34,0,0,1,2.34-2.33h0a2.33,2.33,0,0,1,2.33,2.33Z"/><path d="M266.18,117.83a2.33,2.33,0,0,1-2.33,2.34h0a2.33,2.33,0,0,1-2.33-2.34V5.17a2.33,2.33,0,0,1,2.33-2.34h0a2.33,2.33,0,0,1,2.33,2.34Z"/><path d="M195.52,115.83a2.34,2.34,0,0,1-2.34,2.34h0a2.33,2.33,0,0,1-2.33-2.34V3.17A2.33,2.33,0,0,1,193.18.83h0a2.34,2.34,0,0,1,2.34,2.34Z"/><rect class="cls-16" x="128.88" y="115.73" width="198.35" height="6.79"/><path class="cls-10" d="M347.76,393.18l0,1.58-.06,2.84,0,1.58-1.12,54.52a4.65,4.65,0,0,1-.41.26l-1,.61-1.28.74-.54.32-.59.33-.11.07-.16.08-.25.14-.28.16c-1.7.95-3.39,1.89-5.11,2.8q-6.69,3.56-13.68,6.66l-1.71.78c-.14.07-.3.13-.45.19-1,.44-2,.87-3,1.29l-.62.26-3.08,1.26-.23.08-1.49.58q-2.62,1-5.27,2-6.73,2.43-13.65,4.43-6.29,1.81-12.73,3.29c-1.85.42-3.69.82-5.56,1.19-1.33.27-2.68.53-4,.76-.75.15-1.5.28-2.26.41-2.77.48-5.54.91-8.35,1.27l-.35.05c-.26,0-.5.07-.76.09s-.71.1-1.06.14-.59.08-.91.11l-.24,0h-.12l-.17,0c-1.37.16-2.73.3-4.11.44-2.8.28-5.63.51-8.46.67l-1.83.11c-1.15.06-2.29.12-3.42.16l-3.57.12-1,0h-.25l-.73,0c-1.18,0-2.37,0-3.56,0h-.74c-.45,0-.88,0-1.31,0h-.37c-2.31,0-4.62-.08-6.9-.18l-.58,0-.83,0c-1.38-.05-2.74-.13-4.09-.21s-3-.21-4.43-.33c-2.67-.22-5.32-.49-8-.8l-.65-.09h-.19l-.74-.1c-.75-.1-1.5-.19-2.23-.3-.17,0-.33,0-.5-.06l-.88-.13c-1.42-.2-2.84-.41-4.25-.65l-.21,0q-5.78-.93-11.49-2.18c-6.16-1.33-12.21-2.92-18.19-4.74q-5.59-1.71-11.08-3.69l-1.18-.43c-1.22-.45-2.45-.91-3.66-1.38q-2.4-.93-4.75-1.91l-.06,0c-1-.43-2.06-.86-3.1-1.31-1.27-.55-2.54-1.11-3.82-1.69q-6.54-3-12.87-6.36-3.78-2-7.47-4.18l-1-.57c-.46-.27-1-.55-1.42-.84s-1-.57-1.44-.87h0l-.44-.27-1.05-51.65-.08-3.77,0-2.37,54.36-5.69s.64.72,1.86,1.93l.3.29A98.55,98.55,0,0,0,193,409.15C215.92,419.83,250.65,424.44,290,390c1-.83,1.89-1.68,2.84-2.55Z"/><path class="cls-11" d="M292.8,387.42l55,5.76,0,1.58-.06,2.84,0,1.58-1.12,54.52s-103.18,76-235.26-1.45l-1.05-51.65-.08-3.77,0-2.37,54.36-5.69s.64.72,1.86,1.93l.3.29A98.55,98.55,0,0,0,193,409.15C215.92,419.83,250.65,424.44,290,390,290.91,389.14,291.85,388.29,292.8,387.42Z"/><path class="cls-17" d="M225.54,459.43a10,10,0,1,1-10-10A10,10,0,0,1,225.54,459.43Z"/><path class="cls-17" d="M271.13,460.33a10,10,0,1,1-10-10A10,10,0,0,1,271.13,460.33Z"/><path d="M195.08,481.18c0,.85-1,1.53-2.2,1.53h0c-1.21,0-2.2-.68-2.2-1.53V408.36c0-.84,1-1.53,2.2-1.53h0c1.22,0,2.2.69,2.2,1.53Z"/></g></g></svg>