<svg width="24" height="19" viewBox="0 0 24 19" fill="none" xmlns="http://www.w3.org/2000/svg">
<path d="M2.00001 7.49996L1.11626 8.38371L0.232513 7.49996L1.11626 6.61621L2.00001 7.49996ZM23.25 17.5C23.25 17.8315 23.1183 18.1494 22.8839 18.3838C22.6495 18.6183 22.3315 18.75 22 18.75C21.6685 18.75 21.3505 18.6183 21.1161 18.3838C20.8817 18.1494 20.75 17.8315 20.75 17.5H23.25ZM7.36626 14.6337L1.11626 8.38371L2.88376 6.61621L9.13376 12.8662L7.36626 14.6337ZM1.11626 6.61621L7.36626 0.366211L9.13376 2.13371L2.88376 8.38371L1.11626 6.61621ZM2.00001 6.24996H14.5V8.74996H2.00001V6.24996ZM23.25 15V17.5H20.75V15H23.25ZM14.5 6.24996C16.8207 6.24996 19.0463 7.17183 20.6872 8.81278C22.3281 10.4537 23.25 12.6793 23.25 15H20.75C20.75 13.3424 20.0915 11.7526 18.9194 10.5805C17.7473 9.40844 16.1576 8.74996 14.5 8.74996V6.24996Z" fill="black"/>
</svg>
