<svg width="38" height="38" viewBox="0 0 38 38" fill="none" xmlns="http://www.w3.org/2000/svg">
<path d="M19 3.5625C10.4745 3.5625 3.5625 10.4745 3.5625 19C3.5625 27.5255 10.4745 34.4375 19 34.4375C27.5255 34.4375 34.4375 27.5255 34.4375 19C34.4375 10.4745 27.5255 3.5625 19 3.5625ZM21.6207 25.2856C21.7356 25.3948 21.8275 25.5258 21.8909 25.6711C21.9544 25.8163 21.9881 25.9728 21.9902 26.1313C21.9922 26.2898 21.9625 26.4471 21.9027 26.5939C21.843 26.7407 21.7545 26.8741 21.6424 26.9862C21.5304 27.0983 21.397 27.1868 21.2502 27.2465C21.1033 27.3062 20.946 27.3359 20.7875 27.3339C20.6291 27.3319 20.4726 27.2981 20.3273 27.2347C20.1821 27.1712 20.051 27.0793 19.9418 26.9644L12.8168 19.8394C12.5943 19.6167 12.4693 19.3148 12.4693 19C12.4693 18.6852 12.5943 18.3833 12.8168 18.1606L19.9418 11.0356C20.1663 10.8223 20.4653 10.7051 20.775 10.7091C21.0846 10.7131 21.3805 10.8378 21.5994 11.0568C21.8184 11.2758 21.9432 11.5716 21.9472 11.8813C21.9511 12.1909 21.834 12.4899 21.6207 12.7144L15.3358 19L21.6207 25.2856Z" fill="#FFF70C"/>
</svg>
