<svg width="34" height="34" viewBox="0 0 34 34" fill="none" xmlns="http://www.w3.org/2000/svg">
<path d="M0.75 17C0.75 25.9742 8.02578 33.25 17 33.25C25.9742 33.25 33.25 25.9742 33.25 17C33.25 8.02578 25.9742 0.75 17 0.75C8.02578 0.75 0.75 8.02578 0.75 17ZM17.3633 9.8625C17.4798 9.97811 17.5725 10.1156 17.6359 10.267C17.6994 10.4184 17.7324 10.5809 17.733 10.745C17.7337 10.9092 17.702 11.0719 17.6397 11.2238C17.5775 11.3758 17.486 11.5139 17.3703 11.6305L13.2828 15.75H23.7188C24.0503 15.75 24.3682 15.8817 24.6026 16.1161C24.8371 16.3505 24.9688 16.6685 24.9688 17C24.9688 17.3315 24.8371 17.6495 24.6026 17.8839C24.3682 18.1183 24.0503 18.25 23.7188 18.25H13.2828L17.3703 22.3695C17.4859 22.4862 17.5775 22.6245 17.6396 22.7765C17.7018 22.9285 17.7335 23.0913 17.7327 23.2555C17.732 23.4198 17.6989 23.5823 17.6354 23.7337C17.5719 23.8852 17.4792 24.0227 17.3625 24.1383C17.2458 24.2539 17.1076 24.3454 16.9555 24.4076C16.8035 24.4698 16.6407 24.5014 16.4765 24.5007C16.3123 24.5 16.1498 24.4669 15.9983 24.4034C15.8468 24.3399 15.7094 24.2471 15.5938 24.1305L9.39141 17.8805C9.15907 17.6463 9.02869 17.3299 9.02869 17C9.02869 16.6701 9.15907 16.3537 9.39141 16.1195L15.5938 9.86953C15.7094 9.75273 15.8469 9.65988 15.9985 9.59631C16.1501 9.53273 16.3127 9.49967 16.4771 9.49901C16.6414 9.49836 16.8043 9.53013 16.9564 9.5925C17.1084 9.65487 17.2467 9.74662 17.3633 9.8625Z" fill="black"/>
</svg>
