<?xml version="1.0" encoding="utf-8"?>
<!-- Generator: Adobe Illustrator 23.0.0, SVG Export Plug-In . SVG Version: 6.00 Build 0)  -->
<svg version="1.1" id="Layer_1" xmlns="http://www.w3.org/2000/svg" xmlns:xlink="http://www.w3.org/1999/xlink" x="0px" y="0px"
	 viewBox="0 0 35.4 35.2" style="enable-background:new 0 0 35.4 35.2;" xml:space="preserve">
<title>facebook</title>
<g>
	<g id="ELEMENTS">
		<path d="M35.4,17.7C35.4,7.9,27.5,0,17.7,0S0,7.9,0,17.7c0,8.7,6.3,16.1,14.9,17.5V22.8h-4.5v-5.1h4.5v-3.9c0-4.4,2.6-6.9,6.7-6.9
			c1.3,0,2.7,0.1,4,0.3v4.4h-2.3c-1.4-0.2-2.7,0.8-2.9,2.2c0,0.2,0,0.4,0,0.6v3.3h4.9l-0.8,5.1h-4.1v12.4
			C29,33.8,35.4,26.4,35.4,17.7z"/>
	</g>
</g>
</svg>
