<svg width="152" height="31" viewBox="0 0 152 31" fill="none" xmlns="http://www.w3.org/2000/svg">
<path d="M29.233 21V10.8182H35.3381V11.9119H30.4659V15.3523H34.8807V16.446H30.4659V21H29.233ZM39.9318 21.1591C39.196 21.1591 38.5613 20.9967 38.0277 20.6719C37.4974 20.3438 37.0881 19.8864 36.7997 19.2997C36.5147 18.7098 36.3722 18.0237 36.3722 17.2415C36.3722 16.4593 36.5147 15.7699 36.7997 15.1733C37.0881 14.5734 37.4891 14.1061 38.0028 13.7713C38.5199 13.4332 39.1231 13.2642 39.8125 13.2642C40.2102 13.2642 40.603 13.3305 40.9908 13.4631C41.3786 13.5956 41.7315 13.8111 42.0497 14.1094C42.3679 14.4044 42.6214 14.7955 42.8104 15.2827C42.9993 15.7699 43.0938 16.3698 43.0938 17.0824V17.5795H37.2074V16.5653H41.9006C41.9006 16.1345 41.8144 15.75 41.642 15.4119C41.473 15.0739 41.2311 14.8071 40.9162 14.6115C40.6046 14.416 40.2367 14.3182 39.8125 14.3182C39.3452 14.3182 38.9408 14.4342 38.5994 14.6662C38.2614 14.8949 38.0012 15.1932 37.8189 15.5611C37.6366 15.929 37.5455 16.3234 37.5455 16.7443V17.4205C37.5455 17.9972 37.6449 18.486 37.8438 18.8871C38.0459 19.2848 38.326 19.5881 38.6839 19.7969C39.0419 20.0024 39.4579 20.1051 39.9318 20.1051C40.2401 20.1051 40.5185 20.062 40.767 19.9759C41.0189 19.8864 41.236 19.7538 41.4183 19.5781C41.6006 19.3991 41.7415 19.1771 41.8409 18.9119L42.9744 19.2301C42.8551 19.6146 42.6546 19.9527 42.3729 20.2443C42.0911 20.5327 41.7431 20.758 41.3288 20.9205C40.9145 21.0795 40.4489 21.1591 39.9318 21.1591ZM48.0803 21.1591C47.3445 21.1591 46.7098 20.9967 46.1761 20.6719C45.6458 20.3438 45.2365 19.8864 44.9482 19.2997C44.6631 18.7098 44.5206 18.0237 44.5206 17.2415C44.5206 16.4593 44.6631 15.7699 44.9482 15.1733C45.2365 14.5734 45.6375 14.1061 46.1513 13.7713C46.6683 13.4332 47.2715 13.2642 47.9609 13.2642C48.3587 13.2642 48.7514 13.3305 49.1392 13.4631C49.527 13.5956 49.88 13.8111 50.1982 14.1094C50.5163 14.4044 50.7699 14.7955 50.9588 15.2827C51.1477 15.7699 51.2422 16.3698 51.2422 17.0824V17.5795H45.3558V16.5653H50.049C50.049 16.1345 49.9628 15.75 49.7905 15.4119C49.6214 15.0739 49.3795 14.8071 49.0646 14.6115C48.7531 14.416 48.3852 14.3182 47.9609 14.3182C47.4936 14.3182 47.0893 14.4342 46.7479 14.6662C46.4098 14.8949 46.1496 15.1932 45.9673 15.5611C45.785 15.929 45.6939 16.3234 45.6939 16.7443V17.4205C45.6939 17.9972 45.7933 18.486 45.9922 18.8871C46.1944 19.2848 46.4744 19.5881 46.8324 19.7969C47.1903 20.0024 47.6063 20.1051 48.0803 20.1051C48.3885 20.1051 48.6669 20.062 48.9155 19.9759C49.1674 19.8864 49.3845 19.7538 49.5668 19.5781C49.7491 19.3991 49.8899 19.1771 49.9893 18.9119L51.1229 19.2301C51.0036 19.6146 50.803 19.9527 50.5213 20.2443C50.2396 20.5327 49.8916 20.758 49.4773 20.9205C49.063 21.0795 48.5973 21.1591 48.0803 21.1591ZM55.9105 21.1591C55.2741 21.1591 54.7124 20.9983 54.2251 20.6768C53.7379 20.352 53.3568 19.8946 53.0817 19.3047C52.8066 18.7114 52.669 18.0104 52.669 17.2017C52.669 16.3996 52.8066 15.7036 53.0817 15.1136C53.3568 14.5237 53.7396 14.0679 54.2301 13.7464C54.7206 13.425 55.2874 13.2642 55.9304 13.2642C56.4276 13.2642 56.8203 13.3471 57.1087 13.5128C57.4003 13.6752 57.6224 13.8608 57.7749 14.0696C57.9306 14.2751 58.0516 14.4441 58.1378 14.5767H58.2372V10.8182H59.4105V21H58.277V19.8267H58.1378C58.0516 19.9659 57.929 20.1416 57.7699 20.3537C57.6108 20.5625 57.3838 20.7498 57.0888 20.9155C56.7938 21.0779 56.401 21.1591 55.9105 21.1591ZM56.0696 20.1051C56.5402 20.1051 56.938 19.9825 57.2628 19.7372C57.5876 19.4886 57.8345 19.1456 58.0036 18.7081C58.1726 18.2673 58.2571 17.7585 58.2571 17.1818C58.2571 16.6117 58.1742 16.1129 58.0085 15.6854C57.8428 15.2545 57.5975 14.9197 57.2727 14.6811C56.9479 14.4392 56.5469 14.3182 56.0696 14.3182C55.5724 14.3182 55.1581 14.4458 54.8267 14.701C54.4986 14.9529 54.2517 15.2959 54.0859 15.7301C53.9235 16.161 53.8423 16.6449 53.8423 17.1818C53.8423 17.7254 53.9252 18.2192 54.0909 18.6634C54.2599 19.1042 54.5085 19.4555 54.8366 19.7173C55.1681 19.9759 55.5791 20.1051 56.0696 20.1051ZM61.8814 21V10.8182H63.0547V14.5767H63.1541C63.2403 14.4441 63.3596 14.2751 63.5121 14.0696C63.6679 13.8608 63.8899 13.6752 64.1783 13.5128C64.4699 13.3471 64.8643 13.2642 65.3615 13.2642C66.0045 13.2642 66.5713 13.425 67.0618 13.7464C67.5523 14.0679 67.9351 14.5237 68.2102 15.1136C68.4853 15.7036 68.6229 16.3996 68.6229 17.2017C68.6229 18.0104 68.4853 18.7114 68.2102 19.3047C67.9351 19.8946 67.554 20.352 67.0668 20.6768C66.5795 20.9983 66.0178 21.1591 65.3814 21.1591C64.8909 21.1591 64.4981 21.0779 64.2031 20.9155C63.9081 20.7498 63.6811 20.5625 63.522 20.3537C63.3629 20.1416 63.2403 19.9659 63.1541 19.8267H63.0149V21H61.8814ZM63.0348 17.1818C63.0348 17.7585 63.1193 18.2673 63.2884 18.7081C63.4574 19.1456 63.7043 19.4886 64.0291 19.7372C64.3539 19.9825 64.7517 20.1051 65.2223 20.1051C65.7128 20.1051 66.1222 19.9759 66.4503 19.7173C66.7817 19.4555 67.0303 19.1042 67.196 18.6634C67.3651 18.2192 67.4496 17.7254 67.4496 17.1818C67.4496 16.6449 67.3667 16.161 67.201 15.7301C67.0386 15.2959 66.7917 14.9529 66.4602 14.701C66.1321 14.4458 65.7195 14.3182 65.2223 14.3182C64.745 14.3182 64.344 14.4392 64.0192 14.6811C63.6944 14.9197 63.4491 15.2545 63.2834 15.6854C63.1177 16.1129 63.0348 16.6117 63.0348 17.1818ZM72.6648 21.179C72.1809 21.179 71.7417 21.0878 71.3473 20.9055C70.9529 20.7199 70.6397 20.4531 70.4077 20.1051C70.1757 19.7538 70.0597 19.3295 70.0597 18.8324C70.0597 18.3949 70.1458 18.0402 70.3182 17.7685C70.4905 17.4934 70.7209 17.2779 71.0092 17.1222C71.2976 16.9664 71.6158 16.8504 71.9638 16.7741C72.3151 16.6946 72.6681 16.6316 73.0227 16.5852C73.4867 16.5256 73.8629 16.4808 74.1513 16.451C74.4429 16.4179 74.6551 16.3632 74.7876 16.2869C74.9235 16.2107 74.9915 16.0781 74.9915 15.8892V15.8494C74.9915 15.3589 74.8572 14.9777 74.5888 14.706C74.3236 14.4342 73.9209 14.2983 73.3807 14.2983C72.8205 14.2983 72.3814 14.4209 72.0632 14.6662C71.745 14.9115 71.5213 15.1733 71.392 15.4517L70.2784 15.054C70.4773 14.59 70.7424 14.2287 71.0739 13.9702C71.4086 13.7083 71.7732 13.526 72.1676 13.4233C72.5653 13.3172 72.9564 13.2642 73.3409 13.2642C73.5862 13.2642 73.8679 13.294 74.1861 13.3537C74.5076 13.41 74.8175 13.5277 75.1158 13.7067C75.4174 13.8857 75.6676 14.1558 75.8665 14.517C76.0653 14.8783 76.1648 15.3622 76.1648 15.9688V21H74.9915V19.9659H74.9318C74.8523 20.1316 74.7197 20.3089 74.5341 20.4979C74.3485 20.6868 74.1016 20.8475 73.7933 20.9801C73.4851 21.1127 73.1089 21.179 72.6648 21.179ZM72.8438 20.125C73.3078 20.125 73.6989 20.0339 74.017 19.8516C74.3385 19.6693 74.5805 19.4339 74.7429 19.1456C74.9086 18.8572 74.9915 18.554 74.9915 18.2358V17.1619C74.9418 17.2216 74.8324 17.2763 74.6634 17.326C74.4976 17.3724 74.3054 17.4138 74.0866 17.4503C73.8712 17.4834 73.6607 17.5133 73.4553 17.5398C73.2531 17.563 73.089 17.5829 72.9631 17.5994C72.6581 17.6392 72.3731 17.7038 72.108 17.7933C71.8461 17.8795 71.634 18.0104 71.4716 18.1861C71.3125 18.3584 71.233 18.5937 71.233 18.892C71.233 19.2997 71.3838 19.608 71.6854 19.8168C71.9903 20.0223 72.3764 20.125 72.8438 20.125ZM81.4086 21.1591C80.6926 21.1591 80.0762 20.9901 79.5591 20.652C79.0421 20.3139 78.6444 19.8482 78.3659 19.255C78.0875 18.6617 77.9483 17.9839 77.9483 17.2216C77.9483 16.446 78.0908 15.7616 78.3759 15.1683C78.6642 14.5717 79.0653 14.1061 79.579 13.7713C80.0961 13.4332 80.6993 13.2642 81.3887 13.2642C81.9256 13.2642 82.4095 13.3636 82.8404 13.5625C83.2712 13.7614 83.6242 14.0398 83.8993 14.3977C84.1744 14.7557 84.3451 15.1733 84.4114 15.6506H83.2381C83.1486 15.3026 82.9498 14.9943 82.6415 14.7259C82.3366 14.4541 81.9256 14.3182 81.4086 14.3182C80.9512 14.3182 80.5501 14.4375 80.2054 14.6761C79.8641 14.9115 79.5972 15.2446 79.405 15.6754C79.2161 16.103 79.1216 16.6051 79.1216 17.1818C79.1216 17.7718 79.2144 18.2855 79.4 18.723C79.589 19.1605 79.8541 19.5002 80.1955 19.7422C80.5402 19.9841 80.9445 20.1051 81.4086 20.1051C81.7135 20.1051 81.9902 20.0521 82.2388 19.946C82.4874 19.84 82.6979 19.6875 82.8702 19.4886C83.0426 19.2898 83.1652 19.0511 83.2381 18.7727H84.4114C84.3451 19.2235 84.181 19.6295 83.9192 19.9908C83.6607 20.3487 83.3176 20.6338 82.8901 20.8459C82.4659 21.0547 81.972 21.1591 81.4086 21.1591ZM87.2203 18.2159L87.2005 16.7642H87.4391L90.78 13.3636H92.2317L88.6721 16.9631H88.5726L87.2203 18.2159ZM86.1266 21V10.8182H87.2999V21H86.1266ZM90.9789 21L87.9959 17.2216L88.8311 16.4062L92.4703 21H90.9789Z" fill="black"/>
<rect x="0.5" y="0.5" width="151" height="30" stroke="black"/>
<path d="M105 23V9H123V23H105ZM114 16.116L106 10.885V22H122V10.885L114 16.116ZM114 15L121.692 10H106.308L114 15ZM106 10.885V10V22V10.885Z" fill="black"/>
</svg>
