<svg width="28" height="18" viewBox="0 0 28 18" fill="none" xmlns="http://www.w3.org/2000/svg">
<path d="M2.00001 18C1.57501 18 1.21901 17.856 0.932005 17.568C0.645005 17.28 0.501005 16.924 0.500005 16.5C0.499005 16.076 0.643005 15.72 0.932005 15.432C1.22101 15.144 1.57701 15 2.00001 15H26C26.425 15 26.7815 15.144 27.0695 15.432C27.3575 15.72 27.501 16.076 27.5 16.5C27.499 16.924 27.355 17.2805 27.068 17.5695C26.781 17.8585 26.425 18.002 26 18H2.00001ZM2.00001 10.5C1.57501 10.5 1.21901 10.356 0.932005 10.068C0.645005 9.78 0.501005 9.424 0.500005 9C0.499005 8.576 0.643005 8.22 0.932005 7.932C1.22101 7.644 1.57701 7.5 2.00001 7.5H26C26.425 7.5 26.7815 7.644 27.0695 7.932C27.3575 8.22 27.501 8.576 27.5 9C27.499 9.424 27.355 9.7805 27.068 10.0695C26.781 10.3585 26.425 10.502 26 10.5H2.00001ZM2.00001 3C1.57501 3 1.21901 2.856 0.932005 2.568C0.645005 2.28 0.501005 1.924 0.500005 1.5C0.499005 1.076 0.643005 0.72 0.932005 0.432C1.22101 0.144 1.57701 0 2.00001 0H26C26.425 0 26.7815 0.144 27.0695 0.432C27.3575 0.72 27.501 1.076 27.5 1.5C27.499 1.924 27.355 2.2805 27.068 2.5695C26.781 2.8585 26.425 3.002 26 3H2.00001Z" fill="black"/>
</svg>
