<svg width="28" height="28" viewBox="0 0 28 28" fill="none" xmlns="http://www.w3.org/2000/svg">
<path d="M14 5.24988H15.9099V7.15978H14V5.24988Z" fill="black"/>
<path d="M0.875 27.125H27.125V0.875H0.875V27.125ZM2.625 2.625H25.375V25.375H2.625V2.625Z" fill="black"/>
<path d="M15.6031 19.6346C15.5159 19.7835 15.3913 19.9071 15.2417 19.9931C15.092 20.0791 14.9225 20.1245 14.7499 20.1249C14.5964 20.1249 14.445 20.0891 14.3077 20.0204C14.1704 19.9516 14.0511 19.8519 13.9591 19.7289C13.8671 19.606 13.805 19.4633 13.7778 19.3122C13.7506 19.1611 13.759 19.0058 13.8024 18.8585L15.7531 12.2262C15.9493 11.5603 15.8827 10.8446 15.5669 10.2264C15.2511 9.60822 14.7103 9.1347 14.0558 8.90341C13.4013 8.67212 12.6831 8.70066 12.049 8.98317C11.4149 9.26567 10.9134 9.78062 10.6477 10.4219L10.0068 11.9659L11.6232 12.6367L12.2641 11.0926C12.358 10.8649 12.5359 10.682 12.7608 10.5816C12.9858 10.4812 13.2407 10.471 13.4729 10.5531C13.7052 10.6352 13.897 10.8034 14.0089 11.0228C14.1208 11.2423 14.1442 11.4963 14.0742 11.7325L12.1235 18.3648C12.0034 18.773 11.9802 19.2036 12.0556 19.6224C12.131 20.0412 12.3029 20.4367 12.5579 20.7774C12.8128 21.1181 13.1436 21.3947 13.5241 21.5852C13.9045 21.7757 14.3242 21.875 14.7497 21.875C15.2282 21.8741 15.6981 21.7482 16.113 21.5098C16.5278 21.2714 16.8732 20.9288 17.1149 20.5158L17.9407 19.0987L16.4288 18.2174L15.6031 19.6346Z" fill="black"/>
</svg>
