<svg width="32" height="34" viewBox="0 0 32 34" fill="none" xmlns="http://www.w3.org/2000/svg">
<path d="M24.2162 33.3126V27.9376H18.8412V26.1459H24.2162V20.7709H26.0079V26.1459H31.3829V27.9376H26.0079V33.3126H24.2162ZM7.54295 22.6307C7.93353 22.6307 8.26081 22.4987 8.52478 22.2347C8.78756 21.9707 8.91895 21.6429 8.91895 21.2511C8.91895 20.8593 8.78636 20.532 8.5212 20.2692C8.25603 20.0065 7.92816 19.8751 7.53757 19.8751C7.14699 19.8751 6.81971 20.0077 6.55574 20.2728C6.29177 20.538 6.16038 20.8659 6.16157 21.2565C6.16277 21.647 6.29535 21.9737 6.55932 22.2365C6.82329 22.4993 7.15117 22.6307 7.54295 22.6307ZM7.54295 15.8779C7.93353 15.8779 8.26081 15.7459 8.52478 15.4819C8.78756 15.2168 8.91895 14.8883 8.91895 14.4965C8.91895 14.1047 8.78636 13.778 8.5212 13.5165C8.25603 13.2549 7.92816 13.1235 7.53757 13.1223C7.14699 13.1211 6.81971 13.2531 6.55574 13.5182C6.29177 13.7834 6.16038 14.1119 6.16157 14.5037C6.16277 14.8954 6.29535 15.2221 6.55932 15.4837C6.82329 15.7453 7.15117 15.8767 7.54295 15.8779ZM7.54295 9.12508C7.93353 9.12508 8.26081 8.9931 8.52478 8.72912C8.78756 8.46396 8.91895 8.13548 8.91895 7.74371C8.91895 7.35193 8.78636 7.02525 8.5212 6.76367C8.25603 6.50208 7.92816 6.37069 7.53757 6.3695C7.14699 6.3683 6.81971 6.50029 6.55574 6.76546C6.29296 7.03062 6.16157 7.3585 6.16157 7.74908C6.16157 8.13967 6.29416 8.46694 6.55932 8.73092C6.82449 8.99489 7.15236 9.12628 7.54295 9.12508ZM13.0523 15.3959H22.7004V13.6042H13.0523V15.3959ZM13.0523 8.64133H22.7004V6.84966H13.0523V8.64133ZM0.166656 28.8334V0.166748H28.8333V17.9759C28.266 17.7287 27.6628 17.5429 27.0237 17.4187C26.3835 17.2945 25.7463 17.2324 25.112 17.2324C23.6871 17.2324 22.3559 17.5095 21.1184 18.0637C19.8822 18.6167 18.8203 19.3812 17.9328 20.357H13.0523V22.1487H16.6428C16.2045 22.8773 15.864 23.6495 15.6216 24.4653C15.3791 25.2811 15.2579 26.1399 15.2579 27.0417C15.2579 27.3404 15.2734 27.639 15.3044 27.9376C15.3355 28.2362 15.3881 28.5348 15.4621 28.8334H0.166656Z" fill="black"/>
</svg>
