<?xml version="1.0" encoding="utf-8"?>
<!-- Generator: Adobe Illustrator 23.0.0, SVG Export Plug-In . SVG Version: 6.00 Build 0)  -->
<svg version="1.1" id="Layer_1" xmlns="http://www.w3.org/2000/svg" xmlns:xlink="http://www.w3.org/1999/xlink" x="0px" y="0px"
	 viewBox="0 0 28 28" style="enable-background:new 0 0 28 28;" xml:space="preserve">
<style type="text/css">
	.st0{fill:#FFF70C;}
</style>
<path class="st0" d="M8.8,12.3H7v-1.8h1.8V12.3z M21,12.3H10.5v-1.8H21V12.3z M7,15.8h1.8v1.8H7V15.8z M10.5,15.8H21v1.8H10.5V15.8z
	 M8.8,7H7V5.3h1.8V7z M21,7H10.5V5.3H21V7z M28,22.8v1.8h-3.5V28h-1.8v-3.5h-3.5v-1.8h3.5v-3.5h1.8v3.5H28z M5.3,22.8h12.3v1.8h-14
	V0h21v17.5h-1.8V1.8H5.3V22.8z"/>
</svg>
