<svg xmlns="http://www.w3.org/2000/svg" viewBox="0 0 35.38 35.38"><defs><style>.cls-1{fill:#dadd97;}</style></defs><title>instagram</title><g id="Layer_2" data-name="Layer 2"><g id="ELEMENTS"><path class="cls-1" d="M27.06,6.32a2.08,2.08,0,1,0,2.07,2.07A2.08,2.08,0,0,0,27.06,6.32Z"/><path class="cls-1" d="M17.84,9a8.71,8.71,0,1,0,8.71,8.71A8.73,8.73,0,0,0,17.84,9Zm0,14.29a5.58,5.58,0,1,1,5.58-5.58A5.59,5.59,0,0,1,17.84,23.27Z"/><path class="cls-1" d="M24.75,35.38H10.63A10.64,10.64,0,0,1,0,24.75V10.63A10.64,10.64,0,0,1,10.63,0H24.75A10.64,10.64,0,0,1,35.38,10.63V24.75A10.64,10.64,0,0,1,24.75,35.38ZM10.63,3.33a7.3,7.3,0,0,0-7.3,7.3V24.75a7.3,7.3,0,0,0,7.3,7.3H24.75a7.3,7.3,0,0,0,7.3-7.3V10.63a7.3,7.3,0,0,0-7.3-7.3Z"/></g></g></svg>