<svg xmlns="http://www.w3.org/2000/svg" viewBox="0 0 708 291.13"><defs><style>.cls-1{fill:#fff;}</style></defs><title>logo</title><g id="Layer_2" data-name="Layer 2"><g id="Layer_1-2" data-name="Layer 1"><path d="M0,233.46V71.74C0,56.38,10.14,48.26,30.14,48.26H113V94.63H60.86a.62.62,0,0,0-.58.58v10.73h52.17v46.37H60.28v81.15Z"/><path d="M453,233.46c-20.86,0-30.14-7.53-30.14-22.9V71.74c0-15.65,10.15-23.48,30.14-23.48h44.93V1.89h60.28V233.46Zm121.9,57.67V245.05h72.29a.62.62,0,0,0,.58-.58v-11H602.79c-20,0-30.14-7.53-30.14-22.9V48.26h60.28V186.8a.63.63,0,0,0,.58.58h14.21V48.26H708v220c0,15.36-10.14,22.89-30.14,22.89Zm-77-196.5h-14.2a.62.62,0,0,0-.58.58V186.8a.62.62,0,0,0,.58.58h14.2Z"/><path d="M345.79,35.74l5.9-18.12h-20.1L338,35.71a67.26,67.26,0,0,0-63.63,67h36.68a30.56,30.56,0,0,1,61.11,0V104h36.67v-1.26A67.25,67.25,0,0,0,345.79,35.74Z"/><path d="M362.22,116.86H273.57v93.7c0,15.37,10.14,22.9,30.14,22.9h75.06c20,0,30.14-7.53,30.14-22.9v-93.7Z"/><path d="M213.22,117.57H124.91v93.34c0,15.3,10.1,22.8,30,22.8H229.7c19.92,0,30-7.5,30-22.8V117.57Z"/><path d="M195.67,83.8a29.91,29.91,0,0,0-.65,5.33,8.88,8.88,0,0,0,.32,2.48c.23.76.69,1.62,1.06,2.51a7.65,7.65,0,0,1,.5,5.71,16.85,16.85,0,0,1-3.32,5.19c.09-1.84.48-3.65.56-5.39a10.54,10.54,0,0,0-1.25-5,13.79,13.79,0,0,1-1.06-2.75A6.13,6.13,0,0,1,192,89,10.79,10.79,0,0,1,195.67,83.8Z"/><path d="M218.45,92.6a18.22,18.22,0,0,0-.65,4.06,5.25,5.25,0,0,0,.32,1.89,21.83,21.83,0,0,0,1.07,1.92,4.58,4.58,0,0,1,.49,4.35,13.13,13.13,0,0,1-3.31,4c.09-1.4.47-2.78.56-4.1a6.59,6.59,0,0,0-1.26-3.81,9,9,0,0,1-1.06-2.1,3.75,3.75,0,0,1,.2-2.22A8.57,8.57,0,0,1,218.45,92.6Z"/><path d="M172.34,94.35a18.19,18.19,0,0,0-.64,4.06,5.25,5.25,0,0,0,.31,1.89c.24.58.7,1.24,1.07,1.92a4.56,4.56,0,0,1,.49,4.35,13,13,0,0,1-3.31,4c.09-1.4.47-2.78.56-4.1a6.57,6.57,0,0,0-1.25-3.81,9,9,0,0,1-1.06-2.1,3.68,3.68,0,0,1,.19-2.22A8.68,8.68,0,0,1,172.34,94.35Z"/><polygon class="cls-1" points="226.4 44.39 254.82 69.01 286.05 32.97 226.4 44.39"/><path d="M254,79.41,217,47.37,256.73,0l37.08,32.05Zm-23.52-33L253,65.86,280.26,33,257.72,13.56Z"/><path class="cls-1" d="M39.12,194.12v14.51l7.4,2.67v4.58l-33.08-12v-5l33.08-12v4.59Zm-3.54,1.24-16.8,6,16.8,6Z"/><path class="cls-1" d="M13.25,162.81h3.53v14.46H28V165.53h3.53v11.74h15v4.34H13.25Z"/><path class="cls-1" d="M46.52,140,32.91,148v5.25H46.52v4.35H13.25V146.82a14.42,14.42,0,0,1,1.28-6.38A9,9,0,0,1,18,136.55a9.68,9.68,0,0,1,5-1.29,9.79,9.79,0,0,1,6.06,2,9.77,9.77,0,0,1,3.49,5.95l13.94-8.36ZM29.43,153.21v-6.39a7.25,7.25,0,0,0-1.74-5.3A6.26,6.26,0,0,0,23,139.75a6,6,0,0,0-4.58,1.74q-1.62,1.74-1.62,5.33v6.39Z"/><path class="cls-1" d="M13.25,124.19H46.52v4.34H13.25Z"/></g></g></svg>