<svg xmlns="http://www.w3.org/2000/svg" viewBox="0 0 908.87 195.91"><defs><style>.cls-1{fill:#fff;}.cls-2{fill:#fff70c;}</style></defs><title>logo2</title><g id="Layer_2" data-name="Layer 2"><g id="Layer_1-2" data-name="Layer 1"><path class="cls-1" d="M243.19,118.14H185.94l-10.55,29.19H157.32l47.45-130.5h19.77l47.27,130.5H253.73Zm-4.9-13.94L214.56,37.92,190.84,104.2Z"/><path class="cls-1" d="M324.35,58.26H302.69v89.07H285.56V58.26H272.19V44.13h13.37V36.79q0-17.33,8.94-25.33t28.72-8V17.77q-11.3,0-15.91,4.42t-4.62,14.6v7.34h21.66Z"/><path class="cls-1" d="M364.18,47.15q8.37-4.9,20.43-4.9V60h-4.52q-28.81,0-28.81,31.26v56.12H334.14V44.13h17.14V60.89A32.79,32.79,0,0,1,364.18,47.15Z"/><path class="cls-1" d="M394.78,24a11.26,11.26,0,0,1-3.39-8.28,11.27,11.27,0,0,1,3.39-8.29A11.26,11.26,0,0,1,403.06,4a10.72,10.72,0,0,1,8,3.39,11.43,11.43,0,0,1,3.3,8.29,11.42,11.42,0,0,1-3.3,8.28,10.72,10.72,0,0,1-8,3.39A11.26,11.26,0,0,1,394.78,24Zm16.57,20.15v103.2H394.21V44.13Z"/><path class="cls-1" d="M472.36,58.26H450.7v89.07H433.57V58.26H420.2V44.13h13.37V36.79q0-17.33,8.94-25.33t28.72-8V17.77q-11.3,0-15.91,4.42t-4.62,14.6v7.34h21.66Z"/><path class="cls-1" d="M500.89,142.43a46.94,46.94,0,0,1-18.46-18.73q-6.69-12.15-6.68-28.16,0-15.81,6.87-28a47.41,47.41,0,0,1,18.74-18.65,57.55,57.55,0,0,1,53.1,0A47.61,47.61,0,0,1,573.2,67.48q6.87,12.06,6.87,28.06T573,123.7a49,49,0,0,1-19.11,18.73A54.76,54.76,0,0,1,527.16,149,52.74,52.74,0,0,1,500.89,142.43Zm43.59-12.8a33,33,0,0,0,13.09-13q5-8.66,5-21.09t-4.9-21.09a32.11,32.11,0,0,0-12.8-12.9,36.95,36.95,0,0,0-34.37,0A31.07,31.07,0,0,0,498,74.45q-4.71,8.67-4.71,21.09,0,12.61,4.61,21.28a30.63,30.63,0,0,0,12.34,12.9A34.58,34.58,0,0,0,527.16,134,36.14,36.14,0,0,0,544.48,129.63Z"/><path class="cls-1" d="M611.24,142.43a46.85,46.85,0,0,1-18.45-18.73q-6.69-12.15-6.69-28.16,0-15.81,6.87-28a47.41,47.41,0,0,1,18.74-18.65,57.57,57.57,0,0,1,53.11,0,47.65,47.65,0,0,1,18.73,18.55q6.87,12.06,6.88,28.06t-7.07,28.16a48.92,48.92,0,0,1-19.11,18.73A54.76,54.76,0,0,1,637.51,149,52.74,52.74,0,0,1,611.24,142.43Zm43.59-12.8a33,33,0,0,0,13.09-13q5-8.66,5-21.09T668,74.45a32.19,32.19,0,0,0-12.81-12.9,36.95,36.95,0,0,0-34.37,0,31.13,31.13,0,0,0-12.52,12.9q-4.71,8.67-4.71,21.09,0,12.61,4.62,21.28a30.55,30.55,0,0,0,12.33,12.9,34.61,34.61,0,0,0,17,4.24A36.12,36.12,0,0,0,654.83,129.63Z"/><path class="cls-1" d="M702.85,67.58A46.46,46.46,0,0,1,720.46,49a48.69,48.69,0,0,1,25.14-6.59A46.71,46.71,0,0,1,768,48a40.15,40.15,0,0,1,15.82,14.6V8h17.32V147.33H783.83v-19.4a40,40,0,0,1-15.07,15.16q-10,5.94-23.35,5.93a47,47,0,0,1-42.56-25.8,59.3,59.3,0,0,1-6.4-27.87Q696.45,79.54,702.85,67.58Zm76.27,7.62a33.26,33.26,0,0,0-12.71-13.27,36,36,0,0,0-35.12-.1A32.86,32.86,0,0,0,718.67,75Q714,83.68,714,95.35q0,11.87,4.7,20.62a33.38,33.38,0,0,0,12.62,13.38A34.16,34.16,0,0,0,748.8,134a34.69,34.69,0,0,0,17.61-4.61A33.12,33.12,0,0,0,779.12,116a42.44,42.44,0,0,0,4.71-20.43A42,42,0,0,0,779.12,75.2Z"/><path class="cls-1" d="M908.87,44.13,846.73,195.91H829l20.34-49.71L807.75,44.13h19l32.38,83.61,32-83.61Z"/><path class="cls-2" d="M7.28,57.07C1.8,54.55-.58,50.61.12,45.41c.64-4.72,4.18-8.17,9.74-8.79A65.4,65.4,0,0,1,21,36.47a771.83,771.83,0,0,0,96.91-.37A17.46,17.46,0,0,1,126.11,38c3.77,1.81,5.48,5.28,5.33,9.52S129,54.84,124.35,57c.94,3.46.42,4.21-3.16,4.46a789.22,789.22,0,0,1-110.89,0C6.69,61.2,6,60.16,7.28,57.07Zm3.26-4a5.27,5.27,0,0,0,4.55-7.18c-.38-.88-.84-1.73-1.13-2.64-.6-1.87-2-2.35-3.74-2.29A6.13,6.13,0,0,0,4.38,47.3,6,6,0,0,0,10.54,53.05Zm116.54-6a6.14,6.14,0,0,0-4.93-6c-2.58-.53-3.78.28-5.22,3.54a6.74,6.74,0,0,1-.5,1.09c-1.26,1.87-1,3.39.63,5,2.08,2.19,3.61,2.87,6,2A6.11,6.11,0,0,0,127.08,47Z"/><path class="cls-2" d="M104.47,116a89.09,89.09,0,0,1-29.65,8c-.65.06-1.58,1.19-1.74,2-.81,3.94-1.4,7.91-2.07,11.87-.54,3.24-2.6,5.24-5.33,5.2s-4.68-2-5.21-5.07c-.68-4-1.39-7.91-2-11.88-.21-1.38-.64-2.09-2.2-2.22a82.91,82.91,0,0,1-28.51-7.49,5.83,5.83,0,0,0-.87-.21Q23.42,125,20,133.8c-1.5,3.81-2.95,7.64-4.46,11.45-1.27,3.22-3.74,4.57-6.6,3.67s-4-3.49-3.23-6.83c2.62-10.68,5.3-21.35,7.87-32a20,20,0,0,0,0-4.27,759.52,759.52,0,0,0,104.41,0,22.15,22.15,0,0,0,0,4.83c2.47,10.39,5.08,20.75,7.62,31.12.89,3.61-.24,6.24-3,7.16-3.06,1-5.48-.44-6.94-4.19q-5.19-13.35-10.4-26.71C105.09,117.38,104.82,116.81,104.47,116Z"/><path class="cls-2" d="M3.05,84.51a863.72,863.72,0,0,0,125.33,0c.33,4.73-1,8.77-2.91,12.7a4.91,4.91,0,0,0-.69,2c.07,2.94-.18,3.24-3.08,3.46a741,741,0,0,1-78.57,1.72c-11.33-.34-22.64-1.15-34-1.76-1.95-.1-2.94-.94-2.66-3.08a4.62,4.62,0,0,0-.57-2.4A25.39,25.39,0,0,1,3.05,84.51Z"/><path class="cls-2" d="M64.32,84.39,5.94,81.74c-.88,0-2.06.07-2.56-.42-.69-.7-1.48-2.52-1.2-2.8,2-2,1.56-4.63,2.26-6.93C5,69.83,5.5,68.05,5.91,66.25c.35-1.53,1.12-2,2.71-1.88,14.86.66,29.73,1.77,44.59,1.7,23-.12,46-1,68.94-1.7,2.19-.06,3.22.47,3.63,2.61.46,2.45,1.09,4.86,1.78,7.25a18.28,18.28,0,0,0,1.6,3.82,2.16,2.16,0,0,1-1.77,3.45c-3,.35-5.92.6-8.89.73C100.91,83,83.32,83.64,64.32,84.39Z"/><path class="cls-2" d="M54,12.68C55.35,4.23,59.38-.06,65.79,0S76.4,4.51,77.35,12.51c4.38.59,8.87.89,13.21,1.86a114.94,114.94,0,0,1,15.19,4.47c2.11.79,3.71,2.91,5.6,4.36a3.45,3.45,0,0,0,2,.81c3.43-.13,6.16.5,7.19,4.44.31,1.19,2.68,2.08,1.33,3.52-.91,1-2.78,1.34-4.27,1.45a722.39,722.39,0,0,1-103.82,0c-1-.07-2.15.11-2.81-.4s-1.67-2-1.42-2.69a10.87,10.87,0,0,1,3-4.66c1.31-1,3.3-1.35,5-1.58a4.64,4.64,0,0,0,3.13-1.51,21.74,21.74,0,0,1,6.44-4.46c7.73-3.43,16.06-4.38,24.38-5.25C52.3,12.82,53.1,12.76,54,12.68Zm4.9-.51H72.67c0-4.56-3-8-6.69-7.71S58.56,8.76,58.94,12.17Z"/></g></g></svg>