<svg width="152" height="28" viewBox="0 0 152 28" fill="none" xmlns="http://www.w3.org/2000/svg">
<path d="M0.275568 27V0.818181H17.6108V5.3821H5.81108V11.6207H16.4602V16.1847H5.81108V27H0.275568ZM28.6626 27.3835C26.6768 27.3835 24.9595 26.9616 23.5107 26.1179C22.0703 25.2656 20.9581 24.081 20.174 22.5639C19.3899 21.0384 18.9979 19.2699 18.9979 17.2585C18.9979 15.2301 19.3899 13.4574 20.174 11.9403C20.9581 10.4148 22.0703 9.23011 23.5107 8.38636C24.9595 7.53409 26.6768 7.10795 28.6626 7.10795C30.6484 7.10795 32.3615 7.53409 33.8018 8.38636C35.2507 9.23011 36.3672 10.4148 37.1513 11.9403C37.9354 13.4574 38.3274 15.2301 38.3274 17.2585C38.3274 19.2699 37.9354 21.0384 37.1513 22.5639C36.3672 24.081 35.2507 25.2656 33.8018 26.1179C32.3615 26.9616 30.6484 27.3835 28.6626 27.3835ZM28.6882 23.1648C29.5916 23.1648 30.3459 22.9091 30.951 22.3977C31.5561 21.8778 32.0121 21.1705 32.3189 20.2756C32.6342 19.3807 32.7919 18.3622 32.7919 17.2202C32.7919 16.0781 32.6342 15.0597 32.3189 14.1648C32.0121 13.2699 31.5561 12.5625 30.951 12.0426C30.3459 11.5227 29.5916 11.2628 28.6882 11.2628C27.7763 11.2628 27.0092 11.5227 26.3871 12.0426C25.7734 12.5625 25.3089 13.2699 24.9936 14.1648C24.6868 15.0597 24.5334 16.0781 24.5334 17.2202C24.5334 18.3622 24.6868 19.3807 24.9936 20.2756C25.3089 21.1705 25.7734 21.8778 26.3871 22.3977C27.0092 22.9091 27.7763 23.1648 28.6882 23.1648ZM50.7408 27.3835C48.755 27.3835 47.0376 26.9616 45.5888 26.1179C44.1484 25.2656 43.0362 24.081 42.2521 22.5639C41.468 21.0384 41.076 19.2699 41.076 17.2585C41.076 15.2301 41.468 13.4574 42.2521 11.9403C43.0362 10.4148 44.1484 9.23011 45.5888 8.38636C47.0376 7.53409 48.755 7.10795 50.7408 7.10795C52.7266 7.10795 54.4396 7.53409 55.88 8.38636C57.3288 9.23011 58.4453 10.4148 59.2294 11.9403C60.0135 13.4574 60.4055 15.2301 60.4055 17.2585C60.4055 19.2699 60.0135 21.0384 59.2294 22.5639C58.4453 24.081 57.3288 25.2656 55.88 26.1179C54.4396 26.9616 52.7266 27.3835 50.7408 27.3835ZM50.7663 23.1648C51.6697 23.1648 52.424 22.9091 53.0291 22.3977C53.6342 21.8778 54.0902 21.1705 54.397 20.2756C54.7124 19.3807 54.87 18.3622 54.87 17.2202C54.87 16.0781 54.7124 15.0597 54.397 14.1648C54.0902 13.2699 53.6342 12.5625 53.0291 12.0426C52.424 11.5227 51.6697 11.2628 50.7663 11.2628C49.8544 11.2628 49.0874 11.5227 48.4652 12.0426C47.8516 12.5625 47.3871 13.2699 47.0717 14.1648C46.7649 15.0597 46.6115 16.0781 46.6115 17.2202C46.6115 18.3622 46.7649 19.3807 47.0717 20.2756C47.3871 21.1705 47.8516 21.8778 48.4652 22.3977C49.0874 22.9091 49.8544 23.1648 50.7663 23.1648ZM73.3303 27H64.049V0.818181H73.407C76.0405 0.818181 78.3075 1.34233 80.2081 2.39062C82.1087 3.4304 83.5703 4.92614 84.593 6.87784C85.6243 8.82955 86.1399 11.1648 86.1399 13.8835C86.1399 16.6108 85.6243 18.9545 84.593 20.9148C83.5703 22.875 82.1001 24.3793 80.1825 25.4276C78.2734 26.4759 75.9893 27 73.3303 27ZM69.5845 22.2571H73.1001C74.7365 22.2571 76.1129 21.9673 77.2294 21.3878C78.3544 20.7997 79.1982 19.892 79.7607 18.6648C80.3317 17.429 80.6172 15.8352 80.6172 13.8835C80.6172 11.9489 80.3317 10.3679 79.7607 9.14062C79.1982 7.91335 78.3587 7.00994 77.2422 6.4304C76.1257 5.85085 74.7493 5.56108 73.1129 5.56108H69.5845V22.2571ZM99.087 27.3835C97.0671 27.3835 95.3285 26.9744 93.8711 26.1562C92.4222 25.3295 91.3058 24.1619 90.5217 22.6534C89.7376 21.1364 89.3455 19.3423 89.3455 17.2713C89.3455 15.2514 89.7376 13.4787 90.5217 11.9531C91.3058 10.4276 92.4094 9.23864 93.8327 8.38636C95.2646 7.53409 96.9435 7.10795 98.8697 7.10795C100.165 7.10795 101.371 7.31676 102.488 7.73438C103.613 8.14347 104.593 8.76136 105.428 9.58807C106.272 10.4148 106.928 11.4545 107.397 12.7074C107.865 13.9517 108.1 15.4091 108.1 17.0795V18.5753H91.5188V15.2003H102.973C102.973 14.4162 102.803 13.7216 102.462 13.1165C102.121 12.5114 101.648 12.0384 101.043 11.6974C100.446 11.348 99.7518 11.1733 98.9592 11.1733C98.1325 11.1733 97.3995 11.3651 96.7603 11.7486C96.1296 12.1236 95.6353 12.6307 95.2773 13.2699C94.9194 13.9006 94.7362 14.6037 94.7276 15.3793V18.5881C94.7276 19.5597 94.9066 20.3991 95.2646 21.1065C95.631 21.8139 96.1467 22.3594 96.8114 22.7429C97.4762 23.1264 98.2646 23.3182 99.1765 23.3182C99.7816 23.3182 100.336 23.233 100.838 23.0625C101.341 22.892 101.772 22.6364 102.13 22.2955C102.488 21.9545 102.76 21.5369 102.948 21.0426L107.985 21.375C107.729 22.5852 107.205 23.642 106.412 24.5455C105.628 25.4403 104.614 26.1392 103.37 26.642C102.134 27.1364 100.706 27.3835 99.087 27.3835ZM120.526 27.3835C118.515 27.3835 116.784 26.9574 115.336 26.1051C113.895 25.2443 112.787 24.0511 112.012 22.5256C111.245 21 110.861 19.2443 110.861 17.2585C110.861 15.2472 111.249 13.483 112.025 11.9659C112.809 10.4403 113.921 9.25142 115.361 8.39915C116.801 7.53835 118.515 7.10795 120.5 7.10795C122.213 7.10795 123.713 7.41903 125 8.04119C126.287 8.66335 127.306 9.53693 128.056 10.6619C128.806 11.7869 129.219 13.108 129.296 14.625H124.157C124.012 13.6449 123.628 12.8565 123.006 12.2599C122.392 11.6548 121.587 11.3523 120.59 11.3523C119.746 11.3523 119.009 11.5824 118.378 12.0426C117.756 12.4943 117.27 13.1548 116.921 14.0241C116.571 14.8935 116.397 15.946 116.397 17.1818C116.397 18.4347 116.567 19.5 116.908 20.3778C117.257 21.2557 117.748 21.9247 118.378 22.3849C119.009 22.8452 119.746 23.0753 120.59 23.0753C121.212 23.0753 121.77 22.9474 122.265 22.6918C122.767 22.4361 123.181 22.0653 123.505 21.5795C123.837 21.0852 124.054 20.4929 124.157 19.8026H129.296C129.211 21.3026 128.801 22.6236 128.069 23.7656C127.344 24.8991 126.343 25.7855 125.064 26.4247C123.786 27.0639 122.273 27.3835 120.526 27.3835ZM137.717 21.3494L137.73 14.8168H138.523L144.812 7.36364H151.064L142.614 17.233H141.322L137.717 21.3494ZM132.783 27V0.818181H138.229V27H132.783ZM145.055 27L139.277 18.4474L142.908 14.5994L151.435 27H145.055Z" fill="black"/>
</svg>
