<svg width="34" height="34" viewBox="0 0 34 34" fill="none" xmlns="http://www.w3.org/2000/svg">
<path d="M13.6667 8.77847e-07C11.5809 0.00111568 9.52457 0.491526 7.66283 1.43182C5.80109 2.3721 4.1859 3.73605 2.94709 5.41401C1.70828 7.09198 0.880393 9.03718 0.52998 11.0933C0.179566 13.1493 0.316395 15.2589 0.929469 17.2525C1.54254 19.2461 2.61476 21.0681 4.05995 22.5719C5.50514 24.0758 7.28298 25.2197 9.25059 25.9116C11.2182 26.6035 13.3207 26.8242 15.3891 26.5559C17.4575 26.2876 19.4341 25.5377 21.16 24.3667L29.4 32.6C29.6289 32.8456 29.9049 33.0426 30.2115 33.1793C30.5182 33.3159 30.8492 33.3894 31.1849 33.3953C31.5206 33.4012 31.854 33.3395 32.1653 33.2137C32.4766 33.088 32.7594 32.9009 32.9968 32.6635C33.2342 32.4261 33.4213 32.1433 33.5471 31.832C33.6728 31.5207 33.7346 31.1873 33.7286 30.8516C33.7227 30.5159 33.6492 30.1849 33.5126 29.8782C33.376 29.5715 33.179 29.2955 32.9333 29.0667L24.7 20.8267C26.0621 18.8219 26.852 16.4838 26.9848 14.0638C27.1176 11.6437 26.5882 9.23326 25.4536 7.09154C24.319 4.94982 22.622 3.15788 20.5453 1.90839C18.4685 0.658898 16.0904 -0.000878471 13.6667 8.77847e-07ZM5.33333 13.3333C5.33333 11.1232 6.21131 9.00358 7.77411 7.44078C9.33691 5.87797 11.4565 5 13.6667 5C15.8768 5 17.9964 5.87797 19.5592 7.44078C21.122 9.00358 22 11.1232 22 13.3333C22 15.5435 21.122 17.6631 19.5592 19.2259C17.9964 20.7887 15.8768 21.6667 13.6667 21.6667C11.4565 21.6667 9.33691 20.7887 7.77411 19.2259C6.21131 17.6631 5.33333 15.5435 5.33333 13.3333Z" fill="black"/>
</svg>
