<svg width="152" height="31" viewBox="0 0 152 31" fill="none" xmlns="http://www.w3.org/2000/svg">
<rect width="152" height="31" fill="black"/>
<path d="M50.8011 13.3636C50.7415 12.8598 50.4995 12.4688 50.0753 12.1903C49.651 11.9119 49.1307 11.7727 48.5142 11.7727C48.0634 11.7727 47.669 11.8456 47.331 11.9915C46.9962 12.1373 46.7344 12.3378 46.5455 12.593C46.3598 12.8482 46.267 13.1383 46.267 13.4631C46.267 13.7348 46.3317 13.9685 46.4609 14.1641C46.5935 14.3563 46.7625 14.517 46.968 14.6463C47.1735 14.7723 47.389 14.8767 47.6143 14.9595C47.8397 15.0391 48.0469 15.1037 48.2358 15.1534L49.2699 15.4318C49.535 15.5014 49.83 15.5975 50.1548 15.7202C50.483 15.8428 50.7962 16.0102 51.0945 16.2223C51.3961 16.4311 51.6446 16.6996 51.8402 17.0277C52.0357 17.3558 52.1335 17.7585 52.1335 18.2358C52.1335 18.786 51.9893 19.2831 51.701 19.7273C51.416 20.1714 50.9983 20.5244 50.4482 20.7862C49.9013 21.0481 49.2367 21.179 48.4545 21.179C47.7254 21.179 47.094 21.0613 46.5604 20.826C46.0301 20.5907 45.6125 20.2625 45.3075 19.8416C45.0059 19.4207 44.8352 18.9318 44.7955 18.375H46.0682C46.1013 18.7595 46.2306 19.0777 46.456 19.3295C46.6847 19.5781 46.973 19.7637 47.321 19.8864C47.6723 20.0057 48.0502 20.0653 48.4545 20.0653C48.9252 20.0653 49.3478 19.9891 49.7223 19.8366C50.0968 19.6809 50.3935 19.4654 50.6122 19.1903C50.831 18.9119 50.9403 18.5871 50.9403 18.2159C50.9403 17.8778 50.8459 17.6027 50.657 17.3906C50.468 17.1785 50.2195 17.0062 49.9112 16.8736C49.603 16.741 49.2699 16.625 48.9119 16.5256L47.6591 16.1676C46.8636 15.9389 46.2339 15.6125 45.7699 15.1882C45.3059 14.764 45.0739 14.2088 45.0739 13.5227C45.0739 12.9527 45.228 12.4555 45.5362 12.0312C45.8478 11.6037 46.2654 11.2723 46.7891 11.0369C47.3161 10.7983 47.9044 10.679 48.554 10.679C49.2102 10.679 49.7936 10.7966 50.304 11.032C50.8144 11.264 51.2188 11.5821 51.517 11.9865C51.8187 12.3909 51.9777 12.8499 51.9943 13.3636H50.8011ZM57.2033 21.1591C56.4675 21.1591 55.8328 20.9967 55.2992 20.6719C54.7689 20.3438 54.3596 19.8864 54.0712 19.2997C53.7862 18.7098 53.6436 18.0237 53.6436 17.2415C53.6436 16.4593 53.7862 15.7699 54.0712 15.1733C54.3596 14.5734 54.7606 14.1061 55.2743 13.7713C55.7914 13.4332 56.3946 13.2642 57.084 13.2642C57.4817 13.2642 57.8745 13.3305 58.2623 13.4631C58.65 13.5956 59.003 13.8111 59.3212 14.1094C59.6394 14.4044 59.8929 14.7955 60.0819 15.2827C60.2708 15.7699 60.3652 16.3698 60.3652 17.0824V17.5795H54.4789V16.5653H59.1721C59.1721 16.1345 59.0859 15.75 58.9135 15.4119C58.7445 15.0739 58.5025 14.8071 58.1877 14.6115C57.8761 14.416 57.5082 14.3182 57.084 14.3182C56.6167 14.3182 56.2123 14.4342 55.8709 14.6662C55.5328 14.8949 55.2727 15.1932 55.0904 15.5611C54.9081 15.929 54.8169 16.3234 54.8169 16.7443V17.4205C54.8169 17.9972 54.9164 18.486 55.1152 18.8871C55.3174 19.2848 55.5975 19.5881 55.9554 19.7969C56.3134 20.0024 56.7293 20.1051 57.2033 20.1051C57.5115 20.1051 57.79 20.062 58.0385 19.9759C58.2904 19.8864 58.5075 19.7538 58.6898 19.5781C58.8721 19.3991 59.013 19.1771 59.1124 18.9119L60.2459 19.2301C60.1266 19.6146 59.9261 19.9527 59.6444 20.2443C59.3626 20.5327 59.0146 20.758 58.6003 20.9205C58.186 21.0795 57.7203 21.1591 57.2033 21.1591ZM63.3233 16.4062V21H62.15V13.3636H63.2836V14.5568H63.383C63.562 14.169 63.8337 13.8575 64.1983 13.6222C64.5629 13.3835 65.0336 13.2642 65.6103 13.2642C66.1273 13.2642 66.5797 13.3703 66.9675 13.5824C67.3553 13.7912 67.6569 14.1094 67.8723 14.5369C68.0878 14.9612 68.1955 15.4981 68.1955 16.1477V21H67.0222V16.2273C67.0222 15.6274 66.8664 15.16 66.5549 14.8253C66.2433 14.4872 65.8158 14.3182 65.2722 14.3182C64.8977 14.3182 64.5629 14.3994 64.2679 14.5618C63.9763 14.7242 63.7459 14.9612 63.5769 15.2727C63.4078 15.5843 63.3233 15.9621 63.3233 16.4062ZM73.223 21.1591C72.5866 21.1591 72.0249 20.9983 71.5376 20.6768C71.0504 20.352 70.6693 19.8946 70.3942 19.3047C70.1191 18.7114 69.9815 18.0104 69.9815 17.2017C69.9815 16.3996 70.1191 15.7036 70.3942 15.1136C70.6693 14.5237 71.0521 14.0679 71.5426 13.7464C72.0331 13.425 72.5999 13.2642 73.2429 13.2642C73.7401 13.2642 74.1328 13.3471 74.4212 13.5128C74.7128 13.6752 74.9349 13.8608 75.0874 14.0696C75.2431 14.2751 75.3641 14.4441 75.4503 14.5767H75.5497V10.8182H76.723V21H75.5895V19.8267H75.4503C75.3641 19.9659 75.2415 20.1416 75.0824 20.3537C74.9233 20.5625 74.6963 20.7498 74.4013 20.9155C74.1063 21.0779 73.7135 21.1591 73.223 21.1591ZM73.3821 20.1051C73.8527 20.1051 74.2505 19.9825 74.5753 19.7372C74.9001 19.4886 75.147 19.1456 75.3161 18.7081C75.4851 18.2673 75.5696 17.7585 75.5696 17.1818C75.5696 16.6117 75.4867 16.1129 75.321 15.6854C75.1553 15.2545 74.91 14.9197 74.5852 14.6811C74.2604 14.4392 73.8594 14.3182 73.3821 14.3182C72.8849 14.3182 72.4706 14.4458 72.1392 14.701C71.8111 14.9529 71.5642 15.2959 71.3984 15.7301C71.236 16.161 71.1548 16.6449 71.1548 17.1818C71.1548 17.7254 71.2377 18.2192 71.4034 18.6634C71.5724 19.1042 71.821 19.4555 72.1491 19.7173C72.4806 19.9759 72.8916 20.1051 73.3821 20.1051ZM83.1314 10.8182H84.603L88.0632 19.2699H88.1825L91.6428 10.8182H93.1143V21H91.9609V13.2642H91.8615L88.6797 21H87.5661L84.3842 13.2642H84.2848V21H83.1314V10.8182ZM97.6745 21.179C97.1906 21.179 96.7515 21.0878 96.3571 20.9055C95.9627 20.7199 95.6494 20.4531 95.4174 20.1051C95.1854 19.7538 95.0694 19.3295 95.0694 18.8324C95.0694 18.3949 95.1556 18.0402 95.3279 17.7685C95.5003 17.4934 95.7306 17.2779 96.019 17.1222C96.3074 16.9664 96.6255 16.8504 96.9735 16.7741C97.3249 16.6946 97.6779 16.6316 98.0325 16.5852C98.4965 16.5256 98.8727 16.4808 99.161 16.451C99.4527 16.4179 99.6648 16.3632 99.7974 16.2869C99.9333 16.2107 100.001 16.0781 100.001 15.8892V15.8494C100.001 15.3589 99.867 14.9777 99.5985 14.706C99.3334 14.4342 98.9307 14.2983 98.3904 14.2983C97.8303 14.2983 97.3912 14.4209 97.073 14.6662C96.7548 14.9115 96.5311 15.1733 96.4018 15.4517L95.2882 15.054C95.487 14.59 95.7522 14.2287 96.0836 13.9702C96.4184 13.7083 96.783 13.526 97.1774 13.4233C97.5751 13.3172 97.9662 13.2642 98.3507 13.2642C98.5959 13.2642 98.8777 13.294 99.1958 13.3537C99.5173 13.41 99.8272 13.5277 100.126 13.7067C100.427 13.8857 100.677 14.1558 100.876 14.517C101.075 14.8783 101.175 15.3622 101.175 15.9688V21H100.001V19.9659H99.9416C99.862 20.1316 99.7295 20.3089 99.5439 20.4979C99.3583 20.6868 99.1113 20.8475 98.8031 20.9801C98.4949 21.1127 98.1187 21.179 97.6745 21.179ZM97.8535 20.125C98.3175 20.125 98.7086 20.0339 99.0268 19.8516C99.3483 19.6693 99.5903 19.4339 99.7527 19.1456C99.9184 18.8572 100.001 18.554 100.001 18.2358V17.1619C99.9515 17.2216 99.8422 17.2763 99.6731 17.326C99.5074 17.3724 99.3152 17.4138 99.0964 17.4503C98.881 17.4834 98.6705 17.5133 98.465 17.5398C98.2628 17.563 98.0988 17.5829 97.9728 17.5994C97.6679 17.6392 97.3829 17.7038 97.1177 17.7933C96.8559 17.8795 96.6438 18.0104 96.4814 18.1861C96.3223 18.3584 96.2427 18.5937 96.2427 18.892C96.2427 19.2997 96.3935 19.608 96.6951 19.8168C97.0001 20.0223 97.3862 20.125 97.8535 20.125ZM103.316 21V13.3636H104.489V21H103.316ZM103.913 12.0909C103.684 12.0909 103.487 12.013 103.321 11.8572C103.159 11.7015 103.077 11.5142 103.077 11.2955C103.077 11.0767 103.159 10.8894 103.321 10.7337C103.487 10.5779 103.684 10.5 103.913 10.5C104.141 10.5 104.337 10.5779 104.499 10.7337C104.665 10.8894 104.748 11.0767 104.748 11.2955C104.748 11.5142 104.665 11.7015 104.499 11.8572C104.337 12.013 104.141 12.0909 103.913 12.0909ZM107.812 10.8182V21H106.638V10.8182H107.812Z" fill="white"/>
</svg>
