<svg width="32" height="34" viewBox="0 0 32 34" fill="none" xmlns="http://www.w3.org/2000/svg">
<path d="M17.5952 10.5715C17.5061 10.4823 17.4004 10.4115 17.2839 10.3632C17.1675 10.3148 17.0427 10.29 16.9167 10.29C16.7906 10.29 16.6658 10.3148 16.5494 10.3632C16.4329 10.4115 16.3272 10.4823 16.2382 10.5715L10.4881 16.3215C10.3989 16.4105 10.3281 16.5163 10.2798 16.6327C10.2315 16.7492 10.2066 16.874 10.2066 17C10.2066 17.1261 10.2315 17.2509 10.2798 17.3673C10.3281 17.4837 10.3989 17.5895 10.4881 17.6785L16.2382 23.4285C16.4181 23.6085 16.6622 23.7096 16.9167 23.7096C17.1711 23.7096 17.4152 23.6085 17.5952 23.4285C17.7751 23.2486 17.8762 23.0045 17.8762 22.75C17.8762 22.4955 17.7751 22.2515 17.5952 22.0715L13.4801 17.9584H30.3333C30.5875 17.9584 30.8312 17.8574 31.011 17.6777C31.1907 17.4979 31.2917 17.2542 31.2917 17C31.2917 16.7459 31.1907 16.5021 31.011 16.3224C30.8312 16.1427 30.5875 16.0417 30.3333 16.0417H13.4801L17.5952 11.9285C17.6844 11.8395 17.7552 11.7337 17.8035 11.6173C17.8518 11.5009 17.8767 11.3761 17.8767 11.25C17.8767 11.124 17.8518 10.9992 17.8035 10.8827C17.7552 10.7663 17.6844 10.6605 17.5952 10.5715Z" fill="black"/>
<path d="M10.7412 0.708313H15.4255C17.001 0.708313 18.2411 0.708313 19.2397 0.79073C20.2555 0.873146 21.1065 1.04565 21.8789 1.43856C23.1416 2.08179 24.1682 3.10836 24.8114 4.37106C25.2043 5.14348 25.3768 5.99448 25.4593 7.01223C25.5417 8.0089 25.5417 9.2509 25.5417 10.8245V11.25C25.5417 11.5041 25.4407 11.7479 25.261 11.9276C25.0813 12.1073 24.8375 12.2083 24.5833 12.2083C24.3292 12.2083 24.0854 12.1073 23.9057 11.9276C23.726 11.7479 23.625 11.5041 23.625 11.25V10.8666C23.625 9.24131 23.625 8.0779 23.5483 7.16748C23.4755 6.26856 23.3375 5.69931 23.1017 5.24123C22.6428 4.33945 21.9101 3.60611 21.0088 3.14631C20.5507 2.9144 19.9814 2.77448 19.0825 2.69973C18.1702 2.62498 17.0087 2.62498 15.3833 2.62498H10.7833C9.158 2.62498 7.99458 2.62498 7.08417 2.70165C6.18525 2.77448 5.616 2.91248 5.15792 3.14631C4.25584 3.60579 3.52247 4.33916 3.063 5.24123C2.83108 5.69931 2.69117 6.26856 2.61642 7.16748C2.54167 8.0779 2.54167 9.24131 2.54167 10.8666V23.1333C2.54167 24.7586 2.54167 25.9201 2.61833 26.8325C2.69117 27.7314 2.82917 28.3006 3.063 28.7587C3.5228 29.6601 4.25614 30.3928 5.15792 30.8517C5.616 31.0856 6.18525 31.2255 7.08417 31.3002C7.99458 31.375 9.158 31.375 10.7833 31.375H15.3833C17.0087 31.375 18.1721 31.375 19.0825 31.2983C19.9814 31.2255 20.5507 31.0875 21.0088 30.8517C21.9098 30.3924 22.6424 29.6598 23.1017 28.7587C23.3356 28.3006 23.4755 27.7314 23.5503 26.8325C23.625 25.9201 23.625 24.7586 23.625 23.1333V22.75C23.625 22.4958 23.726 22.2521 23.9057 22.0723C24.0854 21.8926 24.3292 21.7916 24.5833 21.7916C24.8375 21.7916 25.0813 21.8926 25.261 22.0723C25.4407 22.2521 25.5417 22.4958 25.5417 22.75V23.1755C25.5417 24.751 25.5417 25.9911 25.4593 26.9896C25.3768 28.0055 25.2043 28.8565 24.8114 29.6289C24.1682 30.8916 23.1416 31.9182 21.8789 32.5614C21.1065 32.9543 20.2555 33.1268 19.2378 33.2092C18.2411 33.2916 16.9991 33.2916 15.4255 33.2916H10.7412C9.16758 33.2916 7.9275 33.2916 6.927 33.2092C5.91117 33.1268 5.06017 32.9543 4.28775 32.5614C3.02505 31.9182 1.99848 30.8916 1.35525 29.6289C0.962333 28.8565 0.789834 28.0055 0.707417 26.9877C0.625 25.9911 0.625 24.751 0.625 23.1755V10.8245C0.625 9.2509 0.625 8.01081 0.707417 7.01031C0.789834 5.99448 0.962333 5.14348 1.35525 4.37106C1.99848 3.10836 3.02505 2.08179 4.28775 1.43856C5.06017 1.04565 5.91117 0.873146 6.92892 0.79073C7.92558 0.708313 9.16758 0.708313 10.7412 0.708313Z" fill="black"/>
</svg>
