<svg width="20" height="20" viewBox="0 0 20 20" fill="none" xmlns="http://www.w3.org/2000/svg">
<rect x="4" y="3" width="12" height="14" fill="#FFF70C"/>
<path d="M10 0.5C12.3711 0.5 14.0995 0.501229 15.4199 0.678711C16.7258 0.854275 17.5581 1.19384 18.1816 1.81738C18.8058 2.44207 19.1456 3.27518 19.3213 4.58105C19.4988 5.90143 19.5 7.62909 19.5 10C19.5 12.3711 19.4989 14.0995 19.3213 15.4199C19.1566 16.6441 18.847 17.4515 18.2949 18.0615L18.1816 18.1816C17.5586 18.8055 16.7261 19.1456 15.4199 19.3213C14.0994 19.4989 12.3711 19.5 10 19.5C7.62886 19.5 5.90063 19.4989 4.58008 19.3213C3.27406 19.1456 2.44149 18.8057 1.81738 18.1816C1.19393 17.5586 0.854271 16.7262 0.678711 15.4199C0.501238 14.0994 0.5 12.3711 0.5 10C0.5 7.62887 0.501227 5.90066 0.678711 4.58008C0.843321 3.35542 1.15207 2.54704 1.7041 1.93652L1.81738 1.81738C2.44205 1.1937 3.2752 0.854232 4.58105 0.678711C5.90145 0.501284 7.62912 0.5 10 0.5ZM11.1875 8.7666C10.8631 8.78697 10.5594 8.93325 10.3408 9.17383C10.1221 9.41466 10.0056 9.73151 10.0166 10.0566C10.0276 10.3817 10.165 10.6895 10.3994 10.915L10.7461 10.5547L10.3994 10.916L10.4092 10.9248L10.7666 11.25H6C5.66848 11.25 5.35063 11.3818 5.11621 11.6162C4.88179 11.8506 4.75 12.1685 4.75 12.5C4.75 12.8315 4.88179 13.1494 5.11621 13.3838C5.35063 13.6182 5.66848 13.75 6 13.75H10.7666L10.4092 14.0752L10.3994 14.085C10.165 14.3105 10.0276 14.6183 10.0166 14.9434C10.0056 15.2685 10.1221 15.5853 10.3408 15.8262C10.5594 16.0667 10.8631 16.213 11.1875 16.2334C11.5121 16.2537 11.8321 16.1462 12.0791 15.9346L12.0908 15.9248L14.8408 13.4248L14.8398 13.4238C14.9686 13.3068 15.0722 13.165 15.1426 13.0059C15.2131 12.8466 15.25 12.6742 15.25 12.5C15.25 12.3258 15.2131 12.1534 15.1426 11.9941C15.0722 11.8351 14.9695 11.6923 14.8408 11.5752L12.0908 9.0752L12.0791 9.06543L11.9834 8.99121C11.7523 8.82911 11.4716 8.74885 11.1875 8.7666ZM8.80859 3.75098C8.64463 3.74328 8.4806 3.7676 8.32617 3.82324C8.21026 3.86501 8.10136 3.92371 8.00293 3.99707L7.9082 4.0752L5.1582 6.5752C5.02951 6.69226 4.92685 6.83506 4.85645 6.99414C4.78597 7.15343 4.74902 7.32581 4.74902 7.5C4.74902 7.67419 4.78597 7.84657 4.85645 8.00586C4.92685 8.16494 5.02951 8.30774 5.1582 8.4248L7.9082 10.9248C8.1534 11.1479 8.47746 11.2646 8.80859 11.249C9.13977 11.2334 9.45163 11.087 9.6748 10.8418C9.89791 10.5966 10.0146 10.2725 9.99902 9.94141C9.9834 9.61023 9.83697 9.29837 9.5918 9.0752H9.59082L9.2334 8.75H14C14.3315 8.75 14.6494 8.61821 14.8838 8.38379C15.1182 8.14937 15.25 7.83152 15.25 7.5C15.25 7.16848 15.1182 6.85063 14.8838 6.61621C14.6494 6.38179 14.3315 6.25 14 6.25H9.2334L9.59082 5.9248H9.5918C9.71318 5.81438 9.81193 5.68069 9.88184 5.53223C9.95169 5.38374 9.99129 5.22251 9.99902 5.05859C10.0067 4.89463 9.9824 4.7306 9.92676 4.57617C9.88499 4.46026 9.82629 4.35136 9.75293 4.25293L9.6748 4.1582C9.56438 4.03682 9.43069 3.93807 9.28223 3.86816C9.13374 3.79831 8.97251 3.75871 8.80859 3.75098Z" fill="#FFF70C" stroke="black"/>
</svg>
