<svg width="20" height="20" viewBox="0 0 20 20" fill="none" xmlns="http://www.w3.org/2000/svg">
<rect x="2" y="4" width="14" height="14" fill="black"/>
<path fill-rule="evenodd" clip-rule="evenodd" d="M0 10C0 5.286 0 2.929 1.464 1.464C2.93 0 5.286 0 10 0C14.714 0 17.071 0 18.535 1.464C20 2.93 20 5.286 20 10C20 14.714 20 17.071 18.535 18.535C17.072 20 14.714 20 10 20C5.286 20 2.929 20 1.464 18.535C0 17.072 0 14.714 0 10ZM10.746 10.555C10.6053 10.4197 10.5229 10.2349 10.5163 10.0398C10.5097 9.84469 10.5794 9.65471 10.7106 9.5102C10.8419 9.36569 11.0243 9.27804 11.2191 9.26586C11.4139 9.25369 11.6058 9.31795 11.754 9.445L14.504 11.945C14.5813 12.0153 14.6431 12.101 14.6854 12.1966C14.7277 12.2921 14.7495 12.3955 14.7495 12.5C14.7495 12.6045 14.7277 12.7079 14.6854 12.8034C14.6431 12.899 14.5813 12.9847 14.504 13.055L11.754 15.555C11.6058 15.682 11.4139 15.7463 11.2191 15.7341C11.0243 15.722 10.8419 15.6343 10.7106 15.4898C10.5794 15.3453 10.5097 15.1553 10.5163 14.9602C10.5229 14.7651 10.6053 14.5803 10.746 14.445L12.06 13.25H6C5.80109 13.25 5.61032 13.171 5.46967 13.0303C5.32902 12.8897 5.25 12.6989 5.25 12.5C5.25 12.3011 5.32902 12.1103 5.46967 11.9697C5.61032 11.829 5.80109 11.75 6 11.75H12.06L10.746 10.555ZM9.305 4.495C9.37136 4.56786 9.42271 4.65309 9.45612 4.74581C9.48952 4.83853 9.50433 4.93692 9.49969 5.03536C9.49504 5.13381 9.47104 5.23037 9.42906 5.31953C9.38707 5.4087 9.32793 5.48871 9.255 5.555L7.94 6.75H14C14.1989 6.75 14.3897 6.82902 14.5303 6.96967C14.671 7.11032 14.75 7.30109 14.75 7.5C14.75 7.69891 14.671 7.88968 14.5303 8.03033C14.3897 8.17098 14.1989 8.25 14 8.25H7.94L9.255 9.445C9.4022 9.57893 9.49016 9.76586 9.49953 9.96464C9.50891 10.1634 9.43893 10.3578 9.305 10.505C9.17107 10.6522 8.98414 10.7402 8.78536 10.7495C8.58657 10.7589 8.3922 10.6889 8.245 10.555L5.495 8.055C5.41766 7.9847 5.35587 7.89902 5.31358 7.80345C5.2713 7.70787 5.24945 7.60451 5.24945 7.5C5.24945 7.39549 5.2713 7.29213 5.31358 7.19655C5.35587 7.10098 5.41766 7.0153 5.495 6.945L8.245 4.445C8.31786 4.37864 8.40309 4.32729 8.49581 4.29388C8.58853 4.26048 8.68692 4.24567 8.78536 4.25032C8.88381 4.25496 8.98037 4.27896 9.06953 4.32094C9.1587 4.36293 9.23871 4.42207 9.305 4.495Z" fill="black"/>
<path d="M6.28885 15L7.2733 10.9319L4 8.19678L8.31174 7.83691L10.0004 4L11.6891 7.83614L16 8.19602L12.7267 10.9311L13.7119 14.9992L10.0004 12.84L6.28885 15Z" fill="#FFF70C"/>
</svg>
