<svg width="28" height="29" viewBox="0 0 28 29" fill="none" xmlns="http://www.w3.org/2000/svg">
<path d="M0.5 1.4C0.5 1.16131 0.594821 0.932387 0.763604 0.763604C0.932387 0.594821 1.16131 0.5 1.4 0.5H26.6C26.8387 0.5 27.0676 0.594821 27.2364 0.763604C27.4052 0.932387 27.5 1.16131 27.5 1.4V22.1C27.5 22.2182 27.4767 22.3352 27.4315 22.4444C27.3863 22.5536 27.32 22.6528 27.2364 22.7364C27.1528 22.82 27.0536 22.8863 26.9444 22.9315C26.8352 22.9767 26.7182 23 26.6 23H20.39C20.2669 22.9998 20.1451 23.0249 20.0321 23.0736C19.9191 23.1224 19.8173 23.1938 19.733 23.2835L14.6555 28.679C14.5713 28.7684 14.4698 28.8397 14.357 28.8884C14.2443 28.9372 14.1228 28.9623 14 28.9623C13.8772 28.9623 13.7557 28.9372 13.643 28.8884C13.5302 28.8397 13.4287 28.7684 13.3445 28.679L8.267 23.2835C8.18269 23.1938 8.08089 23.1224 7.96789 23.0736C7.85488 23.0249 7.73308 22.9998 7.61 23H1.4C1.16131 23 0.932387 22.9052 0.763604 22.7364C0.594821 22.5676 0.5 22.3387 0.5 22.1V1.4Z" fill="black"/>
<path d="M14 6.5L16.1375 10.3625L20 12.5L16.1375 14.6375L14 18.5L11.8625 14.6375L8 12.5L11.8625 10.3625L14 6.5Z" fill="white"/>
</svg>
