<svg xmlns="http://www.w3.org/2000/svg" viewBox="0 0 35.38 35.38"><defs><style>.cls-1{fill:#dadd97;}</style></defs><title>tiktok</title><g id="Layer_2" data-name="Layer 2"><g id="ELEMENTS"><path class="cls-1" d="M17.69,0A17.69,17.69,0,1,0,35.38,17.69,17.69,17.69,0,0,0,17.69,0Zm9.19,15.65h0a5.07,5.07,0,0,1-.55,0A5.92,5.92,0,0,1,21.39,13v9.1a6.73,6.73,0,1,1-6.73-6.73l.41,0v3.32a2.71,2.71,0,0,0-.41,0,3.43,3.43,0,1,0,0,6.86,3.51,3.51,0,0,0,3.57-3.39l0-15.46h3.18A5.9,5.9,0,0,0,26.88,12Z"/></g></g></svg>