<svg width="114" height="14" viewBox="0 0 114 14" fill="none" xmlns="http://www.w3.org/2000/svg">
<path d="M1.58931 5.31861C2.14562 3.16926 4.42857 2.3013 6.19023 2.29425C7.85814 2.28721 9.84851 2.85802 10.956 4.3978C11.2043 4.74193 11.3784 5.14596 11.4443 5.58287C11.5803 6.47197 11.1744 7.38926 10.5532 7.93306C9.98774 8.43016 9.33199 8.77687 8.63389 8.94784C8.25065 9.0418 7.85299 9.10874 7.46048 9.14515C6.95465 9.19096 6.43439 9.18391 5.92856 9.14163C5.48969 9.10522 5.04567 9.03945 4.61504 8.94314C3.81456 8.76226 2.94815 8.4933 2.30839 7.90018C2.01375 7.62652 1.78299 7.22248 1.66245 6.81728C1.5347 6.39446 1.47701 5.75318 1.58931 5.31861Z" fill="#855C52"/>
<mask id="mask0_286_309" style="mask-type:luminance" maskUnits="userSpaceOnUse" x="1" y="3" width="11" height="7">
<path d="M1.54963 5.3596C2.08205 3.64724 4.80342 3.98672 6.49353 3.98111C8.09277 3.9755 10.099 4.37109 11.1608 5.59714C11.3979 5.87116 11.4305 6.51364 11.4947 6.86154C11.6251 7.56949 11.2359 8.29988 10.6403 8.73288C10.0981 9.1287 9.46938 9.40477 8.80002 9.5409C8.43257 9.61572 8.05128 9.66902 7.67493 9.69801C7.18992 9.73449 6.69109 9.72888 6.20608 9.69521C5.78528 9.66622 5.35954 9.61385 4.94665 9.53716C4.17913 9.39314 3.3484 9.17898 2.73498 8.7067C2.45247 8.4888 2.23121 8.16708 2.11564 7.84444C1.99315 7.50777 1.44295 5.70469 1.54963 5.3596" fill="white"/>
</mask>
<g mask="url(#mask0_286_309)">
<path d="M4.918 5.68576C4.90121 5.56231 5.02271 5.40239 5.08692 5.29952C5.17187 5.16485 5.27756 4.98716 5.3961 4.87587C5.49389 4.78329 5.76158 4.71128 5.89691 4.73466C5.9779 4.74775 6.08064 4.8048 6.15373 4.83659C6.28511 4.89177 6.43328 4.9591 6.55675 5.02644C6.6664 5.08629 6.86198 5.25276 7.0062 5.20226C7.10102 5.16859 7.20474 5.06665 7.30056 5.02083C7.44972 4.94975 7.60381 4.88709 7.75 4.81228C7.83989 4.76645 7.97226 4.66265 8.07993 4.66358C8.236 4.66452 8.37231 4.78796 8.4869 4.87307C8.56888 4.93385 8.65581 4.97594 8.73286 5.04514C8.80793 5.11341 8.86028 5.19197 8.92745 5.26585C8.99265 5.33786 9.18329 5.48937 9.18625 5.59224C9.18823 5.69324 8.86325 5.81949 8.77731 5.85316C8.64198 5.90647 8.4948 5.92704 8.35552 5.97193C8.24094 6.00934 8.08091 6.01308 7.97818 6.072C7.81619 6.16458 7.78655 6.45824 7.73519 6.61348C7.70457 6.707 7.67987 6.77153 7.67888 6.8744C7.67691 7.0072 7.55146 7.08482 7.43589 7.15964C7.28179 7.25971 7.12276 7.32517 6.95681 7.40279C6.80469 7.47387 6.71381 7.49257 6.54193 7.49257C6.37994 7.49351 6.36512 7.46078 6.31672 7.31021C6.25152 7.1082 6.21991 6.90807 6.12805 6.71355C6.07965 6.61161 6.02137 6.51903 5.97889 6.41802C5.9463 6.34134 5.93049 6.24501 5.85937 6.1889C5.76948 6.11502 5.64403 6.05704 5.54426 5.99064C5.47216 5.94388 5.40894 5.87093 5.31905 5.85316L4.918 5.68576Z" fill="white"/>
<path d="M2.37148 7.06412C2.35864 7.01175 2.34777 6.95657 2.32703 6.90981C2.25492 6.74802 2.27369 6.5694 2.22035 6.40667C2.15515 6.20373 2.0544 6.02137 2.05045 5.80253C2.04649 5.56873 2.08897 5.41909 2.28356 5.26759C2.40111 5.17594 2.50681 5.08803 2.66584 5.09271C3.01354 5.103 3.24765 5.35176 3.53213 5.50233C3.65462 5.56779 3.8097 5.54161 3.94108 5.58463C4.15543 5.65477 4.24828 5.82871 4.23347 6.03259C4.21766 6.23272 4.19297 6.44688 4.19593 6.64515C4.19889 6.76672 4.25421 6.98089 4.11592 7.05944C4.04381 7.10059 3.9233 7.09872 3.84032 7.08937C3.57165 7.05851 3.35927 6.88082 3.10837 6.80413C2.86241 6.72838 2.72511 6.92197 2.60262 7.08563C2.56607 7.13426 2.47322 7.27735 2.41099 7.17073C2.39222 7.13894 2.38037 7.10246 2.37148 7.06412Z" fill="#ED6C30"/>
<path d="M2.18282 7.80035C2.18084 8.12393 2.36161 8.33341 2.50879 8.60743C2.67375 8.91418 2.86143 9.14798 3.20617 9.29855C3.40076 9.38365 3.6645 9.40422 3.86997 9.34718C4.19001 9.25646 4.35596 9.01798 4.46758 8.73181C4.58513 8.43255 4.57327 8.10148 4.50116 7.79287C4.47647 7.68438 4.51598 7.56281 4.48042 7.46367C4.43696 7.34303 4.28286 7.26448 4.16433 7.22426C4.0369 7.18124 3.87392 7.2093 3.7376 7.20649C3.56869 7.20369 3.42842 7.0578 3.31087 6.94557C3.2358 6.8745 3.17061 6.79781 3.06195 6.77817C2.88514 6.74637 2.63029 6.76134 2.49002 6.87917C2.21344 7.11204 2.18479 7.4749 2.18282 7.80035Z" fill="#ED6C30"/>
<path d="M4.06455 6.89772C4.06258 7.2213 4.24334 7.43078 4.39052 7.7048C4.55549 8.01155 4.74317 8.24535 5.08791 8.39592C5.2825 8.48102 5.54525 8.50253 5.75269 8.44455C6.07273 8.35383 6.23868 8.11535 6.3503 7.82918C6.44316 7.59164 6.44612 7.23626 6.3424 6.99872C6.27227 6.83786 6.16559 6.67233 6.04804 6.54141C5.93049 6.40954 5.78529 6.29451 5.64601 6.18603C5.57291 6.12992 5.51463 6.08128 5.42771 6.04294C5.34177 6.0046 5.24299 6.01114 5.15606 5.97841C5.08099 5.95036 5.02864 5.88957 4.94566 5.8746C4.76885 5.84281 4.514 5.85777 4.37373 5.97561C4.09517 6.20941 4.06752 6.57133 4.06455 6.89772Z" fill="#ED6C30"/>
<path d="M9.19317 5.21435C9.1507 5.17695 9.11119 5.14421 9.08551 5.11709C8.84053 4.85243 8.60939 4.63546 8.28934 4.44842C8.00585 4.28195 7.73223 4.44655 7.48429 4.58777C7.31637 4.68222 7.07535 4.82624 6.88471 4.99365C6.86989 4.98803 6.85507 4.98242 6.83729 4.97868C6.79383 4.96933 6.66443 4.86459 6.63578 4.84682C6.50243 4.75891 6.36216 4.68316 6.21399 4.62143C5.9384 4.50827 5.7685 4.469 5.49883 4.61395C5.22126 4.76358 5.0158 5.02544 4.80639 5.24802C4.74712 5.31161 4.69477 5.38643 4.66909 5.46966C4.64044 5.55944 4.61377 5.67821 4.4903 5.64081C4.38065 5.60807 4.32138 5.52297 4.23347 5.46031C4.11 5.37334 3.94306 5.31629 3.78896 5.30787C3.50843 5.29198 3.40471 5.10587 3.17061 5.01515C2.95132 4.92912 2.73993 4.91883 2.50483 4.93566C2.11268 4.96465 1.74028 5.28075 1.73831 5.66606C1.73732 5.88209 1.73238 6.10186 1.83017 6.30293C1.87067 6.3871 1.90426 6.40767 1.91315 6.50119C1.92006 6.57601 1.94574 6.64054 1.95859 6.71442C1.97933 6.83226 1.99118 6.98189 1.95068 7.09692C1.91117 7.20914 1.89833 7.31015 1.87166 7.42798C1.85289 7.51683 1.844 7.56546 1.86475 7.65991C1.88746 7.76746 1.91413 7.8722 1.94476 7.97788C1.98921 8.12751 2.04354 8.27341 2.09688 8.42023C2.1433 8.54836 2.17491 8.61476 2.26579 8.72137C2.39618 8.87287 2.55422 9.001 2.65992 9.1684C2.75376 9.31897 2.93255 9.41997 3.12023 9.42371C3.22098 9.42558 3.42151 9.42838 3.44719 9.30494C3.46991 9.19739 3.31581 9.17868 3.24568 9.13379C3.00268 8.97575 2.79129 8.85043 2.64214 8.60073C2.51076 8.38096 2.44557 8.13313 2.3863 7.88904C2.33691 7.6861 2.33098 7.47007 2.39914 7.26993C2.46927 7.06419 2.64806 6.96132 2.87624 6.94729C3.02738 6.93794 3.23778 7.19792 3.38002 7.2718C3.62894 7.39993 3.87391 7.19792 4.13272 7.39244C4.35694 7.56078 4.30262 7.904 4.42609 8.12564C4.57722 8.39498 5.00889 8.15651 4.85776 7.88623C4.77972 7.74782 4.78762 7.55798 4.71946 7.40928C4.63649 7.22878 4.52783 7.09224 4.37374 6.98563C4.37275 6.97441 4.37473 6.96412 4.37176 6.95196C4.28582 6.6555 4.35102 6.14769 4.75799 6.11683C4.96542 6.10093 5.07112 6.14021 5.23509 6.26178C5.37832 6.36746 5.56008 6.39739 5.68256 6.52925C5.70133 6.54889 5.72109 6.56385 5.74183 6.57601C5.76257 6.64241 5.79319 6.71255 5.83369 6.78737C5.89691 6.9052 5.93741 7.038 6.01051 7.15116C6.0352 7.18951 6.07373 7.21756 6.09842 7.2559C6.133 7.31108 6.1409 7.37748 6.17547 7.43359C6.20609 7.48316 6.23375 7.56826 6.29894 7.572C6.3513 7.57574 6.42538 7.54769 6.47378 7.52711C6.53108 7.5028 6.59825 7.48596 6.64862 7.45323C6.81062 7.34662 6.35624 6.66579 6.29302 6.53299C6.22782 6.39552 6.2782 6.39365 6.40464 6.30948C6.5854 6.1879 6.82544 5.99712 7.06251 6.01208C7.19882 6.02143 7.31242 6.09345 7.39539 6.18884C7.47145 6.27394 7.57122 6.49184 7.71544 6.37588C7.77569 6.32725 7.82508 6.26459 7.87941 6.21128C7.90114 6.19071 7.9209 6.16639 7.93374 6.14021C8.03351 5.94381 7.75989 5.77454 7.61666 5.6857C7.53764 5.63707 7.47343 5.57347 7.38453 5.53606C7.34403 5.51923 7.17808 5.51081 7.15635 5.4865C7.07041 5.39017 7.51097 5.14515 7.56826 5.1068C7.70951 5.01141 7.96337 4.77855 8.14019 4.902C8.48987 5.14515 8.722 5.46779 9.03414 5.74087C9.12403 5.81943 9.27319 5.71749 9.35122 5.66325C9.54977 5.52391 9.34727 5.34528 9.19317 5.21435ZM3.99443 6.93139C3.8186 6.92484 3.6408 6.92017 3.55288 6.8388C3.32964 6.63306 3.17159 6.54889 2.85353 6.51709C2.70437 6.50213 2.55916 6.53299 2.42482 6.58723C2.39124 6.49091 2.34284 6.39832 2.29048 6.30106C2.19467 6.12431 2.14923 5.94194 2.14528 5.74461C2.1354 5.28075 2.56608 5.26579 2.89995 5.33687C3.17061 5.39391 3.27334 5.70347 3.58745 5.72217C3.77612 5.73433 4.00727 5.72404 4.13667 5.89331C4.15939 5.92417 4.17124 5.95504 4.18013 5.98683C3.98949 6.2543 3.93516 6.60594 3.99443 6.93139ZM6.02039 6.04669C5.99569 6.06726 5.97594 6.08783 5.9542 6.10841C5.74381 5.95597 5.48303 5.83813 5.27362 5.70253C5.22225 5.6698 5.13434 5.66232 5.11557 5.60153C5.09878 5.54916 5.1452 5.48089 5.16792 5.43413C5.22324 5.31536 5.36351 5.20033 5.46031 5.11055C5.59169 4.9899 5.7438 4.74114 5.95717 4.85991C6.16263 4.97494 6.3592 5.10026 6.56268 5.21809C6.65257 5.26953 6.80173 5.36118 6.81358 5.46312C6.82247 5.54074 6.87186 5.56786 6.78296 5.59872C6.50737 5.69411 6.24165 5.86432 6.02039 6.04669Z" fill="#FCC21B"/>
<path d="M8.86818 5.20766C8.81385 5.21888 8.7615 5.22917 8.71014 5.23852C8.62222 5.25536 8.54814 5.28622 8.46418 5.31428C8.27551 5.3788 8.12734 5.44333 7.98411 5.57987C7.8794 5.68088 7.82014 5.79591 7.73815 5.91C7.69469 5.97079 7.67888 6.03999 7.65221 6.10733C7.62159 6.18214 7.57714 6.24106 7.55343 6.31962C7.51787 6.43746 7.49219 6.55062 7.48231 6.67406C7.47046 6.80967 7.52182 6.93498 7.54553 7.06872C7.5564 7.13325 7.57516 7.18749 7.60381 7.24641C7.63838 7.31842 7.63838 7.39511 7.66999 7.46712C7.72827 7.59711 7.82705 7.71027 7.92287 7.81595C8.02165 7.92537 8.13524 8.01608 8.25279 8.10586C8.44343 8.25175 8.66865 8.29664 8.90769 8.33124C9.15168 8.36772 9.38875 8.32096 9.63372 8.31535C9.8293 8.31067 10.0111 8.27887 10.1987 8.22744C10.3301 8.1919 10.4763 8.15449 10.5869 8.07874C10.7223 7.98615 10.7825 7.8571 10.8615 7.72149C10.9396 7.58589 10.9722 7.43064 11.0186 7.28382C11.0601 7.14634 11.0907 7.00419 11.0887 6.86017C11.0818 6.48422 11.066 6.07647 10.7885 5.78001C10.4733 5.44333 9.90438 5.18802 9.43419 5.14687C9.25441 5.13191 9.05488 5.17025 8.86818 5.20766Z" fill="#855C52"/>
<path d="M8.69038 7.16447V7.15886C8.69828 7.06347 8.68742 6.96434 8.721 6.87269C8.7536 6.78665 8.79607 6.70342 8.81188 6.61177C8.82867 6.51918 8.75459 6.43034 8.68346 6.3761C8.58765 6.30221 8.46022 6.27509 8.36737 6.19747C8.31798 6.15632 8.25476 6.11798 8.31601 6.0628C8.3891 5.9964 8.54221 6.01791 8.63605 6.02633C8.721 6.03381 8.81484 6.05064 8.89683 6.07122C8.94424 6.08338 8.99067 6.11424 9.04203 6.10208C9.11315 6.08338 9.16551 6.00295 9.21292 5.95338C9.26922 5.89446 9.32849 5.83835 9.39764 5.79253C9.46086 5.75044 9.62285 5.63728 9.70978 5.67282C9.84412 5.728 9.66039 5.9431 9.63471 6.02539C9.60705 6.1133 9.49345 6.27977 9.58828 6.35646C9.63273 6.39199 9.68113 6.42379 9.73349 6.44811C9.77497 6.46775 9.81152 6.4771 9.8461 6.50609C9.92709 6.57342 10.0209 6.62486 10.094 6.70061C10.1385 6.74737 10.3113 6.86427 10.2501 6.93815C10.1879 7.01297 9.96265 6.91103 9.88857 6.88485C9.7404 6.83435 9.58532 6.71277 9.41838 6.75018C9.33936 6.76795 9.27713 6.82219 9.2386 6.88952C9.20205 6.95592 9.17736 7.00175 9.12599 7.0616C9.08846 7.10555 9.05685 7.15419 9.02722 7.20282C8.98968 7.25986 8.97091 7.32533 8.93733 7.38238C8.90671 7.43475 8.82472 7.51517 8.75261 7.46374C8.69532 7.42259 8.68643 7.22994 8.69038 7.16447Z" fill="white"/>
<path d="M9.54087 8.52038C9.17539 8.52038 8.77237 8.43153 8.27551 8.23981C8.20834 8.21363 8.14413 8.17903 8.07795 8.1332C8.00881 8.08457 7.94855 8.0322 7.88928 7.97983L7.84483 7.94148C7.65221 7.77595 7.51392 7.61042 7.43391 7.44957C7.35785 7.29806 7.30747 7.16152 7.28574 7.04182C7.25018 6.85197 7.29266 6.62191 7.32229 6.45451C7.35983 6.24876 7.42996 6.05331 7.52973 5.87094C7.6048 5.73347 7.68975 5.58944 7.81718 5.46787C7.9851 5.30795 8.19945 5.21817 8.38812 5.13868C8.60938 5.04609 8.85534 4.9825 9.09933 4.95164C9.81548 4.86279 10.6136 5.24903 11.0008 5.86346C11.0729 5.97662 11.145 6.09913 11.1865 6.23754C11.2567 6.47508 11.3199 6.6855 11.2725 6.95952C11.2349 7.17649 11.1865 7.34015 11.1144 7.48978L11.0947 7.53373C11.0453 7.63661 10.985 7.76473 10.9109 7.86012C10.5642 8.2978 10.1029 8.52038 9.54087 8.52038ZM9.31664 5.31824C9.26231 5.31824 9.20601 5.32104 9.15168 5.32852C8.9482 5.35377 8.73483 5.40895 8.5679 5.47816C8.37824 5.55765 8.21624 5.62498 8.10166 5.7344C8.01473 5.81951 7.94954 5.92986 7.88533 6.04582C7.80335 6.19265 7.74803 6.3507 7.71741 6.51623C7.69173 6.65838 7.65715 6.8501 7.67987 6.97542C7.69568 7.06052 7.7342 7.16433 7.79544 7.28404C7.85274 7.39813 7.96337 7.52719 8.1145 7.65718L8.16192 7.69833C8.21229 7.74229 8.26168 7.78624 8.31601 7.82365C8.35552 7.85077 8.39207 7.87134 8.42862 7.88537C8.86917 8.05558 9.23367 8.13788 9.54186 8.13788C9.97649 8.13788 10.3183 7.97235 10.5889 7.63006C10.6363 7.56927 10.6867 7.46266 10.7262 7.37756L10.748 7.33267C10.8043 7.21483 10.8438 7.07923 10.8754 6.89593C10.908 6.70608 10.8645 6.55832 10.8043 6.35444C10.7726 6.24502 10.7154 6.1515 10.6561 6.05705C10.3765 5.61563 9.8382 5.31824 9.31664 5.31824Z" fill="#FCC21B"/>
<path d="M3.83045 9.2469C3.83638 8.79146 4.04579 8.21444 4.48536 7.97222C4.60192 7.90769 4.7086 7.84222 4.83701 7.80108C5.04247 7.73468 5.26374 7.73561 5.47315 7.68604C5.66478 7.64022 5.77739 7.55044 5.92556 7.4326C6.02829 7.35124 6.1488 7.28017 6.26536 7.21844C6.45699 7.11838 6.68616 7.07349 6.90446 7.07349C7.22846 7.07349 7.58406 7.13989 7.85175 7.32038C7.97424 7.40268 8.07598 7.52425 8.15994 7.63741C8.24292 7.75244 8.23205 7.8974 8.24193 8.0302C8.25872 8.23407 8.23897 8.42953 8.18464 8.62499C8.12735 8.83074 8.08784 9.04022 8.02264 9.24316C7.98412 9.3638 7.94658 9.49099 7.87447 9.59854C7.80434 9.70328 7.70754 9.68271 7.58505 9.70515C7.48627 9.72292 7.38749 9.73975 7.28871 9.75378C7.09906 9.7809 6.90841 9.77062 6.71678 9.77062C6.52811 9.77155 6.34735 9.74724 6.15967 9.72853C5.98878 9.7117 5.80999 9.74069 5.63712 9.72947C5.40499 9.71544 5.14915 9.69861 4.92888 9.62753C4.79454 9.58545 4.66612 9.5443 4.52981 9.51624C4.43103 9.49567 4.27002 9.48164 4.19495 9.41337C4.07345 9.35819 3.95393 9.29647 3.83045 9.2469" fill="#757F3F"/>
<path d="M7.08028 10.5582C7.02299 10.5582 6.96668 10.5572 6.91038 10.5554C6.82642 10.5535 6.74641 10.5479 6.6664 10.5432C6.38685 10.5245 6.09644 10.5385 5.78035 10.5058C5.15902 10.4413 4.51005 10.3515 4.0122 10.0214C3.86008 9.92129 3.70796 9.80626 3.65165 9.60519C3.61906 9.49203 3.60523 9.36952 3.61017 9.23953C3.61708 9.04688 3.66252 8.843 3.7534 8.59704C3.84625 8.34454 4.03195 8.00319 4.38657 7.80773L4.44189 7.77687C4.54264 7.72076 4.64735 7.66184 4.77477 7.62069C4.9101 7.57673 5.04247 7.5599 5.17187 7.54307C5.26077 7.53091 5.34572 7.51969 5.42474 7.50098C5.57093 7.46638 5.6549 7.39998 5.79319 7.29056C5.89789 7.20733 6.01939 7.13064 6.16855 7.05208C6.37895 6.94173 6.63479 6.88281 6.90544 6.88281C7.3213 6.88281 7.69864 6.98288 7.96929 7.16431C8.12734 7.26999 8.24884 7.42336 8.32589 7.52904C8.42664 7.66651 8.43356 7.81989 8.44047 7.94333C8.44146 7.96765 8.44245 7.99103 8.44442 8.01535C8.4622 8.23792 8.44245 8.45396 8.3812 8.67279C8.35651 8.75416 8.33675 8.83645 8.317 8.91782C8.28637 9.0422 8.25575 9.17126 8.21525 9.29845C8.18759 9.38448 8.17278 9.47613 8.15697 9.57246C8.13228 9.72209 8.1066 9.87827 8.03054 10.0391L8.00189 10.1018C7.94262 10.2365 7.87447 10.388 7.63937 10.4759C7.44478 10.5479 7.23833 10.5582 7.08028 10.5582ZM6.90445 7.26344C6.70393 7.26344 6.5123 7.30646 6.36216 7.38502C6.23473 7.45142 6.13398 7.51501 6.05396 7.5786C5.89197 7.70673 5.75664 7.81428 5.52253 7.87039C5.42178 7.89377 5.32201 7.9078 5.22521 7.91995C5.11062 7.93492 5.00098 7.94895 4.9022 7.98074C4.81429 8.0088 4.73625 8.05369 4.64537 8.10512L4.58709 8.13692C4.33817 8.2744 4.20185 8.53158 4.13172 8.72329C4.05467 8.93185 4.01615 9.10018 4.01121 9.25356C4.00726 9.34521 4.01714 9.43124 4.03986 9.50793C4.0606 9.58462 4.14456 9.64541 4.24235 9.70994C4.66315 9.98863 5.25484 10.0691 5.82381 10.128C6.12805 10.1588 6.41648 10.1457 6.69405 10.1635C6.82292 10.1724 6.95206 10.1771 7.08127 10.1775C7.21166 10.1775 7.36279 10.171 7.49219 10.1233C7.56726 10.0952 7.58109 10.07 7.63147 9.95589C7.64036 9.93345 7.65221 9.90913 7.66308 9.88482C7.71741 9.77072 7.73716 9.64634 7.75988 9.51541C7.77667 9.40973 7.79445 9.30125 7.831 9.18903C7.86755 9.074 7.8962 8.9571 7.92583 8.83458C7.94657 8.74855 7.96732 8.66344 7.99102 8.5774C8.04041 8.39971 8.05721 8.22577 8.04239 8.04527C8.04041 8.01815 8.03844 7.99009 8.03745 7.96204C8.0335 7.87226 8.02955 7.7937 7.99498 7.74601C7.93472 7.66464 7.84286 7.54681 7.73716 7.4748C7.53269 7.33826 7.23734 7.26344 6.90445 7.26344Z" fill="#FCC21B"/>
<path d="M5.25583 9.84169C5.24003 9.76407 5.30325 9.68084 5.33091 9.60976C5.37634 9.49286 5.42376 9.37502 5.48698 9.26561C5.59563 9.07669 5.68947 8.89527 5.83863 8.73067C5.97001 8.58665 6.23671 8.2612 6.4807 8.32479C6.48366 8.36874 6.51329 8.42392 6.51231 8.46414C6.50934 8.52866 6.4639 8.59787 6.43427 8.65492C6.36019 8.80361 6.24363 8.94203 6.15868 9.08698C6.06286 9.25158 5.9868 9.4274 5.90679 9.59854C5.83962 9.74256 5.75763 9.85198 5.75664 10.0119V10.0082" fill="#FCC21B"/>
<path d="M6.62195 9.83334C6.63775 9.79874 6.65356 9.7632 6.6664 9.7286C6.73456 9.5453 6.77506 9.35825 6.86495 9.18057C7.03386 8.84202 7.30056 8.53902 7.66605 8.38284C7.78754 8.3314 7.9209 8.29119 8.04832 8.25191C8.17081 8.2145 8.32885 8.18551 8.42171 8.0976C8.58766 7.93955 8.71804 7.80581 8.95511 7.74783C9.26528 7.67302 9.69991 7.67208 10.0041 7.77682C10.1671 7.83294 10.3094 7.9302 10.4398 8.03775C10.5613 8.13875 10.6531 8.27809 10.744 8.40715C10.8645 8.57829 10.8892 8.78591 10.8843 8.98604C10.8813 9.17028 10.9258 9.40688 10.7825 9.55839C10.7351 9.60702 10.6591 9.63133 10.6008 9.66968C10.5148 9.72579 10.4398 9.78938 10.3499 9.84269C10.0634 10.012 9.69201 10.0784 9.37295 10.1756C8.61926 10.4038 7.81323 10.4113 7.0309 10.4132C6.89458 10.4141 6.57849 10.4188 6.53502 10.271C6.4886 10.1083 6.55873 9.97175 6.62195 9.83334Z" fill="#757F3F"/>
<path d="M7.71444 10.2692C7.72432 10.1009 7.85273 9.9232 7.91694 9.77076C7.98213 9.61646 8.05918 9.44251 8.155 9.3041C8.26266 9.14979 8.42269 9.03195 8.56987 8.91505C8.66074 8.84211 8.75854 8.74765 8.89485 8.77197C9.03808 8.79815 9.04895 8.91973 8.99561 9.03382C8.94819 9.13576 8.86324 9.24237 8.80101 9.33683C8.70816 9.47805 8.63802 9.61739 8.57184 9.76796C8.49776 9.93536 8.34761 10.0775 8.36737 10.2748V10.2692" fill="#FCC21B"/>
<path d="M6.9904 10.602C6.8205 10.602 6.42242 10.602 6.34043 10.3196C6.2782 10.1036 6.36117 9.92495 6.42637 9.78093L6.43822 9.75755C6.45205 9.72668 6.46489 9.69676 6.47674 9.66496C6.50045 9.6023 6.52021 9.53871 6.53996 9.47605C6.57849 9.3526 6.61899 9.22541 6.68221 9.09823C6.82939 8.80457 7.10597 8.41272 7.58307 8.20885C7.7105 8.15461 7.84286 8.11439 7.97029 8.07511C8.0098 8.06296 8.03647 8.05547 8.06413 8.04799C8.14216 8.02648 8.24094 7.99936 8.27848 7.96289L8.30811 7.9339C8.47208 7.77772 8.62816 7.62996 8.90375 7.56356C9.06377 7.52521 9.2475 7.50464 9.43617 7.50464C9.60113 7.50464 9.8461 7.52054 10.0713 7.59816C10.2353 7.65427 10.3943 7.74873 10.5702 7.89462C10.6986 8.0003 10.7934 8.13684 10.8783 8.25654L10.909 8.3005C11.0729 8.53149 11.0878 8.80364 11.0838 8.98881C11.0838 9.02341 11.0848 9.05895 11.0858 9.09542C11.0917 9.27872 11.0986 9.50785 10.9307 9.6846C10.8774 9.74071 10.8141 9.77157 10.7638 9.79682C10.747 9.80524 10.7292 9.81366 10.7144 9.82395C10.6818 9.84546 10.6502 9.8679 10.6195 9.89034C10.5662 9.92869 10.5129 9.96703 10.4546 10.0016C10.2185 10.141 9.94587 10.2139 9.68213 10.285C9.59619 10.3074 9.51322 10.3299 9.43222 10.3542C8.63112 10.5974 7.78063 10.5992 7.02991 10.6011H6.9904V10.602ZM6.72369 10.1952C6.75234 10.2064 6.82247 10.2223 6.99138 10.2223H7.01904C7.75297 10.2205 8.57086 10.2186 9.3127 9.99415C9.39765 9.9689 9.48556 9.94552 9.57446 9.92121C9.81252 9.85761 10.0565 9.79215 10.2442 9.68179C10.2916 9.65374 10.3341 9.62288 10.3775 9.59202C10.4131 9.56583 10.4496 9.53964 10.4882 9.51439C10.5158 9.49569 10.5464 9.47979 10.5781 9.46483C10.5978 9.45454 10.6274 9.43958 10.6353 9.4321C10.6966 9.3685 10.6917 9.23664 10.6877 9.11038C10.6867 9.06737 10.6857 9.02528 10.6857 8.98507C10.6897 8.76997 10.6571 8.62501 10.579 8.51559L10.5474 8.46977C10.4734 8.36503 10.3973 8.25654 10.3094 8.1836C10.1721 8.0695 10.0535 7.99749 9.93797 7.95821C9.69794 7.87591 9.28899 7.86656 9.00747 7.93483C8.83856 7.97505 8.74274 8.0667 8.59852 8.20511L8.56691 8.2341C8.45529 8.33978 8.30317 8.3828 8.18069 8.41646L8.11352 8.4361C7.98016 8.47725 7.85867 8.51372 7.75297 8.55955C7.3865 8.71573 7.16721 9.02902 7.04966 9.26563C6.9983 9.36663 6.96373 9.47511 6.92817 9.58921C6.90643 9.65748 6.8847 9.72575 6.86001 9.79402C6.84519 9.83423 6.82741 9.87351 6.81062 9.91185L6.79975 9.93617C6.74345 10.0447 6.71184 10.1204 6.72369 10.1952Z" fill="#FCC21B"/>
</g>
<path d="M12.9995 6.645C13.0067 6.23524 12.9342 5.81444 12.7506 5.44776C12.6231 5.19152 12.4365 4.9629 12.1907 4.8138C12.0652 4.73759 11.9275 4.68458 11.7837 4.65365C11.6225 4.61941 11.4706 4.61831 11.3329 4.5432C11.2105 4.47694 11.1227 4.32783 11.032 4.21849C10.931 4.09921 10.8249 3.98545 10.7137 3.87832C10.4906 3.6623 10.25 3.46859 9.99462 3.29958C9.40813 2.9086 8.75431 2.64021 8.08214 2.49774C6.84489 2.23598 5.48115 2.17965 4.27144 2.6126C3.54419 2.87326 2.82815 3.24546 2.24982 3.80432C2.1244 3.9249 2.00903 4.05721 1.90506 4.19972C1.8153 4.32342 1.73166 4.43607 1.6062 4.52222C1.56846 4.54762 1.53582 4.56971 1.49196 4.57855C1.29408 4.6172 1.09315 4.65476 0.906486 4.73649C0.38527 4.9629 0.0986521 5.73934 0.0303126 6.29268C-0.021707 6.71237 -0.029867 7.17072 0.197591 7.53188C0.46177 7.95048 0.961566 7.92507 1.24512 8.29396C1.4787 8.59769 1.52664 9.04721 1.70514 9.38959C1.96932 9.89654 2.3457 10.3251 2.77919 10.6664C3.62783 11.3323 4.68148 11.6803 5.71983 11.7719C6.30735 11.8238 6.94179 11.8073 7.52522 11.7178C8.63803 11.5466 9.72025 10.9833 10.4975 10.0987C10.7566 9.80266 10.981 9.47022 11.1564 9.10906C11.2462 8.92351 11.3227 8.72912 11.3859 8.53142C11.5001 8.17026 11.7103 8.12829 12.0224 8.04215C12.155 8.0057 12.2825 7.95268 12.3998 7.87979C12.6293 7.73621 12.7986 7.52084 12.8924 7.26681C12.9659 7.06911 12.9954 6.85595 12.9995 6.645ZM1.63578 5.6554C2.18658 3.63423 4.44688 2.81803 6.19107 2.81141C7.84244 2.80478 9.81307 3.34155 10.9096 4.7895C11.1554 5.11311 11.3278 5.49304 11.393 5.9039C11.5277 6.73998 11.1258 7.60257 10.5107 8.11394C9.95092 8.58139 9.30167 8.90743 8.61049 9.06819C8.23106 9.15655 7.83734 9.2195 7.44872 9.25374C6.94791 9.29682 6.43281 9.29019 5.93199 9.25043C5.49747 9.21619 5.05786 9.15434 4.6315 9.06377C3.83897 8.89369 2.98115 8.64077 2.34774 8.08301C2.05602 7.82567 1.82754 7.44574 1.7082 7.0647C1.58172 6.66709 1.5246 6.06405 1.63578 5.6554Z" fill="#B89278"/>
<path d="M21.6504 8.65039C21.6504 9.1543 21.7344 9.9375 21.9023 11C21.6055 11.1016 21.2227 11.1523 20.7539 11.1523C20.2891 11.1523 19.9727 11.1016 19.8047 11L19.9219 9.11328L19.957 7.4375C19.1602 6 18.6445 5.11328 18.4102 4.77734C17.9844 4.16406 17.6719 3.79492 17.4727 3.66992C17.3984 3.61914 17.207 3.58203 16.8984 3.55859C16.832 3.37109 16.8047 3.21094 16.8164 3.07812C17.1367 2.89844 17.4219 2.77539 17.6719 2.70898C17.9219 2.63867 18.1523 2.60352 18.3633 2.60352C18.5742 2.60352 18.7109 2.60547 18.7734 2.60938C18.7891 2.625 18.8477 2.68164 18.9492 2.7793C19.0508 2.87305 19.1406 2.96289 19.2188 3.04883C19.2969 3.13086 19.4121 3.27734 19.5645 3.48828C19.7168 3.69922 19.8633 3.92969 20.0039 4.17969C20.3516 4.80078 20.7168 5.60938 21.0996 6.60547C21.9434 4.70312 22.3828 3.56836 22.418 3.20117C22.4258 3.13867 22.4297 3.03516 22.4297 2.89062C22.4297 2.74609 22.3945 2.62109 22.3242 2.51562C22.3242 2.47656 22.3809 2.44141 22.4941 2.41016C22.6074 2.375 22.7227 2.35742 22.8398 2.35742C23.1875 2.35742 23.4492 2.46875 23.625 2.69141C23.8047 2.91016 23.8945 3.14063 23.8945 3.38281C23.8945 3.625 23.8477 3.85937 23.7539 4.08594C23.6641 4.3125 23.5352 4.54688 23.3672 4.78906C23.2031 5.02734 23.0293 5.27344 22.8457 5.52734C22.3379 6.22266 21.9316 6.90234 21.627 7.56641L21.6504 8.65039ZM31.541 7.8125C31.541 8.32422 31.4492 8.80469 31.2656 9.25391C31.082 9.70312 30.8223 10.0703 30.4863 10.3555C29.8105 10.9297 28.918 11.2168 27.8086 11.2168C27.2539 11.2168 26.7422 11.0859 26.2734 10.8242C25.8047 10.5625 25.4316 10.1973 25.1543 9.72852C24.877 9.25586 24.7383 8.69336 24.7383 8.04102C24.7383 7.38477 24.9062 6.79492 25.2422 6.27148C25.9023 5.24023 27.0098 4.72461 28.5645 4.72461C29.3457 4.72461 30.0312 4.99219 30.6211 5.52734C31.2344 6.08594 31.541 6.84766 31.541 7.8125ZM26.4668 7.98242C26.4668 8.65039 26.6602 9.23438 27.0469 9.73438C27.4336 10.2344 27.8867 10.4844 28.4062 10.4844C29.3672 10.4844 29.8477 9.70117 29.8477 8.13477C29.8477 7.35742 29.6699 6.72656 29.3145 6.24219C28.959 5.75781 28.5059 5.51562 27.9551 5.51562C27.6777 5.51562 27.4375 5.58594 27.2344 5.72656C27.0312 5.86719 26.877 6.05664 26.7715 6.29492C26.5684 6.75195 26.4668 7.31445 26.4668 7.98242ZM33.0059 5.67969C32.748 5.67969 32.6191 5.56836 32.6191 5.3457C32.6191 5.2832 32.623 5.23633 32.6309 5.20508C32.7676 5.10742 33.1016 5.01367 33.6328 4.92383C34.1641 4.83008 34.5938 4.7832 34.9219 4.7832C35.043 5.17773 35.1035 5.62109 35.1035 6.11328C35.1035 6.60547 35.0781 7.16797 35.0273 7.80078C34.9805 8.42969 34.957 8.87305 34.957 9.13086C34.957 9.38867 34.9961 9.59766 35.0742 9.75781C35.1523 9.91406 35.3125 9.99219 35.5547 9.99219C35.8008 9.99219 36.0527 9.93359 36.3105 9.81641C36.5723 9.69531 36.9043 9.47461 37.3066 9.1543C37.3066 7.95117 37.3105 6.52148 37.3184 4.86523C37.7676 4.79492 38.1289 4.75977 38.4023 4.75977C38.6797 4.75977 38.9199 4.79492 39.123 4.86523C39.0645 5.7207 39.0352 6.54297 39.0352 7.33203C39.0352 8.11719 39.0566 8.93555 39.0996 9.78711C39.1074 9.91602 39.1328 10.0156 39.1758 10.0859C39.2188 10.1562 39.3301 10.1973 39.5098 10.209C39.6934 10.2207 39.8203 10.2402 39.8906 10.2676C39.9062 10.3496 39.9141 10.4824 39.9141 10.666C39.5742 10.8574 39.2324 10.9941 38.8887 11.0762C38.5449 11.1621 38.2539 11.2051 38.0156 11.2051C37.7773 11.2051 37.6133 11.1172 37.5234 10.9414C37.4375 10.7656 37.3691 10.4141 37.3184 9.88672C36.3652 10.7656 35.4551 11.2051 34.5879 11.2051C33.7207 11.2051 33.2871 10.5176 33.2871 9.14258L33.3867 6.04297C33.3867 5.91016 33.3457 5.81641 33.2637 5.76172C33.1855 5.70703 33.0996 5.67969 33.0059 5.67969ZM50.3613 6.21289C50.3613 6.80664 50.0527 7.10352 49.4355 7.10352C49.2246 7.10352 49.0723 7.08008 48.9785 7.0332C48.8848 6.98242 48.8379 6.95312 48.8379 6.94531C48.8496 6.87109 48.8555 6.79492 48.8555 6.7168C48.8555 6.34961 48.7363 6.05859 48.498 5.84375C48.2637 5.625 47.9473 5.51562 47.5488 5.51562C47.1504 5.51562 46.8301 5.6875 46.5879 6.03125C46.3457 6.37109 46.2246 6.90039 46.2246 7.61914C46.2246 8.33789 46.4316 8.97266 46.8457 9.52344C47.2637 10.0742 47.7285 10.3496 48.2402 10.3496C48.6816 10.3496 49.123 10.1719 49.5645 9.81641C49.666 9.73438 49.7676 9.63672 49.8691 9.52344C49.9551 9.57812 50.043 9.65625 50.1328 9.75781C50.2266 9.85547 50.2832 9.94922 50.3027 10.0391C50.1191 10.2852 49.8418 10.5215 49.4707 10.748C48.9629 11.0527 48.4023 11.2051 47.7891 11.2051C47.1758 11.2051 46.6172 11.0762 46.1133 10.8184C45.6133 10.5605 45.2188 10.1914 44.9297 9.71094C44.6406 9.23047 44.4961 8.68359 44.4961 8.07031C44.4961 6.89062 44.9316 5.98047 45.8027 5.33984C46.3613 4.92969 47.041 4.72461 47.8418 4.72461C48.5176 4.72461 49.1055 4.87109 49.6055 5.16406C49.832 5.29688 50.0137 5.45508 50.1504 5.63867C50.2871 5.82227 50.3574 6.01367 50.3613 6.21289ZM57 7.68945L56.9648 9.6582C56.9648 9.67773 56.9648 9.69727 56.9648 9.7168C56.9648 9.93164 57.0664 10.0391 57.2695 10.0391C57.4258 10.0391 57.5918 9.98828 57.7676 9.88672C57.8223 9.93359 57.873 10 57.9199 10.0859C57.9707 10.168 58 10.2324 58.0078 10.2793C57.5234 10.8965 57.0195 11.2051 56.4961 11.2051C55.9766 11.2051 55.6133 10.9492 55.4062 10.4375C55.0469 10.6875 54.6797 10.877 54.3047 11.0059C53.9336 11.1387 53.6133 11.2051 53.3438 11.2051C53.0781 11.2051 52.8301 11.1758 52.5996 11.1172C52.373 11.0586 52.1621 10.9648 51.9668 10.8359C51.5449 10.5625 51.334 10.1113 51.334 9.48242C51.334 9.14648 51.4258 8.85352 51.6094 8.60352C51.7969 8.34961 52.0508 8.15039 52.3711 8.00586C52.9844 7.72852 53.7168 7.57812 54.5684 7.55469L55.248 7.53125C55.2754 7.21484 55.2891 6.96484 55.2891 6.78125C55.2891 6.36719 55.209 6.05469 55.0488 5.84375C54.8926 5.63281 54.5996 5.52734 54.1699 5.52734C53.9121 5.52734 53.7109 5.61719 53.5664 5.79688C53.4258 5.97656 53.3555 6.24219 53.3555 6.59375C53.3555 6.64062 53.2891 6.69727 53.1562 6.76367C52.9336 6.86914 52.7109 6.92188 52.4883 6.92188C52.2695 6.92188 52.0938 6.85938 51.9609 6.73438C51.832 6.60938 51.7676 6.43359 51.7676 6.20703C51.7676 5.98047 51.8496 5.76758 52.0137 5.56836C52.1777 5.36914 52.3965 5.21484 52.6699 5.10547C53.2129 4.89062 53.832 4.7832 54.5273 4.7832C55.2539 4.7832 55.7852 4.89844 56.1211 5.12891C56.4258 5.33203 56.6426 5.62305 56.7715 6.00195C56.9238 6.44336 57 7.00586 57 7.68945ZM55.248 9.82227C55.1973 9.53711 55.1719 9.29102 55.1719 9.08398C55.1719 8.87305 55.1777 8.58008 55.1895 8.20508L54.375 8.24023C53.957 8.24023 53.6348 8.3418 53.4082 8.54492C53.1816 8.74805 53.0684 9.00195 53.0684 9.30664C53.0684 9.61133 53.1348 9.83008 53.2676 9.96289C53.4004 10.0957 53.668 10.1621 54.0703 10.1621C54.4766 10.1621 54.8691 10.0488 55.248 9.82227ZM63.7969 9.72852L63.8555 7.49609C63.8555 6.98828 63.8379 6.66797 63.8027 6.53516C63.7715 6.40234 63.7305 6.30273 63.6797 6.23633C63.5703 6.09961 63.4102 6.03125 63.1992 6.03125C62.9883 6.03125 62.8086 6.05469 62.6602 6.10156C62.3555 6.20312 61.9648 6.48828 61.4883 6.95703C61.4883 7.46484 61.4766 8.81641 61.4531 11.0117C61.0195 11.0859 60.6582 11.123 60.3691 11.123C60.0801 11.123 59.8359 11.0859 59.6367 11.0117C59.707 10.0625 59.7422 9.1875 59.7422 8.38672C59.7422 7.58203 59.7324 6.88867 59.7129 6.30664C59.7129 6.00977 59.6074 5.83398 59.3965 5.7793C59.2637 5.73633 59.0762 5.70508 58.834 5.68555C58.8105 5.58398 58.7988 5.50391 58.7988 5.44531C58.7988 5.38281 58.8066 5.32617 58.8223 5.27539C59.3848 4.95898 60.084 4.80078 60.9199 4.80078C61.0566 4.80078 61.1582 4.80273 61.2246 4.80664C61.377 5.06836 61.4609 5.51758 61.4766 6.1543C62.207 5.2168 63.0625 4.74805 64.043 4.74805C64.4961 4.74805 64.8496 4.90234 65.1035 5.21094C65.3613 5.51562 65.5078 5.92969 65.543 6.45312C65.5586 6.69141 65.5664 6.92969 65.5664 7.16797C65.5664 7.40625 65.5547 7.66406 65.5312 7.94141C65.4648 8.78516 65.4316 9.43164 65.4316 9.88086C65.4316 9.98242 65.5039 10.0605 65.6484 10.1152C65.793 10.1699 65.9336 10.1973 66.0703 10.1973C66.2109 10.1973 66.3066 10.1895 66.3574 10.1738C66.4043 10.2793 66.4277 10.377 66.4277 10.4668C66.4277 10.5527 66.4238 10.6113 66.416 10.6426C65.6855 11.0215 65.1406 11.2109 64.7812 11.2109C64.4219 11.2109 64.168 11.0898 64.0195 10.8477C63.8711 10.6016 63.7969 10.2285 63.7969 9.72852ZM77.9883 9.99219C77.2109 10.8008 76.2188 11.2051 75.0117 11.2051C73.875 11.2051 72.9414 10.8594 72.2109 10.168C71.8477 9.82031 71.5625 9.36523 71.3555 8.80273C71.1523 8.23633 71.0508 7.55078 71.0508 6.74609C71.0508 5.9375 71.2402 5.19141 71.6191 4.50781C71.998 3.82422 72.5293 3.29492 73.2129 2.91992C73.9004 2.54492 74.6641 2.35742 75.5039 2.35742C76.3477 2.35742 77.1113 2.51758 77.7949 2.83789C77.8652 2.92383 77.9004 3.0332 77.9004 3.16602C77.9004 3.29492 77.9004 3.37891 77.9004 3.41797L77.8184 4.71289C77.6035 4.85742 77.3945 4.92969 77.1914 4.92969C76.9922 4.92969 76.834 4.90039 76.7168 4.8418C76.5996 4.7793 76.5137 4.69336 76.459 4.58398C76.3652 4.39648 76.3184 4.20898 76.3184 4.02148C76.3184 3.83008 76.3223 3.66016 76.3301 3.51172C76.1113 3.35156 75.8203 3.27148 75.457 3.27148C75.0977 3.27148 74.8066 3.30859 74.584 3.38281C74.3652 3.45312 74.1582 3.57031 73.9629 3.73438C73.7676 3.89844 73.6016 4.10352 73.4648 4.34961C73.168 4.88477 73.0195 5.61328 73.0195 6.53516C73.0195 7.69922 73.2734 8.59375 73.7812 9.21875C74.293 9.83984 74.9551 10.1504 75.7676 10.1504C76.3574 10.1504 76.9414 9.90234 77.5195 9.40625C77.7461 9.51562 77.9023 9.71094 77.9883 9.99219ZM85.998 7.8125C85.998 8.32422 85.9062 8.80469 85.7227 9.25391C85.5391 9.70312 85.2793 10.0703 84.9434 10.3555C84.2676 10.9297 83.375 11.2168 82.2656 11.2168C81.7109 11.2168 81.1992 11.0859 80.7305 10.8242C80.2617 10.5625 79.8887 10.1973 79.6113 9.72852C79.334 9.25586 79.1953 8.69336 79.1953 8.04102C79.1953 7.38477 79.3633 6.79492 79.6992 6.27148C80.3594 5.24023 81.4668 4.72461 83.0215 4.72461C83.8027 4.72461 84.4883 4.99219 85.0781 5.52734C85.6914 6.08594 85.998 6.84766 85.998 7.8125ZM80.9238 7.98242C80.9238 8.65039 81.1172 9.23438 81.5039 9.73438C81.8906 10.2344 82.3438 10.4844 82.8633 10.4844C83.8242 10.4844 84.3047 9.70117 84.3047 8.13477C84.3047 7.35742 84.127 6.72656 83.7715 6.24219C83.416 5.75781 82.9629 5.51562 82.4121 5.51562C82.1348 5.51562 81.8945 5.58594 81.6914 5.72656C81.4883 5.86719 81.334 6.05664 81.2285 6.29492C81.0254 6.75195 80.9238 7.31445 80.9238 7.98242ZM94.1191 7.8125C94.1191 8.32422 94.0273 8.80469 93.8438 9.25391C93.6602 9.70312 93.4004 10.0703 93.0645 10.3555C92.3887 10.9297 91.4961 11.2168 90.3867 11.2168C89.832 11.2168 89.3203 11.0859 88.8516 10.8242C88.3828 10.5625 88.0098 10.1973 87.7324 9.72852C87.4551 9.25586 87.3164 8.69336 87.3164 8.04102C87.3164 7.38477 87.4844 6.79492 87.8203 6.27148C88.4805 5.24023 89.5879 4.72461 91.1426 4.72461C91.9238 4.72461 92.6094 4.99219 93.1992 5.52734C93.8125 6.08594 94.1191 6.84766 94.1191 7.8125ZM89.0449 7.98242C89.0449 8.65039 89.2383 9.23438 89.625 9.73438C90.0117 10.2344 90.4648 10.4844 90.9844 10.4844C91.9453 10.4844 92.4258 9.70117 92.4258 8.13477C92.4258 7.35742 92.248 6.72656 91.8926 6.24219C91.5371 5.75781 91.084 5.51562 90.5332 5.51562C90.2559 5.51562 90.0156 5.58594 89.8125 5.72656C89.6094 5.86719 89.4551 6.05664 89.3496 6.29492C89.1465 6.75195 89.0449 7.31445 89.0449 7.98242ZM101.713 10.0742C101.869 10.0742 102.021 10.0234 102.17 9.92188L102.41 10.3145C102.148 10.709 101.811 10.9844 101.396 11.1406C101.225 11.207 101.047 11.2402 100.863 11.2402C100.68 11.2402 100.5 11.1914 100.324 11.0938C100.152 11 100 10.8789 99.8672 10.7305C99.7344 10.582 99.6035 10.3965 99.4746 10.1738C99.3496 9.95117 99.2441 9.73828 99.1582 9.53516C99.0723 9.32812 98.9863 9.09375 98.9004 8.83203C98.7949 8.52344 98.6758 8.10547 98.543 7.57812C98.2734 7.99609 98.0215 8.33594 97.7871 8.59766C97.7871 9.05078 97.7793 9.85156 97.7637 11C97.3809 11.0742 97.0391 11.1113 96.7383 11.1113C96.4414 11.1113 96.1914 11.0703 95.9883 10.9883C96.0859 10.3984 96.1348 9.29688 96.1348 7.68359C96.1348 6.07031 96.1055 4.68359 96.0469 3.52344C96.0156 3.14844 95.7676 2.93359 95.3027 2.87891C95.2988 2.85547 95.293 2.82031 95.2852 2.77344C95.2695 2.68359 95.2617 2.61914 95.2617 2.58008C95.2617 2.53711 95.2637 2.5 95.2676 2.46875C95.998 2.17969 96.7441 2.03516 97.5059 2.03516C97.541 2.03516 97.5781 2.03516 97.6172 2.03516C97.7031 2.14453 97.7559 2.36523 97.7754 2.69727C97.7949 3.0293 97.8047 3.70313 97.8047 4.71875C97.8047 5.73438 97.8027 6.66797 97.7988 7.51953C98.2324 6.71094 98.6152 6.12891 98.9473 5.77344C99.3535 5.33984 99.6953 5.06836 99.9727 4.95898C100.254 4.84961 100.506 4.79492 100.729 4.79492C101.119 4.79492 101.436 4.9043 101.678 5.12305C101.924 5.33789 102.047 5.62891 102.047 5.99609C102.047 6.35938 101.926 6.65039 101.684 6.86914C101.445 7.08398 101.16 7.19141 100.828 7.19141C100.758 7.19141 100.688 7.18555 100.617 7.17383C100.617 6.72852 100.531 6.41406 100.359 6.23047C100.281 6.14453 100.164 6.10156 100.008 6.10156C99.8555 6.10156 99.7031 6.16406 99.5508 6.28906C99.3984 6.41016 99.2227 6.60352 99.0234 6.86914C99.5625 7.83398 100.078 8.60938 100.57 9.19531C101.062 9.78125 101.443 10.0742 101.713 10.0742ZM103.717 9.44141C103.936 9.26172 104.166 9.17188 104.408 9.17188C104.65 9.17188 104.852 9.25 105.012 9.40625C105.176 9.55859 105.258 9.77344 105.258 10.0508C105.258 10.3242 105.152 10.5547 104.941 10.7422C104.734 10.9297 104.506 11.0234 104.256 11.0234C104.006 11.0234 103.795 10.9473 103.623 10.7949C103.455 10.6387 103.371 10.4277 103.371 10.1621C103.371 9.89258 103.486 9.65234 103.717 9.44141ZM106.939 9.44141C107.158 9.26172 107.389 9.17188 107.631 9.17188C107.873 9.17188 108.074 9.25 108.234 9.40625C108.398 9.55859 108.48 9.77344 108.48 10.0508C108.48 10.3242 108.375 10.5547 108.164 10.7422C107.957 10.9297 107.729 11.0234 107.479 11.0234C107.229 11.0234 107.018 10.9473 106.846 10.7949C106.678 10.6387 106.594 10.4277 106.594 10.1621C106.594 9.89258 106.709 9.65234 106.939 9.44141ZM110.162 9.44141C110.381 9.26172 110.611 9.17188 110.854 9.17188C111.096 9.17188 111.297 9.25 111.457 9.40625C111.621 9.55859 111.703 9.77344 111.703 10.0508C111.703 10.3242 111.598 10.5547 111.387 10.7422C111.18 10.9297 110.951 11.0234 110.701 11.0234C110.451 11.0234 110.24 10.9473 110.068 10.7949C109.9 10.6387 109.816 10.4277 109.816 10.1621C109.816 9.89258 109.932 9.65234 110.162 9.44141Z" fill="black"/>
</svg>
