<svg xmlns="http://www.w3.org/2000/svg" viewBox="0 0 331.94 332.05"><title>Asset 12</title><g id="Layer_2" data-name="Layer 2"><g id="Layer_1-2" data-name="Layer 1"><path d="M165.64,332q-56.49,0-113,0C22,332,.06,310.1,0,279.39Q0,166.14.05,52.9C.07,21.93,22.05,0,52.94,0q112.49,0,225,0c32.3,0,53.93,21.53,54,53.92q.12,112.5,0,225c0,31.19-22.05,53.07-53.26,53.11Q222.14,332.09,165.64,332Zm87-76.65c-1.45-2.29-2.35-3.82-3.34-5.27Q217.62,204,185.79,158c-1.87-2.69-1.53-4.11.37-6.32q18.89-22,37.57-44.14c8.46-10,16.9-20,26.07-30.8-3.7,0-6.34.31-8.89-.06-5.22-.77-8.51,1.44-11.77,5.42-11.62,14.17-23.61,28-35.48,42-5.65,6.64-11.34,13.25-17.22,20.11-1.29-1.72-2.22-2.88-3.06-4.1q-20.53-29.84-41-59.72c-1.75-2.57-3.49-3.79-6.82-3.72-12.33.25-24.67.09-37,.08H79c1.87,2.85,3.09,4.79,4.38,6.68q31,45.39,62.09,90.7c2,2.94,1.86,4.61-.39,7.21q-26,30.06-51.68,60.36c-3.58,4.2-7,8.52-11.28,13.67,3.87,0,6.39-.31,8.82.06,5.44.81,8.8-1.7,12.14-5.74,12.08-14.65,24.51-29,36.81-43.49l15-17.64c1.22,1.6,2.16,2.72,3,3.93q16.2,23.73,32.38,47.46c3.47,5.07,6.08,11.94,10.93,14.51s12,.89,18.15.92C230.2,255.43,241,255.39,252.67,255.39Z"/><path d="M100.38,88c7.87,0,14.64-.11,21.39.1a5.21,5.21,0,0,1,3.46,2.17q52.5,76,104.85,152.08c.17.24.14.62.33,1.63-7.5,0-14.89.25-22.24-.21-1.52-.09-3.12-2.63-4.28-4.33q-36.78-53.76-73.47-107.61C120.67,117.57,110.87,103.33,100.38,88Z"/></g></g></svg>